%
M48
M72
T01C0.0197
T02C0.0315
T03C0.0400
T04C0.1181
%
T01
X5656Y6155
X5656Y8155
X6656Y13155
X7656Y13155
X8656Y13155
X9656Y13155
X8156Y9655
X8156Y8905
X8156Y8405
X10156Y9155
X6906Y16655
X6906Y21030
X6406Y21030
X6906Y24655
X7031Y26280
X7781Y24655
X8156Y23655
X8656Y24155
X8906Y21030
X8406Y21030
X9406Y21030
X9906Y21030
X10406Y24655
X8656Y30155
X8156Y30155
X7656Y30155
X7156Y30155
X6406Y28280
X6156Y30280
X6156Y32155
X5906Y24655
X11156Y32280
T02
X10156Y36206
X9156Y36206
X8156Y36206
X7156Y36206
X6156Y36206
X6156Y5104
X7156Y5104
X8156Y5104
X9156Y5104
X10156Y5104
T03
X13156Y6155
X13156Y7155
X13156Y8155
X12656Y22655
X12656Y23655
X12656Y24655
X13156Y26655
X13156Y27655
X11656Y24655
X11656Y23655
X11656Y22655
X3156Y26655
X3156Y27655
X3156Y8155
X3156Y7155
X3156Y6155
T04
X1656Y2155
X14656Y2155
X14656Y39155
X1656Y39155
M30
