G75*
G70*
%OFA0B0*%
%FSLAX24Y24*%
%IPPOS*%
%LPD*%
%AMOC8*
5,1,8,0,0,1.08239X$1,22.5*
%
%ADD10C,0.0000*%
%ADD11R,0.0236X0.0866*%
%ADD12R,0.0600X0.0600*%
%ADD13OC8,0.0600*%
%ADD14R,0.0591X0.0512*%
%ADD15R,0.2100X0.0760*%
%ADD16R,0.0512X0.0591*%
%ADD17R,0.0591X0.0236*%
%ADD18R,0.0430X0.0790*%
%ADD19R,0.0579X0.0500*%
%ADD20R,0.0551X0.0866*%
%ADD21R,0.0551X0.1024*%
%ADD22C,0.0600*%
%ADD23R,0.0866X0.0236*%
%ADD24C,0.0515*%
%ADD25R,0.0591X0.0394*%
%ADD26R,0.0787X0.0394*%
%ADD27C,0.0866*%
%ADD28C,0.0120*%
%ADD29R,0.0472X0.0472*%
%ADD30C,0.0100*%
%ADD31C,0.0357*%
%ADD32C,0.0160*%
%ADD33C,0.0240*%
D10*
X000156Y000655D02*
X000156Y040025D01*
X016156Y040025D01*
X016156Y000655D01*
X000156Y000655D01*
X001065Y002155D02*
X001067Y002203D01*
X001073Y002251D01*
X001083Y002298D01*
X001096Y002344D01*
X001114Y002389D01*
X001134Y002433D01*
X001159Y002475D01*
X001187Y002514D01*
X001217Y002551D01*
X001251Y002585D01*
X001288Y002617D01*
X001326Y002646D01*
X001367Y002671D01*
X001410Y002693D01*
X001455Y002711D01*
X001501Y002725D01*
X001548Y002736D01*
X001596Y002743D01*
X001644Y002746D01*
X001692Y002745D01*
X001740Y002740D01*
X001788Y002731D01*
X001834Y002719D01*
X001879Y002702D01*
X001923Y002682D01*
X001965Y002659D01*
X002005Y002632D01*
X002043Y002602D01*
X002078Y002569D01*
X002110Y002533D01*
X002140Y002495D01*
X002166Y002454D01*
X002188Y002411D01*
X002208Y002367D01*
X002223Y002322D01*
X002235Y002275D01*
X002243Y002227D01*
X002247Y002179D01*
X002247Y002131D01*
X002243Y002083D01*
X002235Y002035D01*
X002223Y001988D01*
X002208Y001943D01*
X002188Y001899D01*
X002166Y001856D01*
X002140Y001815D01*
X002110Y001777D01*
X002078Y001741D01*
X002043Y001708D01*
X002005Y001678D01*
X001965Y001651D01*
X001923Y001628D01*
X001879Y001608D01*
X001834Y001591D01*
X001788Y001579D01*
X001740Y001570D01*
X001692Y001565D01*
X001644Y001564D01*
X001596Y001567D01*
X001548Y001574D01*
X001501Y001585D01*
X001455Y001599D01*
X001410Y001617D01*
X001367Y001639D01*
X001326Y001664D01*
X001288Y001693D01*
X001251Y001725D01*
X001217Y001759D01*
X001187Y001796D01*
X001159Y001835D01*
X001134Y001877D01*
X001114Y001921D01*
X001096Y001966D01*
X001083Y002012D01*
X001073Y002059D01*
X001067Y002107D01*
X001065Y002155D01*
X014065Y002155D02*
X014067Y002203D01*
X014073Y002251D01*
X014083Y002298D01*
X014096Y002344D01*
X014114Y002389D01*
X014134Y002433D01*
X014159Y002475D01*
X014187Y002514D01*
X014217Y002551D01*
X014251Y002585D01*
X014288Y002617D01*
X014326Y002646D01*
X014367Y002671D01*
X014410Y002693D01*
X014455Y002711D01*
X014501Y002725D01*
X014548Y002736D01*
X014596Y002743D01*
X014644Y002746D01*
X014692Y002745D01*
X014740Y002740D01*
X014788Y002731D01*
X014834Y002719D01*
X014879Y002702D01*
X014923Y002682D01*
X014965Y002659D01*
X015005Y002632D01*
X015043Y002602D01*
X015078Y002569D01*
X015110Y002533D01*
X015140Y002495D01*
X015166Y002454D01*
X015188Y002411D01*
X015208Y002367D01*
X015223Y002322D01*
X015235Y002275D01*
X015243Y002227D01*
X015247Y002179D01*
X015247Y002131D01*
X015243Y002083D01*
X015235Y002035D01*
X015223Y001988D01*
X015208Y001943D01*
X015188Y001899D01*
X015166Y001856D01*
X015140Y001815D01*
X015110Y001777D01*
X015078Y001741D01*
X015043Y001708D01*
X015005Y001678D01*
X014965Y001651D01*
X014923Y001628D01*
X014879Y001608D01*
X014834Y001591D01*
X014788Y001579D01*
X014740Y001570D01*
X014692Y001565D01*
X014644Y001564D01*
X014596Y001567D01*
X014548Y001574D01*
X014501Y001585D01*
X014455Y001599D01*
X014410Y001617D01*
X014367Y001639D01*
X014326Y001664D01*
X014288Y001693D01*
X014251Y001725D01*
X014217Y001759D01*
X014187Y001796D01*
X014159Y001835D01*
X014134Y001877D01*
X014114Y001921D01*
X014096Y001966D01*
X014083Y002012D01*
X014073Y002059D01*
X014067Y002107D01*
X014065Y002155D01*
X014065Y039155D02*
X014067Y039203D01*
X014073Y039251D01*
X014083Y039298D01*
X014096Y039344D01*
X014114Y039389D01*
X014134Y039433D01*
X014159Y039475D01*
X014187Y039514D01*
X014217Y039551D01*
X014251Y039585D01*
X014288Y039617D01*
X014326Y039646D01*
X014367Y039671D01*
X014410Y039693D01*
X014455Y039711D01*
X014501Y039725D01*
X014548Y039736D01*
X014596Y039743D01*
X014644Y039746D01*
X014692Y039745D01*
X014740Y039740D01*
X014788Y039731D01*
X014834Y039719D01*
X014879Y039702D01*
X014923Y039682D01*
X014965Y039659D01*
X015005Y039632D01*
X015043Y039602D01*
X015078Y039569D01*
X015110Y039533D01*
X015140Y039495D01*
X015166Y039454D01*
X015188Y039411D01*
X015208Y039367D01*
X015223Y039322D01*
X015235Y039275D01*
X015243Y039227D01*
X015247Y039179D01*
X015247Y039131D01*
X015243Y039083D01*
X015235Y039035D01*
X015223Y038988D01*
X015208Y038943D01*
X015188Y038899D01*
X015166Y038856D01*
X015140Y038815D01*
X015110Y038777D01*
X015078Y038741D01*
X015043Y038708D01*
X015005Y038678D01*
X014965Y038651D01*
X014923Y038628D01*
X014879Y038608D01*
X014834Y038591D01*
X014788Y038579D01*
X014740Y038570D01*
X014692Y038565D01*
X014644Y038564D01*
X014596Y038567D01*
X014548Y038574D01*
X014501Y038585D01*
X014455Y038599D01*
X014410Y038617D01*
X014367Y038639D01*
X014326Y038664D01*
X014288Y038693D01*
X014251Y038725D01*
X014217Y038759D01*
X014187Y038796D01*
X014159Y038835D01*
X014134Y038877D01*
X014114Y038921D01*
X014096Y038966D01*
X014083Y039012D01*
X014073Y039059D01*
X014067Y039107D01*
X014065Y039155D01*
X001065Y039155D02*
X001067Y039203D01*
X001073Y039251D01*
X001083Y039298D01*
X001096Y039344D01*
X001114Y039389D01*
X001134Y039433D01*
X001159Y039475D01*
X001187Y039514D01*
X001217Y039551D01*
X001251Y039585D01*
X001288Y039617D01*
X001326Y039646D01*
X001367Y039671D01*
X001410Y039693D01*
X001455Y039711D01*
X001501Y039725D01*
X001548Y039736D01*
X001596Y039743D01*
X001644Y039746D01*
X001692Y039745D01*
X001740Y039740D01*
X001788Y039731D01*
X001834Y039719D01*
X001879Y039702D01*
X001923Y039682D01*
X001965Y039659D01*
X002005Y039632D01*
X002043Y039602D01*
X002078Y039569D01*
X002110Y039533D01*
X002140Y039495D01*
X002166Y039454D01*
X002188Y039411D01*
X002208Y039367D01*
X002223Y039322D01*
X002235Y039275D01*
X002243Y039227D01*
X002247Y039179D01*
X002247Y039131D01*
X002243Y039083D01*
X002235Y039035D01*
X002223Y038988D01*
X002208Y038943D01*
X002188Y038899D01*
X002166Y038856D01*
X002140Y038815D01*
X002110Y038777D01*
X002078Y038741D01*
X002043Y038708D01*
X002005Y038678D01*
X001965Y038651D01*
X001923Y038628D01*
X001879Y038608D01*
X001834Y038591D01*
X001788Y038579D01*
X001740Y038570D01*
X001692Y038565D01*
X001644Y038564D01*
X001596Y038567D01*
X001548Y038574D01*
X001501Y038585D01*
X001455Y038599D01*
X001410Y038617D01*
X001367Y038639D01*
X001326Y038664D01*
X001288Y038693D01*
X001251Y038725D01*
X001217Y038759D01*
X001187Y038796D01*
X001159Y038835D01*
X001134Y038877D01*
X001114Y038921D01*
X001096Y038966D01*
X001083Y039012D01*
X001073Y039059D01*
X001067Y039107D01*
X001065Y039155D01*
D11*
X005906Y025466D03*
X006406Y025466D03*
X006906Y025466D03*
X007406Y025466D03*
X007906Y025466D03*
X008406Y025466D03*
X008906Y025466D03*
X009406Y025466D03*
X009906Y025466D03*
X010406Y025466D03*
X010406Y021844D03*
X009906Y021844D03*
X009406Y021844D03*
X008906Y021844D03*
X008406Y021844D03*
X007906Y021844D03*
X007406Y021844D03*
X006906Y021844D03*
X006406Y021844D03*
X005906Y021844D03*
D12*
X011656Y024655D03*
D13*
X011656Y023655D03*
X011656Y022655D03*
X012656Y022655D03*
X012656Y023655D03*
X012656Y024655D03*
D14*
X013156Y013529D03*
X013156Y012781D03*
X012156Y012781D03*
X012156Y013529D03*
X011156Y013529D03*
X011156Y012781D03*
X009656Y011029D03*
X009656Y010281D03*
X008656Y010281D03*
X008656Y011029D03*
X007656Y011029D03*
X007656Y010281D03*
X006656Y010281D03*
X006656Y011029D03*
X004156Y012781D03*
X004156Y013529D03*
X004656Y022281D03*
X004656Y023029D03*
X004656Y024281D03*
X004656Y025029D03*
D15*
X006256Y019655D03*
X010056Y019655D03*
D16*
X010030Y017655D03*
X009282Y017655D03*
X007030Y017655D03*
X006282Y017655D03*
X006782Y009155D03*
X007530Y009155D03*
X008782Y009155D03*
X009530Y009155D03*
X005030Y004655D03*
X004282Y004655D03*
X004782Y030655D03*
X004782Y031655D03*
X004782Y032655D03*
X005530Y032655D03*
X005530Y031655D03*
X005530Y030655D03*
D17*
X007073Y007905D03*
X007073Y007405D03*
X007073Y006905D03*
X007073Y006405D03*
X009238Y006405D03*
X009238Y006905D03*
X009238Y007405D03*
X009238Y007905D03*
D18*
X009656Y012385D03*
X008656Y012385D03*
X007656Y012385D03*
X006656Y012385D03*
X006656Y015925D03*
X007656Y015925D03*
X008656Y015925D03*
X009656Y015925D03*
D19*
X013156Y029809D03*
X013156Y031502D03*
D20*
X005531Y029660D03*
X005531Y028400D03*
D21*
X011156Y029848D03*
X011156Y031462D03*
D22*
X012856Y027655D02*
X013456Y027655D01*
X013456Y026655D02*
X012856Y026655D01*
X012856Y008155D02*
X013456Y008155D01*
X013456Y007155D02*
X012856Y007155D01*
X012856Y006155D02*
X013456Y006155D01*
X003456Y006155D02*
X002856Y006155D01*
X002856Y007155D02*
X003456Y007155D01*
X003456Y008155D02*
X002856Y008155D01*
X002856Y026655D02*
X003456Y026655D01*
X003456Y027655D02*
X002856Y027655D01*
D23*
X007053Y031155D03*
X007053Y031655D03*
X007053Y032155D03*
X007053Y032655D03*
X007053Y033155D03*
X007053Y033655D03*
X007053Y034155D03*
X007053Y034655D03*
X009258Y034655D03*
X009258Y034155D03*
X009258Y033655D03*
X009258Y033155D03*
X009258Y032655D03*
X009258Y032155D03*
X009258Y031655D03*
X009258Y031155D03*
D24*
X009156Y035949D02*
X009156Y036464D01*
X010156Y036464D02*
X010156Y035949D01*
X008156Y035949D02*
X008156Y036464D01*
X007156Y036464D02*
X007156Y035949D01*
X006156Y035949D02*
X006156Y036464D01*
X006156Y005361D02*
X006156Y004846D01*
X007156Y004846D02*
X007156Y005361D01*
X008156Y005361D02*
X008156Y004846D01*
X009156Y004846D02*
X009156Y005361D01*
X010156Y005361D02*
X010156Y004846D01*
D25*
X008436Y028315D03*
X008436Y029495D03*
D26*
X008336Y028905D03*
D27*
X007581Y028905D02*
X006991Y028905D01*
D28*
X006966Y037715D02*
X006716Y037715D01*
X006596Y037835D01*
X006596Y037965D01*
X006346Y037965D01*
X006106Y037715D01*
X006226Y037965D02*
X006106Y038085D01*
X006106Y038335D01*
X006226Y038455D01*
X006596Y038455D01*
X006596Y037965D01*
X006596Y037715D01*
X006596Y037965D02*
X006596Y038335D01*
X006716Y038455D01*
X006956Y038455D01*
X007076Y038335D01*
X007086Y038085D02*
X007086Y037845D01*
X006966Y037715D01*
X007086Y038085D02*
X006836Y038085D01*
X006346Y037965D02*
X006226Y037965D01*
X007456Y037715D02*
X007946Y038195D01*
X007946Y038315D01*
X007946Y038325D02*
X007826Y038445D01*
X007586Y038445D01*
X007456Y038315D01*
X007456Y037715D02*
X007946Y037715D01*
X008256Y037835D02*
X008376Y037715D01*
X008616Y037715D01*
X008736Y037835D01*
X008736Y038315D01*
X008616Y038435D01*
X008376Y038435D01*
X008256Y038315D01*
X008256Y037835D01*
X008726Y038315D01*
X009046Y038193D02*
X009288Y038435D01*
X009288Y038428D02*
X009288Y037723D01*
X009528Y037715D02*
X009043Y037715D01*
X009826Y037715D02*
X010316Y038195D01*
X010316Y038315D01*
X010316Y038325D02*
X010196Y038445D01*
X009956Y038445D01*
X009826Y038315D01*
X009833Y037715D02*
X010318Y037715D01*
D29*
X011156Y015569D03*
X011156Y014742D03*
X012156Y014742D03*
X012156Y015569D03*
X013156Y015569D03*
X013156Y014742D03*
X004156Y014742D03*
X004156Y015569D03*
D30*
X004156Y016405D01*
X004406Y016655D01*
X006656Y016655D01*
X006906Y016655D01*
X007656Y016655D01*
X007656Y015925D01*
X007656Y016655D02*
X008656Y016655D01*
X008656Y015925D01*
X008656Y016655D02*
X009406Y016655D01*
X009656Y016405D01*
X009656Y015925D01*
X009856Y016470D02*
X009856Y016488D01*
X009606Y016738D01*
X009488Y016855D01*
X008738Y016855D01*
X008573Y016855D01*
X007738Y016855D01*
X007573Y016855D01*
X007170Y016855D01*
X007092Y016934D01*
X006971Y016984D01*
X006840Y016984D01*
X006720Y016934D01*
X006641Y016855D01*
X006573Y016855D01*
X004323Y016855D01*
X004206Y016738D01*
X003956Y016488D01*
X003956Y016322D01*
X003956Y015955D01*
X003857Y015955D01*
X003769Y015867D01*
X003769Y015270D01*
X003857Y015182D01*
X004454Y015182D01*
X004542Y015270D01*
X004542Y015867D01*
X004454Y015955D01*
X004356Y015955D01*
X004356Y016322D01*
X004488Y016455D01*
X006364Y016455D01*
X006291Y016382D01*
X006291Y015468D01*
X006378Y015380D01*
X006933Y015380D01*
X007021Y015468D01*
X007021Y016347D01*
X007092Y016377D01*
X007170Y016455D01*
X007364Y016455D01*
X007291Y016382D01*
X007291Y015468D01*
X007378Y015380D01*
X007933Y015380D01*
X008021Y015468D01*
X008021Y016382D01*
X007948Y016455D01*
X008364Y016455D01*
X008291Y016382D01*
X008291Y015468D01*
X008378Y015380D01*
X008933Y015380D01*
X009021Y015468D01*
X009021Y016382D01*
X008948Y016455D01*
X009323Y016455D01*
X009343Y016435D01*
X009291Y016382D01*
X009291Y015468D01*
X009378Y015380D01*
X009933Y015380D01*
X010021Y015468D01*
X010021Y016382D01*
X009933Y016470D01*
X009856Y016470D01*
X009823Y016521D02*
X010956Y016521D01*
X010956Y016619D02*
X009724Y016619D01*
X009626Y016718D02*
X010956Y016718D01*
X010956Y016816D02*
X009527Y016816D01*
X009557Y017210D02*
X009331Y017210D01*
X009331Y017605D01*
X009232Y017605D01*
X009232Y017210D01*
X009006Y017210D01*
X008968Y017220D01*
X008934Y017240D01*
X008906Y017268D01*
X008886Y017302D01*
X008876Y017340D01*
X008876Y017605D01*
X009231Y017605D01*
X009231Y017705D01*
X008876Y017705D01*
X008876Y017970D01*
X008886Y018008D01*
X008906Y018042D01*
X008934Y018070D01*
X008968Y018090D01*
X009006Y018100D01*
X009232Y018100D01*
X009232Y017705D01*
X009331Y017705D01*
X009331Y018100D01*
X009557Y018100D01*
X009595Y018090D01*
X009630Y018070D01*
X009656Y018044D01*
X009712Y018100D01*
X009856Y018100D01*
X009856Y019125D01*
X008943Y019125D01*
X008856Y019213D01*
X008856Y019455D01*
X008323Y019455D01*
X008206Y019572D01*
X007706Y020072D01*
X007706Y020238D01*
X007706Y021281D01*
X007656Y021331D01*
X007606Y021281D01*
X007606Y020238D01*
X007606Y020072D01*
X007456Y019922D01*
X007456Y019213D01*
X007368Y019125D01*
X006456Y019125D01*
X006456Y018100D01*
X006600Y018100D01*
X006656Y018044D01*
X006682Y018070D01*
X006716Y018090D01*
X006754Y018100D01*
X006980Y018100D01*
X006980Y017705D01*
X007079Y017705D01*
X007079Y018100D01*
X007305Y018100D01*
X007343Y018090D01*
X007378Y018070D01*
X007406Y018042D01*
X007425Y018008D01*
X007435Y017970D01*
X007435Y017705D01*
X007080Y017705D01*
X007080Y017605D01*
X007435Y017605D01*
X007435Y017340D01*
X007425Y017302D01*
X007406Y017268D01*
X007378Y017240D01*
X007343Y017220D01*
X007305Y017210D01*
X007079Y017210D01*
X007079Y017605D01*
X006980Y017605D01*
X006980Y017210D01*
X006754Y017210D01*
X006716Y017220D01*
X006682Y017240D01*
X006656Y017266D01*
X006600Y017210D01*
X006752Y017210D01*
X006600Y017210D02*
X005964Y017210D01*
X005876Y017298D01*
X005876Y018013D01*
X005964Y018100D01*
X006056Y018100D01*
X006056Y019125D01*
X005143Y019125D01*
X005056Y019213D01*
X005056Y020097D01*
X005143Y020185D01*
X007153Y020185D01*
X007206Y020238D01*
X007206Y020896D01*
X007184Y020844D01*
X007092Y020752D01*
X006971Y020702D01*
X006840Y020702D01*
X006720Y020752D01*
X006656Y020816D01*
X006592Y020752D01*
X006471Y020702D01*
X006340Y020702D01*
X006220Y020752D01*
X006127Y020844D01*
X006077Y020965D01*
X006077Y021095D01*
X006127Y021216D01*
X006199Y021288D01*
X006156Y021331D01*
X006086Y021261D01*
X005725Y021261D01*
X005637Y021349D01*
X005637Y021644D01*
X005175Y021644D01*
X005010Y021644D01*
X004779Y021875D01*
X004298Y021875D01*
X004210Y021963D01*
X004210Y022599D01*
X004266Y022655D01*
X004210Y022711D01*
X004210Y022829D01*
X004074Y022829D01*
X003823Y023080D01*
X003706Y023197D01*
X003706Y024697D01*
X003706Y024863D01*
X004072Y025229D01*
X004210Y025229D01*
X004210Y025347D01*
X004298Y025435D01*
X004779Y025435D01*
X005010Y025666D01*
X005175Y025666D01*
X005637Y025666D01*
X005637Y025961D01*
X005725Y026049D01*
X006086Y026049D01*
X006156Y025979D01*
X006225Y026049D01*
X006586Y026049D01*
X006656Y025979D01*
X006725Y026049D01*
X006797Y026049D01*
X006752Y026094D01*
X006702Y026215D01*
X006702Y026345D01*
X006752Y026466D01*
X006845Y026559D01*
X006965Y026609D01*
X007096Y026609D01*
X007217Y026559D01*
X007295Y026480D01*
X008738Y026480D01*
X008856Y026363D01*
X009106Y026113D01*
X009106Y026029D01*
X009156Y025979D01*
X009225Y026049D01*
X009586Y026049D01*
X009656Y025979D01*
X009706Y026029D01*
X009706Y026113D01*
X009956Y026363D01*
X010073Y026480D01*
X010573Y026480D01*
X010738Y026480D01*
X011238Y025980D01*
X013073Y025980D01*
X013238Y025980D01*
X013863Y025355D01*
X013981Y025238D01*
X013981Y017697D01*
X013863Y017580D01*
X013863Y017580D01*
X013356Y017072D01*
X013356Y015955D01*
X013454Y015955D01*
X013542Y015867D01*
X013542Y015270D01*
X013454Y015182D01*
X012857Y015182D01*
X012769Y015270D01*
X012769Y015867D01*
X012857Y015955D01*
X012956Y015955D01*
X012956Y017238D01*
X013073Y017355D01*
X013073Y017355D01*
X013581Y017863D01*
X013581Y018297D01*
X012356Y017072D01*
X012356Y015955D01*
X012454Y015955D01*
X012542Y015867D01*
X012542Y015270D01*
X012454Y015182D01*
X011857Y015182D01*
X011769Y015270D01*
X011769Y015867D01*
X011857Y015955D01*
X011956Y015955D01*
X011956Y017238D01*
X012073Y017355D01*
X013331Y018613D01*
X013331Y019047D01*
X011356Y017072D01*
X011356Y015955D01*
X011454Y015955D01*
X011542Y015867D01*
X011542Y015270D01*
X011454Y015182D01*
X010857Y015182D01*
X010769Y015270D01*
X010769Y015867D01*
X010857Y015955D01*
X010956Y015955D01*
X010956Y017238D01*
X011073Y017355D01*
X013081Y019363D01*
X013081Y022444D01*
X012842Y022205D01*
X012706Y022205D01*
X012706Y022605D01*
X012606Y022605D01*
X012606Y022205D01*
X012469Y022205D01*
X012206Y022469D01*
X012206Y022605D01*
X012605Y022605D01*
X012605Y022705D01*
X012206Y022705D01*
X012206Y022841D01*
X012469Y023105D01*
X012606Y023105D01*
X012606Y022705D01*
X012706Y022705D01*
X012706Y023105D01*
X012842Y023105D01*
X013081Y022866D01*
X013081Y023444D01*
X012842Y023205D01*
X012469Y023205D01*
X012206Y023469D01*
X012206Y023822D01*
X012073Y023955D01*
X011992Y023955D01*
X012106Y023841D01*
X012106Y023469D01*
X011842Y023205D01*
X011469Y023205D01*
X011291Y023383D01*
X011113Y023205D01*
X010948Y023205D01*
X009698Y023205D01*
X009581Y023322D01*
X009448Y023455D01*
X008420Y023455D01*
X008342Y023377D01*
X008221Y023327D01*
X008090Y023327D01*
X007970Y023377D01*
X007891Y023455D01*
X007323Y023455D01*
X007206Y023572D01*
X007206Y023572D01*
X006323Y024455D01*
X006323Y024455D01*
X006221Y024557D01*
X006184Y024469D01*
X006092Y024377D01*
X005971Y024327D01*
X005840Y024327D01*
X005720Y024377D01*
X005627Y024469D01*
X005577Y024590D01*
X005577Y024720D01*
X005627Y024841D01*
X005697Y024911D01*
X005637Y024971D01*
X005637Y025266D01*
X005175Y025266D01*
X005101Y025192D01*
X005101Y024711D01*
X005045Y024655D01*
X005071Y024629D01*
X005091Y024595D01*
X005101Y024557D01*
X005101Y024331D01*
X004706Y024331D01*
X004706Y024231D01*
X005101Y024231D01*
X005101Y024005D01*
X005091Y023967D01*
X005071Y023933D01*
X005043Y023905D01*
X005009Y023885D01*
X004971Y023875D01*
X004705Y023875D01*
X004705Y024231D01*
X004606Y024231D01*
X004606Y023875D01*
X004341Y023875D01*
X004302Y023885D01*
X004268Y023905D01*
X004240Y023933D01*
X004221Y023967D01*
X004210Y024005D01*
X004210Y024231D01*
X004605Y024231D01*
X004605Y024331D01*
X004210Y024331D01*
X004210Y024557D01*
X004221Y024595D01*
X004240Y024629D01*
X004266Y024655D01*
X004210Y024711D01*
X004210Y024802D01*
X004106Y024697D01*
X004106Y023363D01*
X004210Y023258D01*
X004210Y023347D01*
X004298Y023435D01*
X005013Y023435D01*
X005101Y023347D01*
X005101Y022711D01*
X005045Y022655D01*
X005101Y022599D01*
X005101Y022119D01*
X005175Y022044D01*
X005637Y022044D01*
X005637Y022339D01*
X005706Y022407D01*
X005706Y022488D01*
X005823Y022605D01*
X006073Y022855D01*
X006238Y022855D01*
X011219Y022855D01*
X011469Y023105D01*
X011842Y023105D01*
X012106Y022841D01*
X012106Y022469D01*
X011842Y022205D01*
X011469Y022205D01*
X011219Y022455D01*
X006238Y022455D01*
X006148Y022365D01*
X006156Y022357D01*
X006225Y022427D01*
X006586Y022427D01*
X006656Y022357D01*
X006725Y022427D01*
X007086Y022427D01*
X007156Y022357D01*
X007225Y022427D01*
X007586Y022427D01*
X007656Y022357D01*
X007725Y022427D01*
X008086Y022427D01*
X008156Y022357D01*
X008225Y022427D01*
X008586Y022427D01*
X008656Y022357D01*
X008725Y022427D01*
X009086Y022427D01*
X009156Y022357D01*
X009225Y022427D01*
X009586Y022427D01*
X009656Y022357D01*
X009725Y022427D01*
X010086Y022427D01*
X010159Y022354D01*
X010167Y022369D01*
X010195Y022397D01*
X010230Y022417D01*
X010268Y022427D01*
X010396Y022427D01*
X010396Y021853D01*
X010415Y021853D01*
X010674Y021853D01*
X010674Y022297D01*
X010663Y022335D01*
X010644Y022369D01*
X010616Y022397D01*
X010582Y022417D01*
X010543Y022427D01*
X010415Y022427D01*
X010415Y021853D01*
X010415Y021835D01*
X010674Y021835D01*
X010674Y021391D01*
X010663Y021353D01*
X010644Y021319D01*
X010616Y021291D01*
X010582Y021271D01*
X010543Y021261D01*
X010415Y021261D01*
X010415Y021835D01*
X010396Y021835D01*
X010396Y021261D01*
X010268Y021261D01*
X010230Y021271D01*
X010195Y021291D01*
X010167Y021319D01*
X010159Y021334D01*
X010112Y021288D01*
X010184Y021216D01*
X010234Y021095D01*
X010234Y020965D01*
X010184Y020844D01*
X010092Y020752D01*
X009971Y020702D01*
X009840Y020702D01*
X009720Y020752D01*
X009656Y020816D01*
X009592Y020752D01*
X009471Y020702D01*
X009340Y020702D01*
X009220Y020752D01*
X009156Y020816D01*
X009092Y020752D01*
X008971Y020702D01*
X008840Y020702D01*
X008720Y020752D01*
X008656Y020816D01*
X008592Y020752D01*
X008471Y020702D01*
X008340Y020702D01*
X008220Y020752D01*
X008127Y020844D01*
X008106Y020896D01*
X008106Y020238D01*
X008488Y019855D01*
X008856Y019855D01*
X008856Y020097D01*
X008943Y020185D01*
X011168Y020185D01*
X011256Y020097D01*
X011256Y019213D01*
X011168Y019125D01*
X010256Y019125D01*
X010256Y018100D01*
X010348Y018100D01*
X010435Y018013D01*
X010435Y017298D01*
X010348Y017210D01*
X009712Y017210D01*
X009656Y017266D01*
X009630Y017240D01*
X009595Y017220D01*
X009557Y017210D01*
X009559Y017210D02*
X009711Y017210D01*
X009331Y017210D02*
X009232Y017210D01*
X009232Y017309D02*
X009331Y017309D01*
X009331Y017407D02*
X009232Y017407D01*
X009232Y017506D02*
X009331Y017506D01*
X009331Y017605D02*
X009232Y017605D01*
X009231Y017703D02*
X007080Y017703D01*
X007079Y017605D02*
X006980Y017605D01*
X006980Y017506D02*
X007079Y017506D01*
X007079Y017407D02*
X006980Y017407D01*
X006980Y017309D02*
X007079Y017309D01*
X007079Y017210D02*
X006980Y017210D01*
X007110Y016915D02*
X010956Y016915D01*
X010956Y017013D02*
X001886Y017013D01*
X001886Y016915D02*
X006701Y016915D01*
X006656Y016655D02*
X006656Y015925D01*
X007021Y015929D02*
X007291Y015929D01*
X007291Y015831D02*
X007021Y015831D01*
X007021Y015732D02*
X007291Y015732D01*
X007291Y015634D02*
X007021Y015634D01*
X007021Y015535D02*
X007291Y015535D01*
X007322Y015437D02*
X006989Y015437D01*
X007021Y016028D02*
X007291Y016028D01*
X007291Y016126D02*
X007021Y016126D01*
X007021Y016225D02*
X007291Y016225D01*
X007291Y016324D02*
X007021Y016324D01*
X007137Y016422D02*
X007330Y016422D01*
X007307Y017210D02*
X009004Y017210D01*
X008884Y017309D02*
X007427Y017309D01*
X007435Y017407D02*
X008876Y017407D01*
X008876Y017506D02*
X007435Y017506D01*
X007435Y017605D02*
X008876Y017605D01*
X008876Y017802D02*
X007435Y017802D01*
X007435Y017900D02*
X008876Y017900D01*
X008883Y017999D02*
X007428Y017999D01*
X007317Y018097D02*
X008994Y018097D01*
X009232Y018097D02*
X009331Y018097D01*
X009331Y017999D02*
X009232Y017999D01*
X009232Y017900D02*
X009331Y017900D01*
X009331Y017802D02*
X009232Y017802D01*
X009569Y018097D02*
X009709Y018097D01*
X009856Y018196D02*
X006456Y018196D01*
X006456Y018294D02*
X009856Y018294D01*
X009856Y018393D02*
X006456Y018393D01*
X006456Y018491D02*
X009856Y018491D01*
X009856Y018590D02*
X006456Y018590D01*
X006456Y018689D02*
X009856Y018689D01*
X009856Y018787D02*
X006456Y018787D01*
X006456Y018886D02*
X009856Y018886D01*
X009856Y018984D02*
X006456Y018984D01*
X006456Y019083D02*
X009856Y019083D01*
X010056Y019655D02*
X010056Y017681D01*
X010030Y017655D01*
X010351Y018097D02*
X011815Y018097D01*
X011716Y017999D02*
X010435Y017999D01*
X010435Y017900D02*
X011618Y017900D01*
X011519Y017802D02*
X010435Y017802D01*
X010435Y017703D02*
X011421Y017703D01*
X011322Y017605D02*
X010435Y017605D01*
X010435Y017506D02*
X011224Y017506D01*
X011125Y017407D02*
X010435Y017407D01*
X010435Y017309D02*
X011027Y017309D01*
X010956Y017210D02*
X010348Y017210D01*
X009981Y016422D02*
X010956Y016422D01*
X010956Y016324D02*
X010021Y016324D01*
X010021Y016225D02*
X010956Y016225D01*
X010956Y016126D02*
X010021Y016126D01*
X010021Y016028D02*
X010956Y016028D01*
X010832Y015929D02*
X010021Y015929D01*
X010021Y015831D02*
X010769Y015831D01*
X010769Y015732D02*
X010021Y015732D01*
X010021Y015634D02*
X010769Y015634D01*
X010769Y015535D02*
X010021Y015535D01*
X009989Y015437D02*
X010769Y015437D01*
X010769Y015338D02*
X004542Y015338D01*
X004542Y015437D02*
X006322Y015437D01*
X006291Y015535D02*
X004542Y015535D01*
X004542Y015634D02*
X006291Y015634D01*
X006291Y015732D02*
X004542Y015732D01*
X004542Y015831D02*
X006291Y015831D01*
X006291Y015929D02*
X004479Y015929D01*
X004356Y016028D02*
X006291Y016028D01*
X006291Y016126D02*
X004356Y016126D01*
X004356Y016225D02*
X006291Y016225D01*
X006291Y016324D02*
X004357Y016324D01*
X004455Y016422D02*
X006330Y016422D01*
X005963Y017210D02*
X001886Y017210D01*
X001886Y017112D02*
X010956Y017112D01*
X011156Y017155D02*
X011156Y015569D01*
X011356Y016028D02*
X011956Y016028D01*
X011956Y016126D02*
X011356Y016126D01*
X011356Y016225D02*
X011956Y016225D01*
X011956Y016324D02*
X011356Y016324D01*
X011356Y016422D02*
X011956Y016422D01*
X011956Y016521D02*
X011356Y016521D01*
X011356Y016619D02*
X011956Y016619D01*
X011956Y016718D02*
X011356Y016718D01*
X011356Y016816D02*
X011956Y016816D01*
X011956Y016915D02*
X011356Y016915D01*
X011356Y017013D02*
X011956Y017013D01*
X011956Y017112D02*
X011395Y017112D01*
X011494Y017210D02*
X011956Y017210D01*
X012027Y017309D02*
X011592Y017309D01*
X011691Y017407D02*
X012125Y017407D01*
X012224Y017506D02*
X011789Y017506D01*
X011888Y017605D02*
X012322Y017605D01*
X012421Y017703D02*
X011986Y017703D01*
X012085Y017802D02*
X012519Y017802D01*
X012618Y017900D02*
X012183Y017900D01*
X012282Y017999D02*
X012716Y017999D01*
X012815Y018097D02*
X012381Y018097D01*
X012479Y018196D02*
X012913Y018196D01*
X013012Y018294D02*
X012578Y018294D01*
X012676Y018393D02*
X013111Y018393D01*
X013209Y018491D02*
X012775Y018491D01*
X012873Y018590D02*
X013308Y018590D01*
X013331Y018689D02*
X012972Y018689D01*
X013070Y018787D02*
X013331Y018787D01*
X013331Y018886D02*
X013169Y018886D01*
X013267Y018984D02*
X013331Y018984D01*
X013281Y019280D02*
X011156Y017155D01*
X011479Y015929D02*
X011832Y015929D01*
X011769Y015831D02*
X011542Y015831D01*
X011542Y015732D02*
X011769Y015732D01*
X011769Y015634D02*
X011542Y015634D01*
X011542Y015535D02*
X011769Y015535D01*
X011769Y015437D02*
X011542Y015437D01*
X011542Y015338D02*
X011769Y015338D01*
X011800Y015240D02*
X011511Y015240D01*
X011454Y015128D02*
X010857Y015128D01*
X010769Y015040D01*
X010769Y014443D01*
X010857Y014356D01*
X010956Y014356D01*
X010956Y013935D01*
X010798Y013935D01*
X010710Y013847D01*
X010710Y013211D01*
X010766Y013155D01*
X010740Y013129D01*
X010721Y013095D01*
X010710Y013057D01*
X010710Y012831D01*
X011105Y012831D01*
X011105Y012731D01*
X010710Y012731D01*
X010710Y012505D01*
X010721Y012467D01*
X010740Y012433D01*
X010768Y012405D01*
X010802Y012385D01*
X010841Y012375D01*
X011106Y012375D01*
X011106Y012731D01*
X011205Y012731D01*
X011205Y012375D01*
X011471Y012375D01*
X011509Y012385D01*
X011543Y012405D01*
X011571Y012433D01*
X011591Y012467D01*
X011601Y012505D01*
X011601Y012731D01*
X011206Y012731D01*
X011206Y012831D01*
X011601Y012831D01*
X011601Y013057D01*
X011591Y013095D01*
X011571Y013129D01*
X011545Y013155D01*
X011601Y013211D01*
X011601Y013847D01*
X011513Y013935D01*
X011356Y013935D01*
X011356Y014356D01*
X011454Y014356D01*
X011542Y014443D01*
X011542Y015040D01*
X011454Y015128D01*
X011539Y015042D02*
X011772Y015042D01*
X011769Y015040D02*
X011769Y014443D01*
X011857Y014356D01*
X011956Y014356D01*
X011956Y013935D01*
X011798Y013935D01*
X011710Y013847D01*
X011710Y013211D01*
X011766Y013155D01*
X011740Y013129D01*
X011721Y013095D01*
X011710Y013057D01*
X011710Y012831D01*
X012105Y012831D01*
X012105Y012731D01*
X011710Y012731D01*
X011710Y012505D01*
X011721Y012467D01*
X011740Y012433D01*
X011768Y012405D01*
X011802Y012385D01*
X011841Y012375D01*
X012106Y012375D01*
X012106Y012731D01*
X012205Y012731D01*
X012205Y012375D01*
X012471Y012375D01*
X012509Y012385D01*
X012543Y012405D01*
X012571Y012433D01*
X012591Y012467D01*
X012601Y012505D01*
X012601Y012731D01*
X012206Y012731D01*
X012206Y012831D01*
X012601Y012831D01*
X012601Y013057D01*
X012591Y013095D01*
X012571Y013129D01*
X012545Y013155D01*
X012601Y013211D01*
X012601Y013847D01*
X012513Y013935D01*
X012356Y013935D01*
X012356Y014356D01*
X012454Y014356D01*
X012542Y014443D01*
X012542Y015040D01*
X012454Y015128D01*
X011857Y015128D01*
X011769Y015040D01*
X011769Y014944D02*
X011542Y014944D01*
X011542Y014845D02*
X011769Y014845D01*
X011769Y014747D02*
X011542Y014747D01*
X011542Y014648D02*
X011769Y014648D01*
X011769Y014550D02*
X011542Y014550D01*
X011542Y014451D02*
X011769Y014451D01*
X011956Y014353D02*
X011356Y014353D01*
X011356Y014254D02*
X011956Y014254D01*
X011956Y014156D02*
X011356Y014156D01*
X011356Y014057D02*
X011956Y014057D01*
X011956Y013958D02*
X011356Y013958D01*
X011588Y013860D02*
X011723Y013860D01*
X011710Y013761D02*
X011601Y013761D01*
X011601Y013663D02*
X011710Y013663D01*
X011710Y013564D02*
X011601Y013564D01*
X011601Y013466D02*
X011710Y013466D01*
X011710Y013367D02*
X011601Y013367D01*
X011601Y013269D02*
X011710Y013269D01*
X011751Y013170D02*
X011560Y013170D01*
X011597Y013072D02*
X011714Y013072D01*
X011710Y012973D02*
X011601Y012973D01*
X011601Y012874D02*
X011710Y012874D01*
X011710Y012677D02*
X011601Y012677D01*
X011601Y012579D02*
X011710Y012579D01*
X011717Y012480D02*
X011594Y012480D01*
X011495Y012382D02*
X011816Y012382D01*
X012106Y012382D02*
X012205Y012382D01*
X012205Y012480D02*
X012106Y012480D01*
X012106Y012579D02*
X012205Y012579D01*
X012205Y012677D02*
X012106Y012677D01*
X012105Y012776D02*
X011206Y012776D01*
X011205Y012677D02*
X011106Y012677D01*
X011106Y012579D02*
X011205Y012579D01*
X011205Y012480D02*
X011106Y012480D01*
X011106Y012382D02*
X011205Y012382D01*
X011105Y012776D02*
X010021Y012776D01*
X010021Y012842D02*
X009933Y012930D01*
X009895Y012930D01*
X009934Y012969D01*
X009984Y013090D01*
X009984Y013220D01*
X009934Y013341D01*
X009842Y013434D01*
X009721Y013484D01*
X009590Y013484D01*
X009470Y013434D01*
X009377Y013341D01*
X009327Y013220D01*
X009327Y013090D01*
X009377Y012969D01*
X009416Y012930D01*
X009378Y012930D01*
X009291Y012842D01*
X009291Y011928D01*
X009378Y011840D01*
X009456Y011840D01*
X009456Y011435D01*
X009298Y011435D01*
X009210Y011347D01*
X009210Y010711D01*
X009266Y010655D01*
X009240Y010629D01*
X009221Y010595D01*
X009210Y010557D01*
X009210Y010331D01*
X009605Y010331D01*
X009605Y010231D01*
X009210Y010231D01*
X009210Y010005D01*
X009221Y009967D01*
X009240Y009933D01*
X009268Y009905D01*
X009302Y009885D01*
X009341Y009875D01*
X009606Y009875D01*
X009606Y010231D01*
X009705Y010231D01*
X009705Y009875D01*
X009971Y009875D01*
X010009Y009885D01*
X010043Y009905D01*
X010071Y009933D01*
X010091Y009967D01*
X010101Y010005D01*
X010101Y010231D01*
X009706Y010231D01*
X009706Y010331D01*
X010101Y010331D01*
X010101Y010557D01*
X010091Y010595D01*
X010071Y010629D01*
X010045Y010655D01*
X010101Y010711D01*
X010101Y011347D01*
X010013Y011435D01*
X009856Y011435D01*
X009856Y011840D01*
X009933Y011840D01*
X010021Y011928D01*
X010021Y012842D01*
X009988Y012874D02*
X010710Y012874D01*
X010710Y012973D02*
X009936Y012973D01*
X009976Y013072D02*
X010714Y013072D01*
X010751Y013170D02*
X009984Y013170D01*
X009964Y013269D02*
X010710Y013269D01*
X010710Y013367D02*
X009908Y013367D01*
X009764Y013466D02*
X010710Y013466D01*
X010710Y013564D02*
X004601Y013564D01*
X004601Y013466D02*
X006547Y013466D01*
X006590Y013484D02*
X006470Y013434D01*
X006377Y013341D01*
X006327Y013220D01*
X006327Y013090D01*
X006377Y012969D01*
X006416Y012930D01*
X006378Y012930D01*
X006291Y012842D01*
X006291Y011928D01*
X006378Y011840D01*
X006456Y011840D01*
X006456Y011435D01*
X006298Y011435D01*
X006210Y011347D01*
X006210Y010711D01*
X006266Y010655D01*
X006240Y010629D01*
X006221Y010595D01*
X006210Y010557D01*
X006210Y010331D01*
X006605Y010331D01*
X006605Y010231D01*
X006210Y010231D01*
X006210Y010005D01*
X006221Y009967D01*
X006240Y009933D01*
X006268Y009905D01*
X006302Y009885D01*
X006341Y009875D01*
X006606Y009875D01*
X006606Y010231D01*
X006705Y010231D01*
X006705Y009875D01*
X006971Y009875D01*
X007009Y009885D01*
X007043Y009905D01*
X007071Y009933D01*
X007091Y009967D01*
X007101Y010005D01*
X007101Y010231D01*
X006706Y010231D01*
X006706Y010331D01*
X007101Y010331D01*
X007101Y010557D01*
X007091Y010595D01*
X007071Y010629D01*
X007045Y010655D01*
X007101Y010711D01*
X007101Y011347D01*
X007013Y011435D01*
X006856Y011435D01*
X006856Y011840D01*
X006933Y011840D01*
X007021Y011928D01*
X007021Y012842D01*
X006933Y012930D01*
X006895Y012930D01*
X006934Y012969D01*
X006984Y013090D01*
X006984Y013220D01*
X006934Y013341D01*
X006842Y013434D01*
X006721Y013484D01*
X006590Y013484D01*
X006764Y013466D02*
X007547Y013466D01*
X007590Y013484D02*
X007470Y013434D01*
X007377Y013341D01*
X007327Y013220D01*
X007327Y013090D01*
X007377Y012969D01*
X007416Y012930D01*
X007378Y012930D01*
X007291Y012842D01*
X007291Y011928D01*
X007378Y011840D01*
X007456Y011840D01*
X007456Y011435D01*
X007298Y011435D01*
X007210Y011347D01*
X007210Y010711D01*
X007266Y010655D01*
X007240Y010629D01*
X007221Y010595D01*
X007210Y010557D01*
X007210Y010331D01*
X007605Y010331D01*
X007605Y010231D01*
X007210Y010231D01*
X007210Y010005D01*
X007221Y009967D01*
X007240Y009933D01*
X007268Y009905D01*
X007302Y009885D01*
X007341Y009875D01*
X007606Y009875D01*
X007606Y010231D01*
X007705Y010231D01*
X007705Y009875D01*
X007911Y009875D01*
X007877Y009841D01*
X007838Y009746D01*
X007692Y009600D01*
X007212Y009600D01*
X007156Y009544D01*
X007130Y009570D01*
X007095Y009590D01*
X007057Y009600D01*
X006831Y009600D01*
X006831Y009205D01*
X006732Y009205D01*
X006732Y009600D01*
X006506Y009600D01*
X006468Y009590D01*
X006434Y009570D01*
X006406Y009542D01*
X006386Y009508D01*
X006376Y009470D01*
X006376Y009205D01*
X006731Y009205D01*
X006731Y009105D01*
X006376Y009105D01*
X006376Y008840D01*
X006386Y008802D01*
X006406Y008768D01*
X006434Y008740D01*
X006468Y008720D01*
X006506Y008710D01*
X006732Y008710D01*
X006732Y009105D01*
X006831Y009105D01*
X006831Y008710D01*
X007057Y008710D01*
X007095Y008720D01*
X007130Y008740D01*
X007156Y008766D01*
X007212Y008710D01*
X007456Y008710D01*
X007456Y008146D01*
X007426Y008163D01*
X007388Y008173D01*
X007082Y008173D01*
X007082Y007914D01*
X007064Y007914D01*
X007064Y007896D01*
X006628Y007896D01*
X006628Y007767D01*
X006638Y007729D01*
X006658Y007695D01*
X006686Y007667D01*
X006701Y007658D01*
X006647Y007605D01*
X006488Y007605D01*
X005984Y008110D01*
X005984Y008220D01*
X005934Y008341D01*
X005842Y008434D01*
X005721Y008484D01*
X005590Y008484D01*
X005470Y008434D01*
X005377Y008341D01*
X005327Y008220D01*
X005327Y008090D01*
X005377Y007969D01*
X005470Y007877D01*
X005590Y007827D01*
X005701Y007827D01*
X006323Y007205D01*
X006488Y007205D01*
X006647Y007205D01*
X006697Y007155D01*
X006647Y007105D01*
X006488Y007105D01*
X006323Y007105D01*
X005701Y006484D01*
X005590Y006484D01*
X005470Y006434D01*
X005377Y006341D01*
X005327Y006220D01*
X005327Y006090D01*
X005377Y005969D01*
X005461Y005885D01*
X005251Y005885D01*
X004886Y006250D01*
X004886Y009060D01*
X004886Y009250D01*
X001886Y012250D01*
X001886Y031560D01*
X003251Y032925D01*
X004376Y032925D01*
X004376Y032298D01*
X004464Y032210D01*
X004581Y032210D01*
X004581Y032197D01*
X004678Y032100D01*
X004506Y032100D01*
X004468Y032090D01*
X004434Y032070D01*
X004406Y032042D01*
X004386Y032008D01*
X004376Y031970D01*
X004376Y031705D01*
X004731Y031705D01*
X004731Y031605D01*
X004376Y031605D01*
X004376Y031340D01*
X004386Y031302D01*
X004406Y031268D01*
X004434Y031240D01*
X004468Y031220D01*
X004506Y031210D01*
X004732Y031210D01*
X004732Y031605D01*
X004831Y031605D01*
X004831Y031210D01*
X005057Y031210D01*
X005095Y031220D01*
X005130Y031240D01*
X005156Y031266D01*
X005212Y031210D01*
X005848Y031210D01*
X005935Y031298D01*
X005935Y031455D01*
X006490Y031455D01*
X006540Y031405D01*
X006490Y031355D01*
X006323Y031355D01*
X006206Y031238D01*
X005935Y030968D01*
X005935Y031013D01*
X005848Y031100D01*
X005212Y031100D01*
X005156Y031044D01*
X005130Y031070D01*
X005095Y031090D01*
X005057Y031100D01*
X004831Y031100D01*
X004831Y030705D01*
X004732Y030705D01*
X004732Y031100D01*
X004506Y031100D01*
X004468Y031090D01*
X004434Y031070D01*
X004406Y031042D01*
X004386Y031008D01*
X004376Y030970D01*
X004376Y030705D01*
X004731Y030705D01*
X004731Y030605D01*
X004376Y030605D01*
X004376Y030340D01*
X004386Y030302D01*
X004406Y030268D01*
X004434Y030240D01*
X004468Y030220D01*
X004506Y030210D01*
X004732Y030210D01*
X004732Y030605D01*
X004831Y030605D01*
X004831Y030210D01*
X005057Y030210D01*
X005095Y030220D01*
X005130Y030240D01*
X005156Y030266D01*
X005192Y030230D01*
X005163Y030213D01*
X005135Y030185D01*
X005115Y030151D01*
X005105Y030113D01*
X005105Y029710D01*
X005480Y029710D01*
X005480Y029610D01*
X005105Y029610D01*
X005105Y029207D01*
X005115Y029169D01*
X005135Y029135D01*
X005163Y029107D01*
X005197Y029087D01*
X005235Y029077D01*
X005481Y029077D01*
X005481Y029610D01*
X005580Y029610D01*
X005580Y029077D01*
X005826Y029077D01*
X005864Y029087D01*
X005898Y029107D01*
X005926Y029135D01*
X005946Y029169D01*
X005956Y029207D01*
X005956Y029610D01*
X005581Y029610D01*
X005581Y029710D01*
X005956Y029710D01*
X005956Y030015D01*
X005970Y030002D01*
X006090Y029952D01*
X006221Y029952D01*
X006342Y030002D01*
X006434Y030094D01*
X006484Y030215D01*
X006484Y030345D01*
X006434Y030466D01*
X006342Y030559D01*
X006221Y030609D01*
X006142Y030609D01*
X006488Y030955D01*
X006490Y030955D01*
X006558Y030887D01*
X007456Y030887D01*
X007456Y030738D01*
X007201Y030484D01*
X007090Y030484D01*
X006970Y030434D01*
X006877Y030341D01*
X006827Y030220D01*
X006827Y030090D01*
X006877Y029969D01*
X006970Y029877D01*
X007090Y029827D01*
X007221Y029827D01*
X007342Y029877D01*
X007406Y029941D01*
X007470Y029877D01*
X007590Y029827D01*
X007721Y029827D01*
X007842Y029877D01*
X007906Y029941D01*
X007970Y029877D01*
X008071Y029835D01*
X007990Y029754D01*
X007990Y029320D01*
X007961Y029350D01*
X007886Y029404D01*
X007805Y029445D01*
X007717Y029474D01*
X007627Y029488D01*
X007335Y029488D01*
X007335Y028955D01*
X007236Y028955D01*
X007236Y029488D01*
X006944Y029488D01*
X006854Y029474D01*
X006766Y029445D01*
X006685Y029404D01*
X006610Y029350D01*
X006545Y029285D01*
X006492Y029211D01*
X006450Y029129D01*
X006422Y029042D01*
X006408Y028955D01*
X007235Y028955D01*
X007235Y028855D01*
X006408Y028855D01*
X006422Y028769D01*
X006450Y028681D01*
X006491Y028600D01*
X006471Y028609D01*
X006340Y028609D01*
X006220Y028559D01*
X006127Y028466D01*
X006094Y028385D01*
X005956Y028385D01*
X005956Y028895D01*
X005868Y028983D01*
X005193Y028983D01*
X005105Y028895D01*
X005105Y027925D01*
X003822Y027925D01*
X003710Y028037D01*
X003545Y028105D01*
X002766Y028105D01*
X002601Y028037D01*
X002474Y027910D01*
X002406Y027745D01*
X002406Y027566D01*
X002474Y027400D01*
X002601Y027274D01*
X002766Y027205D01*
X003545Y027205D01*
X003710Y027274D01*
X003822Y027385D01*
X012489Y027385D01*
X012601Y027274D01*
X012766Y027205D01*
X013545Y027205D01*
X013710Y027274D01*
X013837Y027400D01*
X013906Y027566D01*
X013906Y027745D01*
X013837Y027910D01*
X013710Y028037D01*
X013545Y028105D01*
X013426Y028105D01*
X013426Y029409D01*
X013507Y029409D01*
X013595Y029496D01*
X013595Y030121D01*
X013507Y030209D01*
X012804Y030209D01*
X012716Y030121D01*
X012716Y029496D01*
X012804Y029409D01*
X012886Y029409D01*
X012886Y028105D01*
X012766Y028105D01*
X012601Y028037D01*
X012489Y027925D01*
X005956Y027925D01*
X005956Y027925D01*
X006310Y027925D01*
X006501Y027925D01*
X007876Y027925D01*
X007998Y028048D01*
X008078Y027968D01*
X008793Y027968D01*
X008881Y028056D01*
X008881Y028574D01*
X008844Y028611D01*
X008849Y028616D01*
X008869Y028650D01*
X008879Y028689D01*
X008879Y028857D01*
X008384Y028857D01*
X008384Y028954D01*
X008879Y028954D01*
X008879Y029122D01*
X008869Y029160D01*
X008849Y029194D01*
X008844Y029199D01*
X008881Y029236D01*
X008881Y029265D01*
X009400Y029265D01*
X009591Y029265D01*
X009876Y029550D01*
X010011Y029685D01*
X010011Y030560D01*
X010683Y031232D01*
X010730Y031232D01*
X010730Y030888D01*
X010818Y030800D01*
X011493Y030800D01*
X011581Y030888D01*
X011581Y031232D01*
X012716Y031232D01*
X012716Y031189D01*
X012804Y031102D01*
X013507Y031102D01*
X013595Y031189D01*
X013595Y031814D01*
X013507Y031902D01*
X012804Y031902D01*
X012716Y031814D01*
X012716Y031772D01*
X011581Y031772D01*
X011581Y032036D01*
X011493Y032124D01*
X011446Y032124D01*
X011484Y032215D01*
X011484Y032345D01*
X011434Y032466D01*
X011342Y032559D01*
X011221Y032609D01*
X011090Y032609D01*
X010970Y032559D01*
X010877Y032466D01*
X010827Y032345D01*
X010827Y032215D01*
X010865Y032124D01*
X010818Y032124D01*
X010730Y032036D01*
X010730Y031692D01*
X010683Y031692D01*
X010492Y031692D01*
X009841Y031041D01*
X009841Y031146D01*
X009267Y031146D01*
X009267Y030887D01*
X009687Y030887D01*
X009685Y030885D01*
X009551Y030750D01*
X009551Y029875D01*
X009400Y029725D01*
X008881Y029725D01*
X008881Y029754D01*
X008793Y029842D01*
X008758Y029842D01*
X008842Y029877D01*
X008934Y029969D01*
X008984Y030090D01*
X008984Y030220D01*
X008934Y030341D01*
X008842Y030434D01*
X008721Y030484D01*
X008610Y030484D01*
X008606Y030488D01*
X008606Y031322D01*
X008717Y031433D01*
X008748Y031402D01*
X008733Y031393D01*
X008705Y031365D01*
X008685Y031331D01*
X008675Y031293D01*
X008675Y031164D01*
X009249Y031164D01*
X009249Y031146D01*
X009267Y031146D01*
X009267Y031164D01*
X009841Y031164D01*
X009841Y031293D01*
X009831Y031331D01*
X009811Y031365D01*
X009783Y031393D01*
X009768Y031402D01*
X009841Y031475D01*
X009841Y031835D01*
X009771Y031905D01*
X009841Y031975D01*
X009841Y032335D01*
X009771Y032405D01*
X009841Y032475D01*
X009841Y032835D01*
X009771Y032905D01*
X009791Y032925D01*
X013060Y032925D01*
X014426Y031560D01*
X014426Y012250D01*
X011426Y009250D01*
X011426Y009060D01*
X011426Y008000D01*
X009684Y006258D01*
X009684Y006585D01*
X009614Y006655D01*
X009664Y006705D01*
X009823Y006705D01*
X009988Y006705D01*
X010238Y006955D01*
X010356Y007072D01*
X010356Y007322D01*
X010356Y008891D01*
X010434Y008969D01*
X010484Y009090D01*
X010484Y009220D01*
X010434Y009341D01*
X010342Y009434D01*
X010221Y009484D01*
X010090Y009484D01*
X009970Y009434D01*
X009935Y009399D01*
X009935Y009513D01*
X009848Y009600D01*
X009212Y009600D01*
X009156Y009544D01*
X009130Y009570D01*
X009095Y009590D01*
X009057Y009600D01*
X008831Y009600D01*
X008831Y009205D01*
X008732Y009205D01*
X008732Y009600D01*
X008506Y009600D01*
X008484Y009594D01*
X008484Y009720D01*
X008434Y009841D01*
X008400Y009875D01*
X008606Y009875D01*
X008606Y010231D01*
X008705Y010231D01*
X008705Y009875D01*
X008971Y009875D01*
X009009Y009885D01*
X009043Y009905D01*
X009071Y009933D01*
X009091Y009967D01*
X009101Y010005D01*
X009101Y010231D01*
X008706Y010231D01*
X008706Y010331D01*
X009101Y010331D01*
X009101Y010557D01*
X009091Y010595D01*
X009071Y010629D01*
X009045Y010655D01*
X009101Y010711D01*
X009101Y011347D01*
X009013Y011435D01*
X008856Y011435D01*
X008856Y011840D01*
X008933Y011840D01*
X009021Y011928D01*
X009021Y012842D01*
X008933Y012930D01*
X008895Y012930D01*
X008934Y012969D01*
X008984Y013090D01*
X008984Y013220D01*
X008934Y013341D01*
X008842Y013434D01*
X008721Y013484D01*
X008590Y013484D01*
X008470Y013434D01*
X008377Y013341D01*
X008327Y013220D01*
X008327Y013090D01*
X008377Y012969D01*
X008416Y012930D01*
X008378Y012930D01*
X008291Y012842D01*
X008291Y011928D01*
X008378Y011840D01*
X008456Y011840D01*
X008456Y011435D01*
X008298Y011435D01*
X008210Y011347D01*
X008210Y010711D01*
X008266Y010655D01*
X008240Y010629D01*
X008221Y010595D01*
X008210Y010557D01*
X008210Y010331D01*
X008605Y010331D01*
X008605Y010231D01*
X008210Y010231D01*
X008210Y010005D01*
X008216Y009984D01*
X008095Y009984D01*
X008101Y010005D01*
X008101Y010231D01*
X007706Y010231D01*
X007706Y010331D01*
X008101Y010331D01*
X008101Y010557D01*
X008091Y010595D01*
X008071Y010629D01*
X008045Y010655D01*
X008101Y010711D01*
X008101Y011347D01*
X008013Y011435D01*
X007856Y011435D01*
X007856Y011840D01*
X007933Y011840D01*
X008021Y011928D01*
X008021Y012842D01*
X007933Y012930D01*
X007895Y012930D01*
X007934Y012969D01*
X007984Y013090D01*
X007984Y013220D01*
X007934Y013341D01*
X007842Y013434D01*
X007721Y013484D01*
X007590Y013484D01*
X007764Y013466D02*
X008547Y013466D01*
X008403Y013367D02*
X007908Y013367D01*
X007964Y013269D02*
X008347Y013269D01*
X008327Y013170D02*
X007984Y013170D01*
X007976Y013072D02*
X008335Y013072D01*
X008376Y012973D02*
X007936Y012973D01*
X007988Y012874D02*
X008323Y012874D01*
X008291Y012776D02*
X008021Y012776D01*
X008021Y012677D02*
X008291Y012677D01*
X008291Y012579D02*
X008021Y012579D01*
X008021Y012480D02*
X008291Y012480D01*
X008291Y012382D02*
X008021Y012382D01*
X008021Y012283D02*
X008291Y012283D01*
X008291Y012185D02*
X008021Y012185D01*
X008021Y012086D02*
X008291Y012086D01*
X008291Y011988D02*
X008021Y011988D01*
X007982Y011889D02*
X008329Y011889D01*
X008456Y011791D02*
X007856Y011791D01*
X007856Y011692D02*
X008456Y011692D01*
X008456Y011593D02*
X007856Y011593D01*
X007856Y011495D02*
X008456Y011495D01*
X008259Y011396D02*
X008052Y011396D01*
X008101Y011298D02*
X008210Y011298D01*
X008210Y011199D02*
X008101Y011199D01*
X008101Y011101D02*
X008210Y011101D01*
X008210Y011002D02*
X008101Y011002D01*
X008101Y010904D02*
X008210Y010904D01*
X008210Y010805D02*
X008101Y010805D01*
X008096Y010707D02*
X008215Y010707D01*
X008228Y010608D02*
X008083Y010608D01*
X008101Y010509D02*
X008210Y010509D01*
X008210Y010411D02*
X008101Y010411D01*
X008101Y010214D02*
X008210Y010214D01*
X008210Y010115D02*
X008101Y010115D01*
X008101Y010017D02*
X008210Y010017D01*
X008156Y009655D02*
X008030Y009655D01*
X007530Y009155D01*
X007656Y009029D01*
X007656Y006655D01*
X007406Y006405D01*
X007073Y006405D01*
X006886Y006000D02*
X007117Y005769D01*
X007237Y005769D01*
X007386Y005707D01*
X007501Y005592D01*
X007563Y005442D01*
X007563Y004765D01*
X007501Y004616D01*
X007386Y004501D01*
X007237Y004439D01*
X007074Y004439D01*
X006925Y004501D01*
X006810Y004616D01*
X006748Y004765D01*
X006748Y005442D01*
X006761Y005474D01*
X006560Y005675D01*
X006418Y005675D01*
X006501Y005592D01*
X006563Y005442D01*
X006563Y004765D01*
X006501Y004616D01*
X006386Y004501D01*
X006237Y004439D01*
X006074Y004439D01*
X005925Y004501D01*
X005810Y004616D01*
X005775Y004700D01*
X005636Y004560D01*
X005501Y004425D01*
X005435Y004425D01*
X005435Y004298D01*
X005348Y004210D01*
X004712Y004210D01*
X004656Y004266D01*
X004600Y004210D01*
X003964Y004210D01*
X003876Y004298D01*
X003876Y005013D01*
X003964Y005100D01*
X004052Y005100D01*
X004052Y005934D01*
X003926Y006060D01*
X003926Y006250D01*
X003926Y009060D01*
X000926Y012060D01*
X000926Y012250D01*
X000926Y031750D01*
X001060Y031885D01*
X003060Y033885D01*
X003251Y033885D01*
X006520Y033885D01*
X006540Y033905D01*
X006520Y033925D01*
X006501Y033925D01*
X006310Y033925D01*
X006060Y034175D01*
X005926Y034310D01*
X005926Y035603D01*
X005925Y035603D01*
X005810Y035718D01*
X005748Y035868D01*
X005748Y036545D01*
X005810Y036695D01*
X005925Y036809D01*
X006074Y036871D01*
X006237Y036871D01*
X006386Y036809D01*
X006501Y036695D01*
X006563Y036545D01*
X006563Y035868D01*
X006501Y035718D01*
X006386Y035603D01*
X006386Y035603D01*
X006386Y034500D01*
X006501Y034385D01*
X006520Y034385D01*
X006540Y034405D01*
X006470Y034475D01*
X006470Y034835D01*
X006558Y034923D01*
X006926Y034923D01*
X006926Y035603D01*
X006925Y035603D01*
X006810Y035718D01*
X006748Y035868D01*
X006748Y036545D01*
X006810Y036695D01*
X006925Y036809D01*
X007074Y036871D01*
X007237Y036871D01*
X007386Y036809D01*
X007501Y036695D01*
X007563Y036545D01*
X007563Y035868D01*
X007501Y035718D01*
X007386Y035603D01*
X007386Y035603D01*
X007386Y034923D01*
X007548Y034923D01*
X007636Y034835D01*
X007636Y034475D01*
X007566Y034405D01*
X007636Y034335D01*
X007636Y033975D01*
X007566Y033905D01*
X007636Y033835D01*
X007636Y033475D01*
X007566Y033405D01*
X007636Y033335D01*
X007636Y032975D01*
X007566Y032905D01*
X007636Y032835D01*
X007636Y032832D01*
X007738Y032730D01*
X007856Y032613D01*
X007856Y032138D01*
X008573Y032855D01*
X008695Y032855D01*
X008745Y032905D01*
X008675Y032975D01*
X008675Y033335D01*
X008745Y033405D01*
X008675Y033475D01*
X008675Y033835D01*
X008745Y033905D01*
X008675Y033975D01*
X008675Y034335D01*
X008745Y034405D01*
X008675Y034475D01*
X008675Y034835D01*
X008763Y034923D01*
X008926Y034923D01*
X008926Y035603D01*
X008925Y035603D01*
X008810Y035718D01*
X008748Y035868D01*
X008748Y036545D01*
X008810Y036695D01*
X008925Y036809D01*
X009074Y036871D01*
X009237Y036871D01*
X009386Y036809D01*
X009501Y036695D01*
X009563Y036545D01*
X009563Y035868D01*
X009501Y035718D01*
X009386Y035603D01*
X009386Y035603D01*
X009386Y034923D01*
X009753Y034923D01*
X009841Y034835D01*
X009841Y034475D01*
X009771Y034405D01*
X009791Y034385D01*
X009810Y034385D01*
X009926Y034500D01*
X009926Y035603D01*
X009925Y035603D01*
X009810Y035718D01*
X009748Y035868D01*
X009748Y036545D01*
X009810Y036695D01*
X009925Y036809D01*
X010074Y036871D01*
X010237Y036871D01*
X010386Y036809D01*
X010501Y036695D01*
X010563Y036545D01*
X010563Y035868D01*
X010501Y035718D01*
X010386Y035603D01*
X010386Y035603D01*
X010386Y034310D01*
X010251Y034175D01*
X010001Y033925D01*
X009810Y033925D01*
X009791Y033925D01*
X009771Y033905D01*
X009791Y033885D01*
X013060Y033885D01*
X013251Y033885D01*
X015251Y031885D01*
X015386Y031750D01*
X015386Y012250D01*
X015386Y012060D01*
X012386Y009060D01*
X012386Y007500D01*
X012386Y007310D01*
X010550Y005474D01*
X010563Y005442D01*
X010563Y004765D01*
X010501Y004616D01*
X010386Y004501D01*
X010237Y004439D01*
X010074Y004439D01*
X009925Y004501D01*
X009810Y004616D01*
X009748Y004765D01*
X009748Y005442D01*
X009810Y005592D01*
X009925Y005707D01*
X010074Y005769D01*
X010194Y005769D01*
X011926Y007500D01*
X011926Y009100D01*
X011886Y009060D01*
X011886Y007810D01*
X011751Y007675D01*
X009550Y005474D01*
X009563Y005442D01*
X009563Y004765D01*
X009501Y004616D01*
X009386Y004501D01*
X009237Y004439D01*
X009074Y004439D01*
X008925Y004501D01*
X008810Y004616D01*
X008748Y004765D01*
X008748Y005442D01*
X008810Y005592D01*
X008925Y005707D01*
X009074Y005769D01*
X009194Y005769D01*
X009562Y006137D01*
X008881Y006137D01*
X008813Y006205D01*
X008488Y006205D01*
X008323Y006205D01*
X007956Y006572D01*
X007956Y006738D01*
X007956Y008141D01*
X007877Y008219D01*
X007856Y008271D01*
X007856Y006572D01*
X007738Y006455D01*
X007518Y006235D01*
X007518Y006225D01*
X007430Y006137D01*
X006715Y006137D01*
X006628Y006225D01*
X006628Y006585D01*
X006697Y006655D01*
X006647Y006705D01*
X006488Y006705D01*
X005984Y006201D01*
X005984Y006135D01*
X006126Y006135D01*
X006751Y006135D01*
X006886Y006000D01*
X006886Y006000D01*
X006909Y005976D02*
X009402Y005976D01*
X009303Y005878D02*
X007008Y005878D01*
X007106Y005779D02*
X009205Y005779D01*
X009238Y006405D02*
X008406Y006405D01*
X008156Y006655D01*
X008156Y008405D01*
X007952Y008144D02*
X007856Y008144D01*
X007856Y008046D02*
X007956Y008046D01*
X007956Y007947D02*
X007856Y007947D01*
X007856Y007849D02*
X007956Y007849D01*
X007956Y007750D02*
X007856Y007750D01*
X007856Y007652D02*
X007956Y007652D01*
X007956Y007553D02*
X007856Y007553D01*
X007856Y007455D02*
X007956Y007455D01*
X007956Y007356D02*
X007856Y007356D01*
X007856Y007258D02*
X007956Y007258D01*
X007956Y007159D02*
X007856Y007159D01*
X007856Y007060D02*
X007956Y007060D01*
X007956Y006962D02*
X007856Y006962D01*
X007856Y006863D02*
X007956Y006863D01*
X007956Y006765D02*
X007856Y006765D01*
X007856Y006666D02*
X007956Y006666D01*
X007960Y006568D02*
X007851Y006568D01*
X007752Y006469D02*
X008059Y006469D01*
X008157Y006371D02*
X007654Y006371D01*
X007555Y006272D02*
X008256Y006272D01*
X008237Y005769D02*
X008074Y005769D01*
X007925Y005707D01*
X007810Y005592D01*
X007748Y005442D01*
X007748Y004765D01*
X007810Y004616D01*
X007925Y004501D01*
X008074Y004439D01*
X008237Y004439D01*
X008386Y004501D01*
X008501Y004616D01*
X008563Y004765D01*
X008563Y005442D01*
X008501Y005592D01*
X008386Y005707D01*
X008237Y005769D01*
X008412Y005681D02*
X008899Y005681D01*
X008806Y005582D02*
X008505Y005582D01*
X008546Y005484D02*
X008765Y005484D01*
X008748Y005385D02*
X008563Y005385D01*
X008563Y005287D02*
X008748Y005287D01*
X008748Y005188D02*
X008563Y005188D01*
X008563Y005090D02*
X008748Y005090D01*
X008748Y004991D02*
X008563Y004991D01*
X008563Y004892D02*
X008748Y004892D01*
X008748Y004794D02*
X008563Y004794D01*
X008534Y004695D02*
X008777Y004695D01*
X008829Y004597D02*
X008482Y004597D01*
X008380Y004498D02*
X008931Y004498D01*
X009380Y004498D02*
X009931Y004498D01*
X009829Y004597D02*
X009482Y004597D01*
X009534Y004695D02*
X009777Y004695D01*
X009748Y004794D02*
X009563Y004794D01*
X009563Y004892D02*
X009748Y004892D01*
X009748Y004991D02*
X009563Y004991D01*
X009563Y005090D02*
X009748Y005090D01*
X009748Y005188D02*
X009563Y005188D01*
X009563Y005287D02*
X009748Y005287D01*
X009748Y005385D02*
X009563Y005385D01*
X009559Y005484D02*
X009765Y005484D01*
X009806Y005582D02*
X009658Y005582D01*
X009756Y005681D02*
X009899Y005681D01*
X009855Y005779D02*
X010205Y005779D01*
X010303Y005878D02*
X009954Y005878D01*
X010052Y005976D02*
X010402Y005976D01*
X010500Y006075D02*
X010151Y006075D01*
X010249Y006174D02*
X010599Y006174D01*
X010697Y006272D02*
X010348Y006272D01*
X010446Y006371D02*
X010796Y006371D01*
X010894Y006469D02*
X010545Y006469D01*
X010643Y006568D02*
X010993Y006568D01*
X011091Y006666D02*
X010742Y006666D01*
X010840Y006765D02*
X011190Y006765D01*
X011289Y006863D02*
X010939Y006863D01*
X011038Y006962D02*
X011387Y006962D01*
X011486Y007060D02*
X011136Y007060D01*
X011235Y007159D02*
X011584Y007159D01*
X011683Y007258D02*
X011333Y007258D01*
X011432Y007356D02*
X011781Y007356D01*
X011880Y007455D02*
X011530Y007455D01*
X011629Y007553D02*
X011926Y007553D01*
X011926Y007652D02*
X011727Y007652D01*
X011826Y007750D02*
X011926Y007750D01*
X011926Y007849D02*
X011886Y007849D01*
X011886Y007947D02*
X011926Y007947D01*
X011926Y008046D02*
X011886Y008046D01*
X011886Y008144D02*
X011926Y008144D01*
X011926Y008243D02*
X011886Y008243D01*
X011886Y008341D02*
X011926Y008341D01*
X011926Y008440D02*
X011886Y008440D01*
X011886Y008539D02*
X011926Y008539D01*
X011926Y008637D02*
X011886Y008637D01*
X011886Y008736D02*
X011926Y008736D01*
X011926Y008834D02*
X011886Y008834D01*
X011886Y008933D02*
X011926Y008933D01*
X011926Y009031D02*
X011886Y009031D01*
X011601Y009425D02*
X010350Y009425D01*
X010440Y009327D02*
X011502Y009327D01*
X011426Y009228D02*
X010481Y009228D01*
X010484Y009130D02*
X011426Y009130D01*
X011426Y009031D02*
X010460Y009031D01*
X010398Y008933D02*
X011426Y008933D01*
X011426Y008834D02*
X010356Y008834D01*
X010356Y008736D02*
X011426Y008736D01*
X011426Y008637D02*
X010356Y008637D01*
X010356Y008539D02*
X011426Y008539D01*
X011426Y008440D02*
X010356Y008440D01*
X010356Y008341D02*
X011426Y008341D01*
X011426Y008243D02*
X010356Y008243D01*
X010356Y008144D02*
X011426Y008144D01*
X011426Y008046D02*
X010356Y008046D01*
X010356Y007947D02*
X011373Y007947D01*
X011274Y007849D02*
X010356Y007849D01*
X010356Y007750D02*
X011176Y007750D01*
X011077Y007652D02*
X010356Y007652D01*
X010356Y007553D02*
X010978Y007553D01*
X010880Y007455D02*
X010356Y007455D01*
X010356Y007356D02*
X010781Y007356D01*
X010683Y007258D02*
X010356Y007258D01*
X010356Y007159D02*
X010584Y007159D01*
X010486Y007060D02*
X010344Y007060D01*
X010387Y006962D02*
X010245Y006962D01*
X010289Y006863D02*
X010147Y006863D01*
X010190Y006765D02*
X010048Y006765D01*
X010092Y006666D02*
X009625Y006666D01*
X009684Y006568D02*
X009993Y006568D01*
X009894Y006469D02*
X009684Y006469D01*
X009684Y006371D02*
X009796Y006371D01*
X009697Y006272D02*
X009684Y006272D01*
X009500Y006075D02*
X006811Y006075D01*
X006679Y006174D02*
X005984Y006174D01*
X006055Y006272D02*
X006628Y006272D01*
X006628Y006371D02*
X006154Y006371D01*
X006252Y006469D02*
X006628Y006469D01*
X006628Y006568D02*
X006351Y006568D01*
X006450Y006666D02*
X006686Y006666D01*
X006406Y006905D02*
X005656Y006155D01*
X005407Y006371D02*
X004886Y006371D01*
X004886Y006469D02*
X005556Y006469D01*
X005785Y006568D02*
X004886Y006568D01*
X004886Y006666D02*
X005884Y006666D01*
X005982Y006765D02*
X004886Y006765D01*
X004886Y006863D02*
X006081Y006863D01*
X006180Y006962D02*
X004886Y006962D01*
X004886Y007060D02*
X006278Y007060D01*
X006270Y007258D02*
X004886Y007258D01*
X004886Y007356D02*
X006172Y007356D01*
X006073Y007455D02*
X004886Y007455D01*
X004886Y007553D02*
X005975Y007553D01*
X005876Y007652D02*
X004886Y007652D01*
X004886Y007750D02*
X005778Y007750D01*
X006048Y008046D02*
X006628Y008046D01*
X006628Y008043D02*
X006628Y007914D01*
X007064Y007914D01*
X007064Y008173D01*
X006758Y008173D01*
X006720Y008163D01*
X006686Y008143D01*
X006658Y008115D01*
X006638Y008081D01*
X006628Y008043D01*
X006628Y007947D02*
X006146Y007947D01*
X006245Y007849D02*
X006628Y007849D01*
X006632Y007750D02*
X006343Y007750D01*
X006442Y007652D02*
X006694Y007652D01*
X006406Y007405D02*
X005656Y008155D01*
X005537Y007849D02*
X004886Y007849D01*
X004886Y007947D02*
X005399Y007947D01*
X005345Y008046D02*
X004886Y008046D01*
X004886Y008144D02*
X005327Y008144D01*
X005336Y008243D02*
X004886Y008243D01*
X004886Y008341D02*
X005378Y008341D01*
X005485Y008440D02*
X004886Y008440D01*
X004886Y008539D02*
X007456Y008539D01*
X007456Y008637D02*
X004886Y008637D01*
X004886Y008736D02*
X006441Y008736D01*
X006377Y008834D02*
X004886Y008834D01*
X004886Y008933D02*
X006376Y008933D01*
X006376Y009031D02*
X004886Y009031D01*
X004886Y009130D02*
X006731Y009130D01*
X006732Y009228D02*
X006831Y009228D01*
X006831Y009327D02*
X006732Y009327D01*
X006732Y009425D02*
X006831Y009425D01*
X006831Y009524D02*
X006732Y009524D01*
X006705Y009918D02*
X006606Y009918D01*
X006606Y010017D02*
X006705Y010017D01*
X006705Y010115D02*
X006606Y010115D01*
X006606Y010214D02*
X006705Y010214D01*
X006706Y010312D02*
X007605Y010312D01*
X007606Y010214D02*
X007705Y010214D01*
X007706Y010312D02*
X008605Y010312D01*
X008606Y010214D02*
X008705Y010214D01*
X008706Y010312D02*
X009605Y010312D01*
X009606Y010214D02*
X009705Y010214D01*
X009706Y010312D02*
X012488Y010312D01*
X012586Y010411D02*
X010101Y010411D01*
X010101Y010509D02*
X012685Y010509D01*
X012783Y010608D02*
X010083Y010608D01*
X010096Y010707D02*
X012882Y010707D01*
X012980Y010805D02*
X010101Y010805D01*
X010101Y010904D02*
X013079Y010904D01*
X013177Y011002D02*
X010101Y011002D01*
X010101Y011101D02*
X013276Y011101D01*
X013374Y011199D02*
X010101Y011199D01*
X010101Y011298D02*
X013473Y011298D01*
X013572Y011396D02*
X010052Y011396D01*
X009856Y011495D02*
X013670Y011495D01*
X013769Y011593D02*
X009856Y011593D01*
X009856Y011692D02*
X013867Y011692D01*
X013966Y011791D02*
X009856Y011791D01*
X009982Y011889D02*
X014064Y011889D01*
X014163Y011988D02*
X010021Y011988D01*
X010021Y012086D02*
X014261Y012086D01*
X014360Y012185D02*
X010021Y012185D01*
X010021Y012283D02*
X014426Y012283D01*
X014426Y012382D02*
X013495Y012382D01*
X013509Y012385D02*
X013543Y012405D01*
X013571Y012433D01*
X013591Y012467D01*
X013601Y012505D01*
X013601Y012731D01*
X013206Y012731D01*
X013206Y012831D01*
X013601Y012831D01*
X013601Y013057D01*
X013591Y013095D01*
X013571Y013129D01*
X013545Y013155D01*
X013601Y013211D01*
X013601Y013847D01*
X013513Y013935D01*
X013356Y013935D01*
X013356Y014356D01*
X013454Y014356D01*
X013542Y014443D01*
X013542Y015040D01*
X013454Y015128D01*
X012857Y015128D01*
X012769Y015040D01*
X012769Y014443D01*
X012857Y014356D01*
X012956Y014356D01*
X012956Y013935D01*
X012798Y013935D01*
X012710Y013847D01*
X012710Y013211D01*
X012766Y013155D01*
X012740Y013129D01*
X012721Y013095D01*
X012710Y013057D01*
X012710Y012831D01*
X013105Y012831D01*
X013105Y012731D01*
X012710Y012731D01*
X012710Y012505D01*
X012721Y012467D01*
X012740Y012433D01*
X012768Y012405D01*
X012802Y012385D01*
X012841Y012375D01*
X013106Y012375D01*
X013106Y012731D01*
X013205Y012731D01*
X013205Y012375D01*
X013471Y012375D01*
X013509Y012385D01*
X013594Y012480D02*
X014426Y012480D01*
X014426Y012579D02*
X013601Y012579D01*
X013601Y012677D02*
X014426Y012677D01*
X014426Y012776D02*
X013206Y012776D01*
X013205Y012677D02*
X013106Y012677D01*
X013106Y012579D02*
X013205Y012579D01*
X013205Y012480D02*
X013106Y012480D01*
X013106Y012382D02*
X013205Y012382D01*
X013105Y012776D02*
X012206Y012776D01*
X012601Y012874D02*
X012710Y012874D01*
X012710Y012973D02*
X012601Y012973D01*
X012597Y013072D02*
X012714Y013072D01*
X012751Y013170D02*
X012560Y013170D01*
X012601Y013269D02*
X012710Y013269D01*
X012710Y013367D02*
X012601Y013367D01*
X012601Y013466D02*
X012710Y013466D01*
X012710Y013564D02*
X012601Y013564D01*
X012601Y013663D02*
X012710Y013663D01*
X012710Y013761D02*
X012601Y013761D01*
X012588Y013860D02*
X012723Y013860D01*
X012956Y013958D02*
X012356Y013958D01*
X012356Y014057D02*
X012956Y014057D01*
X012956Y014156D02*
X012356Y014156D01*
X012356Y014254D02*
X012956Y014254D01*
X012956Y014353D02*
X012356Y014353D01*
X012542Y014451D02*
X012769Y014451D01*
X012769Y014550D02*
X012542Y014550D01*
X012542Y014648D02*
X012769Y014648D01*
X012769Y014747D02*
X012542Y014747D01*
X012542Y014845D02*
X012769Y014845D01*
X012769Y014944D02*
X012542Y014944D01*
X012539Y015042D02*
X012772Y015042D01*
X012800Y015240D02*
X012511Y015240D01*
X012542Y015338D02*
X012769Y015338D01*
X012769Y015437D02*
X012542Y015437D01*
X012542Y015535D02*
X012769Y015535D01*
X012769Y015634D02*
X012542Y015634D01*
X012542Y015732D02*
X012769Y015732D01*
X012769Y015831D02*
X012542Y015831D01*
X012479Y015929D02*
X012832Y015929D01*
X012956Y016028D02*
X012356Y016028D01*
X012356Y016126D02*
X012956Y016126D01*
X012956Y016225D02*
X012356Y016225D01*
X012356Y016324D02*
X012956Y016324D01*
X012956Y016422D02*
X012356Y016422D01*
X012356Y016521D02*
X012956Y016521D01*
X012956Y016619D02*
X012356Y016619D01*
X012356Y016718D02*
X012956Y016718D01*
X012956Y016816D02*
X012356Y016816D01*
X012356Y016915D02*
X012956Y016915D01*
X012956Y017013D02*
X012356Y017013D01*
X012395Y017112D02*
X012956Y017112D01*
X012956Y017210D02*
X012494Y017210D01*
X012592Y017309D02*
X013027Y017309D01*
X013125Y017407D02*
X012691Y017407D01*
X012789Y017506D02*
X013224Y017506D01*
X013322Y017605D02*
X012888Y017605D01*
X012986Y017703D02*
X013421Y017703D01*
X013519Y017802D02*
X013085Y017802D01*
X013183Y017900D02*
X013581Y017900D01*
X013581Y017999D02*
X013282Y017999D01*
X013381Y018097D02*
X013581Y018097D01*
X013581Y018196D02*
X013479Y018196D01*
X013578Y018294D02*
X013581Y018294D01*
X013531Y018530D02*
X012156Y017155D01*
X012156Y015569D01*
X012156Y014742D02*
X012156Y013529D01*
X012601Y012677D02*
X012710Y012677D01*
X012710Y012579D02*
X012601Y012579D01*
X012594Y012480D02*
X012717Y012480D01*
X012816Y012382D02*
X012495Y012382D01*
X013156Y013529D02*
X013156Y014742D01*
X013356Y014353D02*
X014426Y014353D01*
X014426Y014451D02*
X013542Y014451D01*
X013542Y014550D02*
X014426Y014550D01*
X014426Y014648D02*
X013542Y014648D01*
X013542Y014747D02*
X014426Y014747D01*
X014426Y014845D02*
X013542Y014845D01*
X013542Y014944D02*
X014426Y014944D01*
X014426Y015042D02*
X013539Y015042D01*
X013511Y015240D02*
X014426Y015240D01*
X014426Y015338D02*
X013542Y015338D01*
X013542Y015437D02*
X014426Y015437D01*
X014426Y015535D02*
X013542Y015535D01*
X013542Y015634D02*
X014426Y015634D01*
X014426Y015732D02*
X013542Y015732D01*
X013542Y015831D02*
X014426Y015831D01*
X014426Y015929D02*
X013479Y015929D01*
X013356Y016028D02*
X014426Y016028D01*
X014426Y016126D02*
X013356Y016126D01*
X013356Y016225D02*
X014426Y016225D01*
X014426Y016324D02*
X013356Y016324D01*
X013356Y016422D02*
X014426Y016422D01*
X014426Y016521D02*
X013356Y016521D01*
X013356Y016619D02*
X014426Y016619D01*
X014426Y016718D02*
X013356Y016718D01*
X013356Y016816D02*
X014426Y016816D01*
X014426Y016915D02*
X013356Y016915D01*
X013356Y017013D02*
X014426Y017013D01*
X014426Y017112D02*
X013395Y017112D01*
X013494Y017210D02*
X014426Y017210D01*
X014426Y017309D02*
X013592Y017309D01*
X013691Y017407D02*
X014426Y017407D01*
X014426Y017506D02*
X013789Y017506D01*
X013888Y017605D02*
X014426Y017605D01*
X014426Y017703D02*
X013981Y017703D01*
X013981Y017802D02*
X014426Y017802D01*
X014426Y017900D02*
X013981Y017900D01*
X013981Y017999D02*
X014426Y017999D01*
X014426Y018097D02*
X013981Y018097D01*
X013981Y018196D02*
X014426Y018196D01*
X014426Y018294D02*
X013981Y018294D01*
X013981Y018393D02*
X014426Y018393D01*
X014426Y018491D02*
X013981Y018491D01*
X013981Y018590D02*
X014426Y018590D01*
X014426Y018689D02*
X013981Y018689D01*
X013981Y018787D02*
X014426Y018787D01*
X014426Y018886D02*
X013981Y018886D01*
X013981Y018984D02*
X014426Y018984D01*
X014426Y019083D02*
X013981Y019083D01*
X013981Y019181D02*
X014426Y019181D01*
X014426Y019280D02*
X013981Y019280D01*
X013981Y019378D02*
X014426Y019378D01*
X014426Y019477D02*
X013981Y019477D01*
X013981Y019575D02*
X014426Y019575D01*
X014426Y019674D02*
X013981Y019674D01*
X013981Y019773D02*
X014426Y019773D01*
X014426Y019871D02*
X013981Y019871D01*
X013981Y019970D02*
X014426Y019970D01*
X014426Y020068D02*
X013981Y020068D01*
X013981Y020167D02*
X014426Y020167D01*
X014426Y020265D02*
X013981Y020265D01*
X013981Y020364D02*
X014426Y020364D01*
X014426Y020462D02*
X013981Y020462D01*
X013981Y020561D02*
X014426Y020561D01*
X014426Y020659D02*
X013981Y020659D01*
X013981Y020758D02*
X014426Y020758D01*
X014426Y020856D02*
X013981Y020856D01*
X013981Y020955D02*
X014426Y020955D01*
X014426Y021054D02*
X013981Y021054D01*
X013981Y021152D02*
X014426Y021152D01*
X014426Y021251D02*
X013981Y021251D01*
X013981Y021349D02*
X014426Y021349D01*
X014426Y021448D02*
X013981Y021448D01*
X013981Y021546D02*
X014426Y021546D01*
X014426Y021645D02*
X013981Y021645D01*
X013981Y021743D02*
X014426Y021743D01*
X014426Y021842D02*
X013981Y021842D01*
X013981Y021940D02*
X014426Y021940D01*
X014426Y022039D02*
X013981Y022039D01*
X013981Y022138D02*
X014426Y022138D01*
X014426Y022236D02*
X013981Y022236D01*
X013981Y022335D02*
X014426Y022335D01*
X014426Y022433D02*
X013981Y022433D01*
X013981Y022532D02*
X014426Y022532D01*
X014426Y022630D02*
X013981Y022630D01*
X013981Y022729D02*
X014426Y022729D01*
X014426Y022827D02*
X013981Y022827D01*
X013981Y022926D02*
X014426Y022926D01*
X014426Y023024D02*
X013981Y023024D01*
X013981Y023123D02*
X014426Y023123D01*
X014426Y023222D02*
X013981Y023222D01*
X013981Y023320D02*
X014426Y023320D01*
X014426Y023419D02*
X013981Y023419D01*
X013981Y023517D02*
X014426Y023517D01*
X014426Y023616D02*
X013981Y023616D01*
X013981Y023714D02*
X014426Y023714D01*
X014426Y023813D02*
X013981Y023813D01*
X013981Y023911D02*
X014426Y023911D01*
X014426Y024010D02*
X013981Y024010D01*
X013981Y024108D02*
X014426Y024108D01*
X014426Y024207D02*
X013981Y024207D01*
X013981Y024306D02*
X014426Y024306D01*
X014426Y024404D02*
X013981Y024404D01*
X013981Y024503D02*
X014426Y024503D01*
X014426Y024601D02*
X013981Y024601D01*
X013981Y024700D02*
X014426Y024700D01*
X014426Y024798D02*
X013981Y024798D01*
X013981Y024897D02*
X014426Y024897D01*
X014426Y024995D02*
X013981Y024995D01*
X013981Y025094D02*
X014426Y025094D01*
X014426Y025192D02*
X013981Y025192D01*
X013928Y025291D02*
X014426Y025291D01*
X014426Y025389D02*
X013829Y025389D01*
X013730Y025488D02*
X014426Y025488D01*
X014426Y025587D02*
X013632Y025587D01*
X013533Y025685D02*
X014426Y025685D01*
X014426Y025784D02*
X013435Y025784D01*
X013336Y025882D02*
X014426Y025882D01*
X014426Y025981D02*
X011238Y025981D01*
X011139Y026079D02*
X014426Y026079D01*
X014426Y026178D02*
X011041Y026178D01*
X010942Y026276D02*
X012611Y026276D01*
X012620Y026270D02*
X012683Y026238D01*
X012750Y026216D01*
X012820Y026205D01*
X013106Y026205D01*
X013106Y026605D01*
X013206Y026605D01*
X013206Y026705D01*
X013903Y026705D01*
X013894Y026760D01*
X013873Y026828D01*
X013840Y026891D01*
X013799Y026948D01*
X013749Y026998D01*
X013691Y027040D01*
X013628Y027072D01*
X013561Y027094D01*
X013491Y027105D01*
X013206Y027105D01*
X013206Y026705D01*
X013106Y026705D01*
X013106Y027105D01*
X012820Y027105D01*
X012750Y027094D01*
X012683Y027072D01*
X012620Y027040D01*
X012562Y026998D01*
X012512Y026948D01*
X012471Y026891D01*
X012439Y026828D01*
X012417Y026760D01*
X012408Y026705D01*
X013105Y026705D01*
X013105Y026605D01*
X012408Y026605D01*
X012417Y026550D01*
X012439Y026482D01*
X012471Y026419D01*
X012512Y026362D01*
X012562Y026312D01*
X012620Y026270D01*
X012503Y026375D02*
X010844Y026375D01*
X010745Y026473D02*
X012443Y026473D01*
X012413Y026572D02*
X007184Y026572D01*
X007031Y026280D02*
X008656Y026280D01*
X008906Y026030D01*
X008906Y025466D01*
X008406Y025466D02*
X008406Y024780D01*
X008531Y024655D01*
X008781Y024655D01*
X009031Y024405D01*
X009531Y024405D01*
X010031Y023905D01*
X010781Y023905D01*
X011031Y024155D01*
X011031Y025030D01*
X011281Y025280D01*
X012906Y025280D01*
X013281Y024905D01*
X013281Y019280D01*
X013081Y019378D02*
X011256Y019378D01*
X011256Y019280D02*
X012997Y019280D01*
X012899Y019181D02*
X011224Y019181D01*
X011256Y019477D02*
X013081Y019477D01*
X013081Y019575D02*
X011256Y019575D01*
X011256Y019674D02*
X013081Y019674D01*
X013081Y019773D02*
X011256Y019773D01*
X011256Y019871D02*
X013081Y019871D01*
X013081Y019970D02*
X011256Y019970D01*
X011256Y020068D02*
X013081Y020068D01*
X013081Y020167D02*
X011186Y020167D01*
X010661Y021349D02*
X013081Y021349D01*
X013081Y021251D02*
X010149Y021251D01*
X010211Y021152D02*
X013081Y021152D01*
X013081Y021054D02*
X010234Y021054D01*
X010230Y020955D02*
X013081Y020955D01*
X013081Y020856D02*
X010189Y020856D01*
X010098Y020758D02*
X013081Y020758D01*
X013081Y020659D02*
X008106Y020659D01*
X008106Y020561D02*
X013081Y020561D01*
X013081Y020462D02*
X008106Y020462D01*
X008106Y020364D02*
X013081Y020364D01*
X013081Y020265D02*
X008106Y020265D01*
X008177Y020167D02*
X008925Y020167D01*
X008856Y020068D02*
X008275Y020068D01*
X008374Y019970D02*
X008856Y019970D01*
X008856Y019871D02*
X008472Y019871D01*
X008406Y019655D02*
X010056Y019655D01*
X010256Y019083D02*
X012800Y019083D01*
X012702Y018984D02*
X010256Y018984D01*
X010256Y018886D02*
X012603Y018886D01*
X012505Y018787D02*
X010256Y018787D01*
X010256Y018689D02*
X012406Y018689D01*
X012308Y018590D02*
X010256Y018590D01*
X010256Y018491D02*
X012209Y018491D01*
X012111Y018393D02*
X010256Y018393D01*
X010256Y018294D02*
X012012Y018294D01*
X011913Y018196D02*
X010256Y018196D01*
X009330Y016422D02*
X008981Y016422D01*
X009021Y016324D02*
X009291Y016324D01*
X009291Y016225D02*
X009021Y016225D01*
X009021Y016126D02*
X009291Y016126D01*
X009291Y016028D02*
X009021Y016028D01*
X009021Y015929D02*
X009291Y015929D01*
X009291Y015831D02*
X009021Y015831D01*
X009021Y015732D02*
X009291Y015732D01*
X009291Y015634D02*
X009021Y015634D01*
X009021Y015535D02*
X009291Y015535D01*
X009322Y015437D02*
X008989Y015437D01*
X008322Y015437D02*
X007989Y015437D01*
X008021Y015535D02*
X008291Y015535D01*
X008291Y015634D02*
X008021Y015634D01*
X008021Y015732D02*
X008291Y015732D01*
X008291Y015831D02*
X008021Y015831D01*
X008021Y015929D02*
X008291Y015929D01*
X008291Y016028D02*
X008021Y016028D01*
X008021Y016126D02*
X008291Y016126D01*
X008291Y016225D02*
X008021Y016225D01*
X008021Y016324D02*
X008291Y016324D01*
X008330Y016422D02*
X007981Y016422D01*
X007079Y017802D02*
X006980Y017802D01*
X006980Y017900D02*
X007079Y017900D01*
X007079Y017999D02*
X006980Y017999D01*
X006980Y018097D02*
X007079Y018097D01*
X006743Y018097D02*
X006603Y018097D01*
X006256Y017681D02*
X006282Y017655D01*
X006256Y017681D02*
X006256Y019655D01*
X006906Y019655D01*
X007406Y020155D01*
X007406Y021844D01*
X007606Y021251D02*
X007706Y021251D01*
X007706Y021152D02*
X007606Y021152D01*
X007606Y021054D02*
X007706Y021054D01*
X007706Y020955D02*
X007606Y020955D01*
X007606Y020856D02*
X007706Y020856D01*
X007706Y020758D02*
X007606Y020758D01*
X007606Y020659D02*
X007706Y020659D01*
X007706Y020561D02*
X007606Y020561D01*
X007606Y020462D02*
X007706Y020462D01*
X007706Y020364D02*
X007606Y020364D01*
X007606Y020265D02*
X007706Y020265D01*
X007706Y020167D02*
X007606Y020167D01*
X007601Y020068D02*
X007710Y020068D01*
X007808Y019970D02*
X007503Y019970D01*
X007456Y019871D02*
X007907Y019871D01*
X008005Y019773D02*
X007456Y019773D01*
X007456Y019674D02*
X008104Y019674D01*
X008202Y019575D02*
X007456Y019575D01*
X007456Y019477D02*
X008301Y019477D01*
X008406Y019655D02*
X007906Y020155D01*
X007906Y021844D01*
X008106Y020856D02*
X008122Y020856D01*
X008106Y020758D02*
X008213Y020758D01*
X008406Y021030D02*
X008406Y021844D01*
X008906Y021844D02*
X008906Y021030D01*
X008713Y020758D02*
X008598Y020758D01*
X009098Y020758D02*
X009213Y020758D01*
X009406Y021030D02*
X009406Y021844D01*
X009906Y021844D02*
X009906Y021030D01*
X009713Y020758D02*
X009598Y020758D01*
X010396Y021349D02*
X010415Y021349D01*
X010415Y021448D02*
X010396Y021448D01*
X010396Y021546D02*
X010415Y021546D01*
X010415Y021645D02*
X010396Y021645D01*
X010396Y021743D02*
X010415Y021743D01*
X010415Y021842D02*
X013081Y021842D01*
X013081Y021940D02*
X010674Y021940D01*
X010674Y022039D02*
X013081Y022039D01*
X013081Y022138D02*
X010674Y022138D01*
X010674Y022236D02*
X011438Y022236D01*
X011340Y022335D02*
X010664Y022335D01*
X010674Y021743D02*
X013081Y021743D01*
X013081Y021645D02*
X010674Y021645D01*
X010674Y021546D02*
X013081Y021546D01*
X013081Y021448D02*
X010674Y021448D01*
X010415Y021940D02*
X010396Y021940D01*
X010396Y022039D02*
X010415Y022039D01*
X010415Y022138D02*
X010396Y022138D01*
X010396Y022236D02*
X010415Y022236D01*
X010415Y022335D02*
X010396Y022335D01*
X009781Y023405D02*
X011031Y023405D01*
X011281Y023655D01*
X011656Y023655D01*
X011858Y023222D02*
X012453Y023222D01*
X012354Y023320D02*
X011957Y023320D01*
X012055Y023419D02*
X012256Y023419D01*
X012206Y023517D02*
X012106Y023517D01*
X012106Y023616D02*
X012206Y023616D01*
X012206Y023714D02*
X012106Y023714D01*
X012106Y023813D02*
X012206Y023813D01*
X012117Y023911D02*
X012036Y023911D01*
X012156Y024155D02*
X011406Y024155D01*
X010906Y023655D01*
X009906Y023655D01*
X009406Y024155D01*
X008656Y024155D01*
X007656Y024155D01*
X007406Y024405D01*
X007406Y025466D01*
X007906Y024780D02*
X007781Y024655D01*
X007906Y024780D02*
X007906Y025466D01*
X008844Y026375D02*
X009968Y026375D01*
X010066Y026473D02*
X008745Y026473D01*
X008942Y026276D02*
X009869Y026276D01*
X009770Y026178D02*
X009041Y026178D01*
X009106Y026079D02*
X009706Y026079D01*
X009657Y025981D02*
X009654Y025981D01*
X009906Y026030D02*
X009906Y025466D01*
X009906Y026030D02*
X010156Y026280D01*
X010656Y026280D01*
X011156Y025780D01*
X013156Y025780D01*
X013781Y025155D01*
X013781Y017780D01*
X013156Y017155D01*
X013156Y015569D01*
X013356Y014254D02*
X014426Y014254D01*
X014426Y014156D02*
X013356Y014156D01*
X013356Y014057D02*
X014426Y014057D01*
X014426Y013958D02*
X013356Y013958D01*
X013588Y013860D02*
X014426Y013860D01*
X014426Y013761D02*
X013601Y013761D01*
X013601Y013663D02*
X014426Y013663D01*
X014426Y013564D02*
X013601Y013564D01*
X013601Y013466D02*
X014426Y013466D01*
X014426Y013367D02*
X013601Y013367D01*
X013601Y013269D02*
X014426Y013269D01*
X014426Y013170D02*
X013560Y013170D01*
X013597Y013072D02*
X014426Y013072D01*
X014426Y012973D02*
X013601Y012973D01*
X013601Y012874D02*
X014426Y012874D01*
X014919Y011593D02*
X015706Y011593D01*
X015706Y011495D02*
X014821Y011495D01*
X014722Y011396D02*
X015706Y011396D01*
X015706Y011298D02*
X014624Y011298D01*
X014525Y011199D02*
X015706Y011199D01*
X015706Y011101D02*
X014426Y011101D01*
X014328Y011002D02*
X015706Y011002D01*
X015706Y010904D02*
X014229Y010904D01*
X014131Y010805D02*
X015706Y010805D01*
X015706Y010707D02*
X014032Y010707D01*
X013934Y010608D02*
X015706Y010608D01*
X015706Y010509D02*
X013835Y010509D01*
X013737Y010411D02*
X015706Y010411D01*
X015706Y010312D02*
X013638Y010312D01*
X013540Y010214D02*
X015706Y010214D01*
X015706Y010115D02*
X013441Y010115D01*
X013342Y010017D02*
X015706Y010017D01*
X015706Y009918D02*
X013244Y009918D01*
X013145Y009820D02*
X015706Y009820D01*
X015706Y009721D02*
X013047Y009721D01*
X012948Y009623D02*
X015706Y009623D01*
X015706Y009524D02*
X012850Y009524D01*
X012751Y009425D02*
X015706Y009425D01*
X015706Y009327D02*
X012653Y009327D01*
X012554Y009228D02*
X015706Y009228D01*
X015706Y009130D02*
X012456Y009130D01*
X012386Y009031D02*
X015706Y009031D01*
X015706Y008933D02*
X012386Y008933D01*
X012386Y008834D02*
X015706Y008834D01*
X015706Y008736D02*
X012386Y008736D01*
X012386Y008637D02*
X015706Y008637D01*
X015706Y008539D02*
X013706Y008539D01*
X013710Y008537D02*
X013545Y008605D01*
X012766Y008605D01*
X012601Y008537D01*
X012474Y008410D01*
X012406Y008245D01*
X012406Y008066D01*
X012474Y007900D01*
X012601Y007774D01*
X012766Y007705D01*
X013545Y007705D01*
X013710Y007774D01*
X013837Y007900D01*
X013906Y008066D01*
X013906Y008245D01*
X013837Y008410D01*
X013710Y008537D01*
X013807Y008440D02*
X015706Y008440D01*
X015706Y008341D02*
X013865Y008341D01*
X013906Y008243D02*
X015706Y008243D01*
X015706Y008144D02*
X013906Y008144D01*
X013897Y008046D02*
X015706Y008046D01*
X015706Y007947D02*
X013857Y007947D01*
X013786Y007849D02*
X015706Y007849D01*
X015706Y007750D02*
X013654Y007750D01*
X013628Y007572D02*
X013561Y007594D01*
X013491Y007605D01*
X013206Y007605D01*
X013206Y007205D01*
X013903Y007205D01*
X013894Y007260D01*
X013873Y007328D01*
X013840Y007391D01*
X013799Y007448D01*
X013749Y007498D01*
X013691Y007540D01*
X013628Y007572D01*
X013666Y007553D02*
X015706Y007553D01*
X015706Y007455D02*
X013792Y007455D01*
X013858Y007356D02*
X015706Y007356D01*
X015706Y007258D02*
X013895Y007258D01*
X013903Y007105D02*
X013206Y007105D01*
X013206Y007205D01*
X013106Y007205D01*
X013106Y007605D01*
X012820Y007605D01*
X012750Y007594D01*
X012683Y007572D01*
X012620Y007540D01*
X012562Y007498D01*
X012512Y007448D01*
X012471Y007391D01*
X012439Y007328D01*
X012417Y007260D01*
X012408Y007205D01*
X013105Y007205D01*
X013105Y007105D01*
X012408Y007105D01*
X012417Y007050D01*
X012439Y006982D01*
X012471Y006919D01*
X012512Y006862D01*
X012562Y006812D01*
X012620Y006770D01*
X012683Y006738D01*
X012750Y006716D01*
X012820Y006705D01*
X013106Y006705D01*
X013106Y007105D01*
X013206Y007105D01*
X013206Y006705D01*
X013491Y006705D01*
X013561Y006716D01*
X013628Y006738D01*
X013691Y006770D01*
X013749Y006812D01*
X013799Y006862D01*
X013840Y006919D01*
X013873Y006982D01*
X013894Y007050D01*
X013903Y007105D01*
X013896Y007060D02*
X015706Y007060D01*
X015706Y006962D02*
X013862Y006962D01*
X013800Y006863D02*
X015706Y006863D01*
X015706Y006765D02*
X013681Y006765D01*
X013635Y006568D02*
X015706Y006568D01*
X015706Y006666D02*
X011742Y006666D01*
X011643Y006568D02*
X012676Y006568D01*
X012601Y006537D02*
X012766Y006605D01*
X013545Y006605D01*
X013710Y006537D01*
X013837Y006410D01*
X013906Y006245D01*
X013906Y006066D01*
X013837Y005900D01*
X013710Y005774D01*
X013545Y005705D01*
X012766Y005705D01*
X012601Y005774D01*
X012474Y005900D01*
X012406Y006066D01*
X012406Y006245D01*
X012474Y006410D01*
X012601Y006537D01*
X012533Y006469D02*
X011545Y006469D01*
X011446Y006371D02*
X012458Y006371D01*
X012417Y006272D02*
X011348Y006272D01*
X011249Y006174D02*
X012406Y006174D01*
X012406Y006075D02*
X011151Y006075D01*
X011052Y005976D02*
X012442Y005976D01*
X012496Y005878D02*
X010954Y005878D01*
X010855Y005779D02*
X012595Y005779D01*
X012630Y006765D02*
X011841Y006765D01*
X011939Y006863D02*
X012511Y006863D01*
X012449Y006962D02*
X012038Y006962D01*
X012136Y007060D02*
X012415Y007060D01*
X012416Y007258D02*
X012333Y007258D01*
X012386Y007356D02*
X012453Y007356D01*
X012519Y007455D02*
X012386Y007455D01*
X012386Y007553D02*
X012646Y007553D01*
X012657Y007750D02*
X012386Y007750D01*
X012386Y007652D02*
X015706Y007652D01*
X015706Y007159D02*
X013206Y007159D01*
X013206Y007258D02*
X013106Y007258D01*
X013106Y007356D02*
X013206Y007356D01*
X013206Y007455D02*
X013106Y007455D01*
X013106Y007553D02*
X013206Y007553D01*
X013105Y007159D02*
X012235Y007159D01*
X012386Y007849D02*
X012526Y007849D01*
X012455Y007947D02*
X012386Y007947D01*
X012386Y008046D02*
X012414Y008046D01*
X012406Y008144D02*
X012386Y008144D01*
X012386Y008243D02*
X012406Y008243D01*
X012386Y008341D02*
X012446Y008341D01*
X012504Y008440D02*
X012386Y008440D01*
X012386Y008539D02*
X012606Y008539D01*
X013106Y007060D02*
X013206Y007060D01*
X013206Y006962D02*
X013106Y006962D01*
X013106Y006863D02*
X013206Y006863D01*
X013206Y006765D02*
X013106Y006765D01*
X013778Y006469D02*
X015706Y006469D01*
X015706Y006371D02*
X013853Y006371D01*
X013894Y006272D02*
X015706Y006272D01*
X015706Y006174D02*
X013906Y006174D01*
X013906Y006075D02*
X015706Y006075D01*
X015706Y005976D02*
X013869Y005976D01*
X013815Y005878D02*
X015706Y005878D01*
X015706Y005779D02*
X013716Y005779D01*
X014519Y003196D02*
X014254Y003125D01*
X014017Y002988D01*
X013823Y002794D01*
X013686Y002557D01*
X013615Y002292D01*
X013615Y002018D01*
X013686Y001753D01*
X013823Y001516D01*
X014017Y001322D01*
X014254Y001185D01*
X014519Y001115D01*
X014793Y001115D01*
X015057Y001185D01*
X015294Y001322D01*
X015488Y001516D01*
X015625Y001753D01*
X015696Y002018D01*
X015696Y002292D01*
X015625Y002557D01*
X015488Y002794D01*
X015294Y002988D01*
X015057Y003125D01*
X014793Y003196D01*
X014519Y003196D01*
X014244Y003119D02*
X002068Y003119D01*
X002057Y003125D02*
X001793Y003196D01*
X001519Y003196D01*
X001254Y003125D01*
X001017Y002988D01*
X000823Y002794D01*
X000686Y002557D01*
X000615Y002292D01*
X000615Y002018D01*
X000686Y001753D01*
X000823Y001516D01*
X001017Y001322D01*
X001254Y001185D01*
X001519Y001115D01*
X001793Y001115D01*
X002057Y001185D01*
X002294Y001322D01*
X002488Y001516D01*
X002625Y001753D01*
X002696Y002018D01*
X002696Y002292D01*
X002625Y002557D01*
X002488Y002794D01*
X002294Y002988D01*
X002057Y003125D01*
X002238Y003020D02*
X014073Y003020D01*
X013951Y002922D02*
X002361Y002922D01*
X002459Y002823D02*
X013852Y002823D01*
X013783Y002725D02*
X002528Y002725D01*
X002585Y002626D02*
X013726Y002626D01*
X013678Y002527D02*
X002633Y002527D01*
X002659Y002429D02*
X013652Y002429D01*
X013625Y002330D02*
X002686Y002330D01*
X002696Y002232D02*
X013615Y002232D01*
X013615Y002133D02*
X002696Y002133D01*
X002696Y002035D02*
X013615Y002035D01*
X013637Y001936D02*
X002674Y001936D01*
X002648Y001838D02*
X013663Y001838D01*
X013694Y001739D02*
X002617Y001739D01*
X002560Y001641D02*
X013751Y001641D01*
X013808Y001542D02*
X002503Y001542D01*
X002415Y001443D02*
X013896Y001443D01*
X013994Y001345D02*
X002317Y001345D01*
X002163Y001246D02*
X014148Y001246D01*
X014394Y001148D02*
X001917Y001148D01*
X001394Y001148D02*
X000606Y001148D01*
X000606Y001105D02*
X000606Y039575D01*
X000697Y039575D01*
X000686Y039557D01*
X000615Y039292D01*
X000615Y039018D01*
X000686Y038753D01*
X000823Y038516D01*
X001017Y038322D01*
X001254Y038185D01*
X001519Y038115D01*
X001793Y038115D01*
X002057Y038185D01*
X002294Y038322D01*
X002488Y038516D01*
X002625Y038753D01*
X002696Y039018D01*
X002696Y039292D01*
X002625Y039557D01*
X002614Y039575D01*
X013697Y039575D01*
X013686Y039557D01*
X013615Y039292D01*
X013615Y039018D01*
X013686Y038753D01*
X013823Y038516D01*
X014017Y038322D01*
X014254Y038185D01*
X014519Y038115D01*
X014793Y038115D01*
X015057Y038185D01*
X015294Y038322D01*
X015488Y038516D01*
X015625Y038753D01*
X015696Y039018D01*
X015696Y039292D01*
X015625Y039557D01*
X015614Y039575D01*
X015706Y039575D01*
X015706Y001105D01*
X000606Y001105D01*
X000606Y001246D02*
X001148Y001246D01*
X000994Y001345D02*
X000606Y001345D01*
X000606Y001443D02*
X000896Y001443D01*
X000808Y001542D02*
X000606Y001542D01*
X000606Y001641D02*
X000751Y001641D01*
X000694Y001739D02*
X000606Y001739D01*
X000606Y001838D02*
X000663Y001838D01*
X000637Y001936D02*
X000606Y001936D01*
X000606Y002035D02*
X000615Y002035D01*
X000606Y002133D02*
X000615Y002133D01*
X000606Y002232D02*
X000615Y002232D01*
X000606Y002330D02*
X000625Y002330D01*
X000606Y002429D02*
X000652Y002429D01*
X000678Y002527D02*
X000606Y002527D01*
X000606Y002626D02*
X000726Y002626D01*
X000783Y002725D02*
X000606Y002725D01*
X000606Y002823D02*
X000852Y002823D01*
X000951Y002922D02*
X000606Y002922D01*
X000606Y003020D02*
X001073Y003020D01*
X001244Y003119D02*
X000606Y003119D01*
X000606Y003217D02*
X015706Y003217D01*
X015706Y003119D02*
X015068Y003119D01*
X015238Y003020D02*
X015706Y003020D01*
X015706Y002922D02*
X015361Y002922D01*
X015459Y002823D02*
X015706Y002823D01*
X015706Y002725D02*
X015528Y002725D01*
X015585Y002626D02*
X015706Y002626D01*
X015706Y002527D02*
X015633Y002527D01*
X015659Y002429D02*
X015706Y002429D01*
X015706Y002330D02*
X015686Y002330D01*
X015696Y002232D02*
X015706Y002232D01*
X015696Y002133D02*
X015706Y002133D01*
X015696Y002035D02*
X015706Y002035D01*
X015706Y001936D02*
X015674Y001936D01*
X015648Y001838D02*
X015706Y001838D01*
X015706Y001739D02*
X015617Y001739D01*
X015560Y001641D02*
X015706Y001641D01*
X015706Y001542D02*
X015503Y001542D01*
X015415Y001443D02*
X015706Y001443D01*
X015706Y001345D02*
X015317Y001345D01*
X015163Y001246D02*
X015706Y001246D01*
X015706Y001148D02*
X014917Y001148D01*
X015706Y003316D02*
X000606Y003316D01*
X000606Y003414D02*
X015706Y003414D01*
X015706Y003513D02*
X000606Y003513D01*
X000606Y003611D02*
X015706Y003611D01*
X015706Y003710D02*
X000606Y003710D01*
X000606Y003809D02*
X015706Y003809D01*
X015706Y003907D02*
X000606Y003907D01*
X000606Y004006D02*
X015706Y004006D01*
X015706Y004104D02*
X000606Y004104D01*
X000606Y004203D02*
X015706Y004203D01*
X015706Y004301D02*
X005435Y004301D01*
X005435Y004400D02*
X015706Y004400D01*
X015706Y004498D02*
X010380Y004498D01*
X010482Y004597D02*
X015706Y004597D01*
X015706Y004695D02*
X010534Y004695D01*
X010563Y004794D02*
X015706Y004794D01*
X015706Y004892D02*
X010563Y004892D01*
X010563Y004991D02*
X015706Y004991D01*
X015706Y005090D02*
X010563Y005090D01*
X010563Y005188D02*
X015706Y005188D01*
X015706Y005287D02*
X010563Y005287D01*
X010563Y005385D02*
X015706Y005385D01*
X015706Y005484D02*
X010559Y005484D01*
X010658Y005582D02*
X015706Y005582D01*
X015706Y005681D02*
X010757Y005681D01*
X009906Y006905D02*
X010156Y007155D01*
X010156Y007405D01*
X010156Y009155D01*
X009530Y009155D01*
X009606Y009918D02*
X009705Y009918D01*
X009705Y010017D02*
X009606Y010017D01*
X009606Y010115D02*
X009705Y010115D01*
X010056Y009918D02*
X012093Y009918D01*
X011995Y009820D02*
X008443Y009820D01*
X008484Y009721D02*
X011896Y009721D01*
X011798Y009623D02*
X008484Y009623D01*
X008376Y009411D02*
X008376Y009205D01*
X008731Y009205D01*
X008731Y009105D01*
X008420Y009105D01*
X008342Y009184D01*
X008221Y009234D01*
X008090Y009234D01*
X007970Y009184D01*
X007935Y009149D01*
X007935Y009278D01*
X008015Y009358D01*
X008090Y009327D01*
X007984Y009327D01*
X008090Y009327D02*
X008221Y009327D01*
X008342Y009377D01*
X008376Y009411D01*
X008376Y009327D02*
X008221Y009327D01*
X008233Y009228D02*
X008376Y009228D01*
X008395Y009130D02*
X008731Y009130D01*
X008732Y009228D02*
X008831Y009228D01*
X008831Y009327D02*
X008732Y009327D01*
X008732Y009425D02*
X008831Y009425D01*
X008831Y009524D02*
X008732Y009524D01*
X008705Y009918D02*
X008606Y009918D01*
X008606Y010017D02*
X008705Y010017D01*
X008705Y010115D02*
X008606Y010115D01*
X009056Y009918D02*
X009255Y009918D01*
X009210Y010017D02*
X009101Y010017D01*
X009101Y010115D02*
X009210Y010115D01*
X009210Y010214D02*
X009101Y010214D01*
X009101Y010411D02*
X009210Y010411D01*
X009210Y010509D02*
X009101Y010509D01*
X009083Y010608D02*
X009228Y010608D01*
X009215Y010707D02*
X009096Y010707D01*
X009101Y010805D02*
X009210Y010805D01*
X009210Y010904D02*
X009101Y010904D01*
X009101Y011002D02*
X009210Y011002D01*
X009210Y011101D02*
X009101Y011101D01*
X009101Y011199D02*
X009210Y011199D01*
X009210Y011298D02*
X009101Y011298D01*
X009052Y011396D02*
X009259Y011396D01*
X009456Y011495D02*
X008856Y011495D01*
X008856Y011593D02*
X009456Y011593D01*
X009456Y011692D02*
X008856Y011692D01*
X008856Y011791D02*
X009456Y011791D01*
X009329Y011889D02*
X008982Y011889D01*
X009021Y011988D02*
X009291Y011988D01*
X009291Y012086D02*
X009021Y012086D01*
X009021Y012185D02*
X009291Y012185D01*
X009291Y012283D02*
X009021Y012283D01*
X009021Y012382D02*
X009291Y012382D01*
X009291Y012480D02*
X009021Y012480D01*
X009021Y012579D02*
X009291Y012579D01*
X009291Y012677D02*
X009021Y012677D01*
X009021Y012776D02*
X009291Y012776D01*
X009323Y012874D02*
X008988Y012874D01*
X008936Y012973D02*
X009376Y012973D01*
X009335Y013072D02*
X008976Y013072D01*
X008984Y013170D02*
X009327Y013170D01*
X009347Y013269D02*
X008964Y013269D01*
X008908Y013367D02*
X009403Y013367D01*
X009547Y013466D02*
X008764Y013466D01*
X008656Y013155D02*
X008656Y012385D01*
X008656Y011029D01*
X007868Y009820D02*
X004316Y009820D01*
X004218Y009918D02*
X006255Y009918D01*
X006210Y010017D02*
X004119Y010017D01*
X004021Y010115D02*
X006210Y010115D01*
X006210Y010214D02*
X003922Y010214D01*
X003824Y010312D02*
X006605Y010312D01*
X006228Y010608D02*
X003528Y010608D01*
X003626Y010509D02*
X006210Y010509D01*
X006210Y010411D02*
X003725Y010411D01*
X003429Y010707D02*
X006215Y010707D01*
X006210Y010805D02*
X003331Y010805D01*
X003232Y010904D02*
X006210Y010904D01*
X006210Y011002D02*
X003134Y011002D01*
X003035Y011101D02*
X006210Y011101D01*
X006210Y011199D02*
X002937Y011199D01*
X002838Y011298D02*
X006210Y011298D01*
X006259Y011396D02*
X002740Y011396D01*
X002641Y011495D02*
X006456Y011495D01*
X006456Y011593D02*
X002542Y011593D01*
X002444Y011692D02*
X006456Y011692D01*
X006456Y011791D02*
X002345Y011791D01*
X002247Y011889D02*
X006329Y011889D01*
X006291Y011988D02*
X002148Y011988D01*
X002050Y012086D02*
X006291Y012086D01*
X006291Y012185D02*
X001951Y012185D01*
X001886Y012283D02*
X006291Y012283D01*
X006291Y012382D02*
X004495Y012382D01*
X004509Y012385D02*
X004543Y012405D01*
X004571Y012433D01*
X004591Y012467D01*
X004601Y012505D01*
X004601Y012731D01*
X004206Y012731D01*
X004206Y012831D01*
X004601Y012831D01*
X004601Y013057D01*
X004591Y013095D01*
X004571Y013129D01*
X004545Y013155D01*
X004601Y013211D01*
X004601Y013847D01*
X004513Y013935D01*
X004356Y013935D01*
X004356Y014356D01*
X004454Y014356D01*
X004542Y014443D01*
X004542Y015040D01*
X004454Y015128D01*
X003857Y015128D01*
X003769Y015040D01*
X003769Y014443D01*
X003857Y014356D01*
X003956Y014356D01*
X003956Y013935D01*
X003798Y013935D01*
X003710Y013847D01*
X003710Y013211D01*
X003766Y013155D01*
X003740Y013129D01*
X003721Y013095D01*
X003710Y013057D01*
X003710Y012831D01*
X004105Y012831D01*
X004105Y012731D01*
X003710Y012731D01*
X003710Y012505D01*
X003721Y012467D01*
X003740Y012433D01*
X003768Y012405D01*
X003802Y012385D01*
X003841Y012375D01*
X004106Y012375D01*
X004106Y012731D01*
X004205Y012731D01*
X004205Y012375D01*
X004471Y012375D01*
X004509Y012385D01*
X004594Y012480D02*
X006291Y012480D01*
X006291Y012579D02*
X004601Y012579D01*
X004601Y012677D02*
X006291Y012677D01*
X006291Y012776D02*
X004206Y012776D01*
X004205Y012677D02*
X004106Y012677D01*
X004106Y012579D02*
X004205Y012579D01*
X004205Y012480D02*
X004106Y012480D01*
X004106Y012382D02*
X004205Y012382D01*
X004105Y012776D02*
X001886Y012776D01*
X001886Y012874D02*
X003710Y012874D01*
X003710Y012973D02*
X001886Y012973D01*
X001886Y013072D02*
X003714Y013072D01*
X003751Y013170D02*
X001886Y013170D01*
X001886Y013269D02*
X003710Y013269D01*
X003710Y013367D02*
X001886Y013367D01*
X001886Y013466D02*
X003710Y013466D01*
X003710Y013564D02*
X001886Y013564D01*
X001886Y013663D02*
X003710Y013663D01*
X003710Y013761D02*
X001886Y013761D01*
X001886Y013860D02*
X003723Y013860D01*
X003956Y013958D02*
X001886Y013958D01*
X001886Y014057D02*
X003956Y014057D01*
X003956Y014156D02*
X001886Y014156D01*
X001886Y014254D02*
X003956Y014254D01*
X003956Y014353D02*
X001886Y014353D01*
X001886Y014451D02*
X003769Y014451D01*
X003769Y014550D02*
X001886Y014550D01*
X001886Y014648D02*
X003769Y014648D01*
X003769Y014747D02*
X001886Y014747D01*
X001886Y014845D02*
X003769Y014845D01*
X003769Y014944D02*
X001886Y014944D01*
X001886Y015042D02*
X003772Y015042D01*
X003800Y015240D02*
X001886Y015240D01*
X001886Y015338D02*
X003769Y015338D01*
X003769Y015437D02*
X001886Y015437D01*
X001886Y015535D02*
X003769Y015535D01*
X003769Y015634D02*
X001886Y015634D01*
X001886Y015732D02*
X003769Y015732D01*
X003769Y015831D02*
X001886Y015831D01*
X001886Y015929D02*
X003832Y015929D01*
X003956Y016028D02*
X001886Y016028D01*
X001886Y016126D02*
X003956Y016126D01*
X003956Y016225D02*
X001886Y016225D01*
X001886Y016324D02*
X003956Y016324D01*
X003956Y016422D02*
X001886Y016422D01*
X001886Y016521D02*
X003988Y016521D01*
X004087Y016619D02*
X001886Y016619D01*
X001886Y016718D02*
X004185Y016718D01*
X004284Y016816D02*
X001886Y016816D01*
X001886Y017309D02*
X005876Y017309D01*
X005876Y017407D02*
X001886Y017407D01*
X001886Y017506D02*
X005876Y017506D01*
X005876Y017605D02*
X001886Y017605D01*
X001886Y017703D02*
X005876Y017703D01*
X005876Y017802D02*
X001886Y017802D01*
X001886Y017900D02*
X005876Y017900D01*
X005876Y017999D02*
X001886Y017999D01*
X001886Y018097D02*
X005960Y018097D01*
X006056Y018196D02*
X001886Y018196D01*
X001886Y018294D02*
X006056Y018294D01*
X006056Y018393D02*
X001886Y018393D01*
X001886Y018491D02*
X006056Y018491D01*
X006056Y018590D02*
X001886Y018590D01*
X001886Y018689D02*
X006056Y018689D01*
X006056Y018787D02*
X001886Y018787D01*
X001886Y018886D02*
X006056Y018886D01*
X006056Y018984D02*
X001886Y018984D01*
X001886Y019083D02*
X006056Y019083D01*
X006213Y020758D02*
X001886Y020758D01*
X001886Y020856D02*
X006122Y020856D01*
X006081Y020955D02*
X001886Y020955D01*
X001886Y021054D02*
X006077Y021054D01*
X006101Y021152D02*
X001886Y021152D01*
X001886Y021251D02*
X006162Y021251D01*
X005906Y021844D02*
X005906Y022405D01*
X006156Y022655D01*
X011656Y022655D01*
X011923Y023024D02*
X012389Y023024D01*
X012290Y022926D02*
X012021Y022926D01*
X012106Y022827D02*
X012206Y022827D01*
X012206Y022729D02*
X012106Y022729D01*
X012106Y022630D02*
X012605Y022630D01*
X012606Y022532D02*
X012706Y022532D01*
X012706Y022433D02*
X012606Y022433D01*
X012606Y022335D02*
X012706Y022335D01*
X012706Y022236D02*
X012606Y022236D01*
X012438Y022236D02*
X011873Y022236D01*
X011971Y022335D02*
X012340Y022335D01*
X012241Y022433D02*
X012070Y022433D01*
X012106Y022532D02*
X012206Y022532D01*
X012606Y022729D02*
X012706Y022729D01*
X012706Y022827D02*
X012606Y022827D01*
X012606Y022926D02*
X012706Y022926D01*
X012706Y023024D02*
X012606Y023024D01*
X012656Y023655D02*
X012156Y024155D01*
X012858Y023222D02*
X013081Y023222D01*
X013081Y023320D02*
X012957Y023320D01*
X013055Y023419D02*
X013081Y023419D01*
X013081Y023123D02*
X005101Y023123D01*
X005101Y023222D02*
X009681Y023222D01*
X009583Y023320D02*
X005101Y023320D01*
X005029Y023419D02*
X007928Y023419D01*
X008156Y023655D02*
X009531Y023655D01*
X009781Y023405D01*
X009484Y023419D02*
X008384Y023419D01*
X008156Y023655D02*
X007406Y023655D01*
X006406Y024655D01*
X006406Y025466D01*
X006654Y025981D02*
X006657Y025981D01*
X006767Y026079D02*
X001886Y026079D01*
X001886Y025981D02*
X005657Y025981D01*
X005637Y025882D02*
X001886Y025882D01*
X001886Y025784D02*
X005637Y025784D01*
X005637Y025685D02*
X001886Y025685D01*
X001886Y025587D02*
X004930Y025587D01*
X004832Y025488D02*
X001886Y025488D01*
X001886Y025389D02*
X004253Y025389D01*
X004210Y025291D02*
X001886Y025291D01*
X001886Y025192D02*
X004035Y025192D01*
X003936Y025094D02*
X001886Y025094D01*
X001886Y024995D02*
X003838Y024995D01*
X003739Y024897D02*
X001886Y024897D01*
X001886Y024798D02*
X003706Y024798D01*
X003706Y024700D02*
X001886Y024700D01*
X001886Y024601D02*
X003706Y024601D01*
X003706Y024503D02*
X001886Y024503D01*
X001886Y024404D02*
X003706Y024404D01*
X003706Y024306D02*
X001886Y024306D01*
X001886Y024207D02*
X003706Y024207D01*
X003706Y024108D02*
X001886Y024108D01*
X001886Y024010D02*
X003706Y024010D01*
X003706Y023911D02*
X001886Y023911D01*
X001886Y023813D02*
X003706Y023813D01*
X003706Y023714D02*
X001886Y023714D01*
X001886Y023616D02*
X003706Y023616D01*
X003706Y023517D02*
X001886Y023517D01*
X001886Y023419D02*
X003706Y023419D01*
X003706Y023320D02*
X001886Y023320D01*
X001886Y023222D02*
X003706Y023222D01*
X003780Y023123D02*
X001886Y023123D01*
X001886Y023024D02*
X003878Y023024D01*
X003977Y022926D02*
X001886Y022926D01*
X001886Y022827D02*
X004210Y022827D01*
X004210Y022729D02*
X001886Y022729D01*
X001886Y022630D02*
X004241Y022630D01*
X004210Y022532D02*
X001886Y022532D01*
X001886Y022433D02*
X004210Y022433D01*
X004210Y022335D02*
X001886Y022335D01*
X001886Y022236D02*
X004210Y022236D01*
X004210Y022138D02*
X001886Y022138D01*
X001886Y022039D02*
X004210Y022039D01*
X004233Y021940D02*
X001886Y021940D01*
X001886Y021842D02*
X004812Y021842D01*
X004910Y021743D02*
X001886Y021743D01*
X001886Y021645D02*
X005009Y021645D01*
X005093Y021844D02*
X004656Y022281D01*
X004656Y023029D02*
X004157Y023029D01*
X003906Y023280D01*
X003906Y024780D01*
X004155Y025029D01*
X004656Y025029D01*
X005093Y025466D01*
X005906Y025466D01*
X005906Y024655D01*
X006119Y024404D02*
X006374Y024404D01*
X006472Y024306D02*
X004706Y024306D01*
X004705Y024207D02*
X004606Y024207D01*
X004605Y024306D02*
X004106Y024306D01*
X004106Y024404D02*
X004210Y024404D01*
X004210Y024503D02*
X004106Y024503D01*
X004106Y024601D02*
X004224Y024601D01*
X004222Y024700D02*
X004108Y024700D01*
X004206Y024798D02*
X004210Y024798D01*
X004210Y024207D02*
X004106Y024207D01*
X004106Y024108D02*
X004210Y024108D01*
X004210Y024010D02*
X004106Y024010D01*
X004106Y023911D02*
X004262Y023911D01*
X004106Y023813D02*
X006965Y023813D01*
X006867Y023911D02*
X005049Y023911D01*
X005101Y024010D02*
X006768Y024010D01*
X006669Y024108D02*
X005101Y024108D01*
X005101Y024207D02*
X006571Y024207D01*
X006275Y024503D02*
X006198Y024503D01*
X005692Y024404D02*
X005101Y024404D01*
X005101Y024503D02*
X005613Y024503D01*
X005577Y024601D02*
X005087Y024601D01*
X005089Y024700D02*
X005577Y024700D01*
X005609Y024798D02*
X005101Y024798D01*
X005101Y024897D02*
X005683Y024897D01*
X005637Y024995D02*
X005101Y024995D01*
X005101Y025094D02*
X005637Y025094D01*
X005637Y025192D02*
X005102Y025192D01*
X004705Y024108D02*
X004606Y024108D01*
X004606Y024010D02*
X004705Y024010D01*
X004705Y023911D02*
X004606Y023911D01*
X004282Y023419D02*
X004106Y023419D01*
X004106Y023517D02*
X007261Y023517D01*
X007162Y023616D02*
X004106Y023616D01*
X004106Y023714D02*
X007064Y023714D01*
X006906Y024655D02*
X006906Y025466D01*
X006717Y026178D02*
X001886Y026178D01*
X001886Y026276D02*
X002611Y026276D01*
X002620Y026270D02*
X002683Y026238D01*
X002750Y026216D01*
X002820Y026205D01*
X003106Y026205D01*
X003106Y026605D01*
X003206Y026605D01*
X003206Y026705D01*
X003903Y026705D01*
X003894Y026760D01*
X003873Y026828D01*
X003840Y026891D01*
X003799Y026948D01*
X003749Y026998D01*
X003691Y027040D01*
X003628Y027072D01*
X003561Y027094D01*
X003491Y027105D01*
X003206Y027105D01*
X003206Y026705D01*
X003106Y026705D01*
X003106Y027105D01*
X002820Y027105D01*
X002750Y027094D01*
X002683Y027072D01*
X002620Y027040D01*
X002562Y026998D01*
X002512Y026948D01*
X002471Y026891D01*
X002439Y026828D01*
X002417Y026760D01*
X002408Y026705D01*
X003105Y026705D01*
X003105Y026605D01*
X002408Y026605D01*
X002417Y026550D01*
X002439Y026482D01*
X002471Y026419D01*
X002512Y026362D01*
X002562Y026312D01*
X002620Y026270D01*
X002503Y026375D02*
X001886Y026375D01*
X001886Y026473D02*
X002443Y026473D01*
X002413Y026572D02*
X001886Y026572D01*
X001886Y026671D02*
X003105Y026671D01*
X003106Y026769D02*
X003206Y026769D01*
X003206Y026671D02*
X013105Y026671D01*
X013106Y026769D02*
X013206Y026769D01*
X013206Y026671D02*
X014426Y026671D01*
X014426Y026769D02*
X013892Y026769D01*
X013852Y026868D02*
X014426Y026868D01*
X014426Y026966D02*
X013781Y026966D01*
X013643Y027065D02*
X014426Y027065D01*
X014426Y027163D02*
X001886Y027163D01*
X001886Y027065D02*
X002668Y027065D01*
X002530Y026966D02*
X001886Y026966D01*
X001886Y026868D02*
X002459Y026868D01*
X002419Y026769D02*
X001886Y026769D01*
X001886Y027262D02*
X002629Y027262D01*
X002514Y027360D02*
X001886Y027360D01*
X001886Y027459D02*
X002450Y027459D01*
X002409Y027557D02*
X001886Y027557D01*
X001886Y027656D02*
X002406Y027656D01*
X002410Y027755D02*
X001886Y027755D01*
X001886Y027853D02*
X002451Y027853D01*
X002516Y027952D02*
X001886Y027952D01*
X001886Y028050D02*
X002633Y028050D01*
X003106Y027065D02*
X003206Y027065D01*
X003206Y026966D02*
X003106Y026966D01*
X003106Y026868D02*
X003206Y026868D01*
X003206Y026605D02*
X003903Y026605D01*
X003894Y026550D01*
X003873Y026482D01*
X003840Y026419D01*
X003799Y026362D01*
X003749Y026312D01*
X003691Y026270D01*
X003628Y026238D01*
X003561Y026216D01*
X003491Y026205D01*
X003206Y026205D01*
X003206Y026605D01*
X003206Y026572D02*
X003106Y026572D01*
X003106Y026473D02*
X003206Y026473D01*
X003206Y026375D02*
X003106Y026375D01*
X003106Y026276D02*
X003206Y026276D01*
X003643Y027065D02*
X012668Y027065D01*
X012530Y026966D02*
X003781Y026966D01*
X003852Y026868D02*
X012459Y026868D01*
X012419Y026769D02*
X003892Y026769D01*
X003898Y026572D02*
X006877Y026572D01*
X006759Y026473D02*
X003868Y026473D01*
X003808Y026375D02*
X006714Y026375D01*
X006702Y026276D02*
X003700Y026276D01*
X003682Y027262D02*
X012629Y027262D01*
X012514Y027360D02*
X003797Y027360D01*
X003795Y027952D02*
X005105Y027952D01*
X005105Y028050D02*
X003678Y028050D01*
X004475Y030218D02*
X001886Y030218D01*
X001886Y030120D02*
X005107Y030120D01*
X005105Y030021D02*
X001886Y030021D01*
X001886Y029922D02*
X005105Y029922D01*
X005105Y029824D02*
X001886Y029824D01*
X001886Y029725D02*
X005105Y029725D01*
X005105Y029528D02*
X001886Y029528D01*
X001886Y029430D02*
X005105Y029430D01*
X005105Y029331D02*
X001886Y029331D01*
X001886Y029233D02*
X005105Y029233D01*
X005136Y029134D02*
X001886Y029134D01*
X001886Y029036D02*
X006421Y029036D01*
X006453Y029134D02*
X005925Y029134D01*
X005956Y029233D02*
X006508Y029233D01*
X006592Y029331D02*
X005956Y029331D01*
X005956Y029430D02*
X006736Y029430D01*
X006924Y029922D02*
X005956Y029922D01*
X005956Y029824D02*
X008060Y029824D01*
X007990Y029725D02*
X005956Y029725D01*
X005956Y029528D02*
X007990Y029528D01*
X007990Y029430D02*
X007835Y029430D01*
X007979Y029331D02*
X007990Y029331D01*
X007990Y029627D02*
X005581Y029627D01*
X005580Y029528D02*
X005481Y029528D01*
X005481Y029430D02*
X005580Y029430D01*
X005580Y029331D02*
X005481Y029331D01*
X005481Y029233D02*
X005580Y029233D01*
X005580Y029134D02*
X005481Y029134D01*
X005480Y029627D02*
X001886Y029627D01*
X001886Y030317D02*
X004382Y030317D01*
X004376Y030415D02*
X001886Y030415D01*
X001886Y030514D02*
X004376Y030514D01*
X004376Y030711D02*
X001886Y030711D01*
X001886Y030809D02*
X004376Y030809D01*
X004376Y030908D02*
X001886Y030908D01*
X001886Y031006D02*
X004385Y031006D01*
X004386Y031302D02*
X001886Y031302D01*
X001886Y031204D02*
X006171Y031204D01*
X006270Y031302D02*
X005935Y031302D01*
X005935Y031401D02*
X006535Y031401D01*
X006406Y031155D02*
X007053Y031155D01*
X007053Y031655D02*
X005530Y031655D01*
X005530Y030655D02*
X005905Y030280D01*
X006156Y030280D01*
X006386Y030514D02*
X007231Y030514D01*
X007330Y030612D02*
X006146Y030612D01*
X006244Y030711D02*
X007428Y030711D01*
X007456Y030809D02*
X006343Y030809D01*
X006441Y030908D02*
X006537Y030908D01*
X006406Y031155D02*
X005906Y030655D01*
X005530Y030655D01*
X005172Y030218D02*
X005088Y030218D01*
X004831Y030218D02*
X004732Y030218D01*
X004732Y030317D02*
X004831Y030317D01*
X004831Y030415D02*
X004732Y030415D01*
X004732Y030514D02*
X004831Y030514D01*
X004731Y030612D02*
X001886Y030612D01*
X001886Y031105D02*
X006073Y031105D01*
X005974Y031006D02*
X005935Y031006D01*
X006361Y030021D02*
X006856Y030021D01*
X006827Y030120D02*
X006445Y030120D01*
X006484Y030218D02*
X006827Y030218D01*
X006867Y030317D02*
X006484Y030317D01*
X006455Y030415D02*
X006951Y030415D01*
X007156Y030155D02*
X007656Y030655D01*
X007656Y032530D01*
X007531Y032655D01*
X007053Y032655D01*
X005530Y032655D01*
X004906Y032155D02*
X004781Y032280D01*
X004781Y032654D01*
X004782Y032655D01*
X004376Y032682D02*
X003007Y032682D01*
X002909Y032583D02*
X004376Y032583D01*
X004376Y032485D02*
X002810Y032485D01*
X002712Y032386D02*
X004376Y032386D01*
X004386Y032288D02*
X002613Y032288D01*
X002515Y032189D02*
X004589Y032189D01*
X004469Y032090D02*
X002416Y032090D01*
X002318Y031992D02*
X004382Y031992D01*
X004376Y031893D02*
X002219Y031893D01*
X002121Y031795D02*
X004376Y031795D01*
X004376Y031598D02*
X001923Y031598D01*
X001886Y031499D02*
X004376Y031499D01*
X004376Y031401D02*
X001886Y031401D01*
X002022Y031696D02*
X004731Y031696D01*
X004732Y031598D02*
X004831Y031598D01*
X004831Y031499D02*
X004732Y031499D01*
X004732Y031401D02*
X004831Y031401D01*
X004831Y031302D02*
X004732Y031302D01*
X004732Y031006D02*
X004831Y031006D01*
X004831Y030908D02*
X004732Y030908D01*
X004732Y030809D02*
X004831Y030809D01*
X004831Y030711D02*
X004732Y030711D01*
X004906Y032155D02*
X006156Y032155D01*
X006273Y033963D02*
X000606Y033963D01*
X000606Y034061D02*
X006174Y034061D01*
X006076Y034160D02*
X000606Y034160D01*
X000606Y034258D02*
X005977Y034258D01*
X005926Y034357D02*
X000606Y034357D01*
X000606Y034455D02*
X005926Y034455D01*
X005926Y034554D02*
X000606Y034554D01*
X000606Y034653D02*
X005926Y034653D01*
X005926Y034751D02*
X000606Y034751D01*
X000606Y034850D02*
X005926Y034850D01*
X005926Y034948D02*
X000606Y034948D01*
X000606Y035047D02*
X005926Y035047D01*
X005926Y035145D02*
X000606Y035145D01*
X000606Y035244D02*
X005926Y035244D01*
X005926Y035342D02*
X000606Y035342D01*
X000606Y035441D02*
X005926Y035441D01*
X005926Y035539D02*
X000606Y035539D01*
X000606Y035638D02*
X005890Y035638D01*
X005802Y035737D02*
X000606Y035737D01*
X000606Y035835D02*
X005762Y035835D01*
X005748Y035934D02*
X000606Y035934D01*
X000606Y036032D02*
X005748Y036032D01*
X005748Y036131D02*
X000606Y036131D01*
X000606Y036229D02*
X005748Y036229D01*
X005748Y036328D02*
X000606Y036328D01*
X000606Y036426D02*
X005748Y036426D01*
X005748Y036525D02*
X000606Y036525D01*
X000606Y036623D02*
X005781Y036623D01*
X005838Y036722D02*
X000606Y036722D01*
X000606Y036821D02*
X005952Y036821D01*
X006023Y037503D02*
X006197Y037507D01*
X006386Y037704D01*
X006386Y037628D01*
X006509Y037505D01*
X006683Y037505D01*
X006803Y037505D01*
X006884Y037505D01*
X006887Y037502D01*
X006970Y037505D01*
X007053Y037505D01*
X007056Y037509D01*
X007061Y037509D01*
X007117Y037569D01*
X007176Y037628D01*
X007176Y037633D01*
X007237Y037699D01*
X007246Y037708D01*
X007245Y037630D01*
X007246Y037629D01*
X007246Y037628D01*
X007306Y037567D01*
X007366Y037506D01*
X007368Y037506D01*
X007369Y037505D01*
X007455Y037505D01*
X007540Y037504D01*
X007541Y037505D01*
X008033Y037505D01*
X008156Y037628D01*
X008156Y037638D01*
X008289Y037505D01*
X008463Y037505D01*
X008529Y037505D01*
X008703Y037505D01*
X008823Y037625D01*
X008833Y037636D01*
X008833Y037628D01*
X008956Y037505D01*
X009615Y037505D01*
X009677Y037567D01*
X009736Y037506D01*
X009745Y037506D01*
X009746Y037505D01*
X009825Y037505D01*
X009910Y037504D01*
X009911Y037505D01*
X010405Y037505D01*
X010528Y037628D01*
X010528Y037802D01*
X010405Y037925D01*
X010340Y037925D01*
X010401Y037985D01*
X010403Y037985D01*
X010463Y038046D01*
X010525Y038106D01*
X010525Y038107D01*
X010526Y038108D01*
X010526Y038195D01*
X010526Y038280D01*
X010526Y038281D01*
X010526Y038412D01*
X010283Y038655D01*
X010109Y038655D01*
X009869Y038655D01*
X009746Y038532D01*
X009616Y038402D01*
X009616Y038228D01*
X009739Y038105D01*
X009913Y038105D01*
X010043Y038235D01*
X010056Y038235D01*
X009677Y037863D01*
X009615Y037925D01*
X009498Y037925D01*
X009498Y038515D01*
X009498Y038522D01*
X009375Y038645D01*
X009201Y038645D01*
X008946Y038390D01*
X008946Y038402D01*
X008826Y038522D01*
X008703Y038645D01*
X008463Y038645D01*
X008289Y038645D01*
X008169Y038525D01*
X008106Y038462D01*
X007913Y038655D01*
X007739Y038655D01*
X007499Y038655D01*
X007376Y038532D01*
X007276Y038432D01*
X007043Y038665D01*
X006869Y038665D01*
X006683Y038665D01*
X006313Y038665D01*
X006139Y038665D01*
X006019Y038545D01*
X005896Y038422D01*
X005896Y038172D01*
X005896Y037998D01*
X005993Y037901D01*
X005894Y037798D01*
X005897Y037624D01*
X006023Y037503D01*
X006016Y037510D02*
X000606Y037510D01*
X000606Y037412D02*
X015706Y037412D01*
X015706Y037510D02*
X010410Y037510D01*
X010509Y037609D02*
X015706Y037609D01*
X015706Y037707D02*
X010528Y037707D01*
X010524Y037806D02*
X015706Y037806D01*
X015706Y037904D02*
X010426Y037904D01*
X010420Y038003D02*
X015706Y038003D01*
X015706Y038102D02*
X010520Y038102D01*
X010526Y038200D02*
X014229Y038200D01*
X014058Y038299D02*
X010526Y038299D01*
X010526Y038397D02*
X013942Y038397D01*
X013843Y038496D02*
X010442Y038496D01*
X010343Y038594D02*
X013778Y038594D01*
X013721Y038693D02*
X002590Y038693D01*
X002635Y038791D02*
X013676Y038791D01*
X013649Y038890D02*
X002662Y038890D01*
X002688Y038988D02*
X013623Y038988D01*
X013615Y039087D02*
X002696Y039087D01*
X002696Y039186D02*
X013615Y039186D01*
X013615Y039284D02*
X002696Y039284D01*
X002672Y039383D02*
X013639Y039383D01*
X013666Y039481D02*
X002645Y039481D01*
X002533Y038594D02*
X006068Y038594D01*
X005969Y038496D02*
X002468Y038496D01*
X002369Y038397D02*
X005896Y038397D01*
X005896Y038299D02*
X002253Y038299D01*
X002083Y038200D02*
X005896Y038200D01*
X005896Y038102D02*
X000606Y038102D01*
X000606Y038200D02*
X001229Y038200D01*
X001058Y038299D02*
X000606Y038299D01*
X000606Y038397D02*
X000942Y038397D01*
X000843Y038496D02*
X000606Y038496D01*
X000606Y038594D02*
X000778Y038594D01*
X000721Y038693D02*
X000606Y038693D01*
X000606Y038791D02*
X000676Y038791D01*
X000649Y038890D02*
X000606Y038890D01*
X000606Y038988D02*
X000623Y038988D01*
X000615Y039087D02*
X000606Y039087D01*
X000606Y039186D02*
X000615Y039186D01*
X000606Y039284D02*
X000615Y039284D01*
X000606Y039383D02*
X000639Y039383D01*
X000666Y039481D02*
X000606Y039481D01*
X000606Y038003D02*
X005896Y038003D01*
X005989Y037904D02*
X000606Y037904D01*
X000606Y037806D02*
X005902Y037806D01*
X005896Y037707D02*
X000606Y037707D01*
X000606Y037609D02*
X005913Y037609D01*
X006200Y037510D02*
X006503Y037510D01*
X006405Y037609D02*
X006295Y037609D01*
X006359Y036821D02*
X006952Y036821D01*
X006838Y036722D02*
X006474Y036722D01*
X006530Y036623D02*
X006781Y036623D01*
X006748Y036525D02*
X006563Y036525D01*
X006563Y036426D02*
X006748Y036426D01*
X006748Y036328D02*
X006563Y036328D01*
X006563Y036229D02*
X006748Y036229D01*
X006748Y036131D02*
X006563Y036131D01*
X006563Y036032D02*
X006748Y036032D01*
X006748Y035934D02*
X006563Y035934D01*
X006549Y035835D02*
X006762Y035835D01*
X006802Y035737D02*
X006509Y035737D01*
X006421Y035638D02*
X006890Y035638D01*
X006926Y035539D02*
X006386Y035539D01*
X006386Y035441D02*
X006926Y035441D01*
X006926Y035342D02*
X006386Y035342D01*
X006386Y035244D02*
X006926Y035244D01*
X006926Y035145D02*
X006386Y035145D01*
X006386Y035047D02*
X006926Y035047D01*
X006926Y034948D02*
X006386Y034948D01*
X006386Y034850D02*
X006484Y034850D01*
X006470Y034751D02*
X006386Y034751D01*
X006386Y034653D02*
X006470Y034653D01*
X006470Y034554D02*
X006386Y034554D01*
X006430Y034455D02*
X006490Y034455D01*
X007386Y034948D02*
X008926Y034948D01*
X008926Y035047D02*
X007386Y035047D01*
X007386Y035145D02*
X008926Y035145D01*
X008926Y035244D02*
X007386Y035244D01*
X007386Y035342D02*
X008926Y035342D01*
X008926Y035441D02*
X007386Y035441D01*
X007386Y035539D02*
X008926Y035539D01*
X008890Y035638D02*
X008421Y035638D01*
X008386Y035603D02*
X008501Y035718D01*
X008563Y035868D01*
X008563Y036545D01*
X008501Y036695D01*
X008386Y036809D01*
X008237Y036871D01*
X008074Y036871D01*
X007925Y036809D01*
X007810Y036695D01*
X007748Y036545D01*
X007748Y035868D01*
X007810Y035718D01*
X007925Y035603D01*
X008074Y035541D01*
X008237Y035541D01*
X008386Y035603D01*
X008509Y035737D02*
X008802Y035737D01*
X008762Y035835D02*
X008549Y035835D01*
X008563Y035934D02*
X008748Y035934D01*
X008748Y036032D02*
X008563Y036032D01*
X008563Y036131D02*
X008748Y036131D01*
X008748Y036229D02*
X008563Y036229D01*
X008563Y036328D02*
X008748Y036328D01*
X008748Y036426D02*
X008563Y036426D01*
X008563Y036525D02*
X008748Y036525D01*
X008781Y036623D02*
X008530Y036623D01*
X008474Y036722D02*
X008838Y036722D01*
X008952Y036821D02*
X008359Y036821D01*
X008283Y037510D02*
X008038Y037510D01*
X008136Y037609D02*
X008185Y037609D01*
X007952Y036821D02*
X007359Y036821D01*
X007474Y036722D02*
X007838Y036722D01*
X007781Y036623D02*
X007530Y036623D01*
X007563Y036525D02*
X007748Y036525D01*
X007748Y036426D02*
X007563Y036426D01*
X007563Y036328D02*
X007748Y036328D01*
X007748Y036229D02*
X007563Y036229D01*
X007563Y036131D02*
X007748Y036131D01*
X007748Y036032D02*
X007563Y036032D01*
X007563Y035934D02*
X007748Y035934D01*
X007762Y035835D02*
X007549Y035835D01*
X007509Y035737D02*
X007802Y035737D01*
X007890Y035638D02*
X007421Y035638D01*
X007622Y034850D02*
X008689Y034850D01*
X008675Y034751D02*
X007636Y034751D01*
X007636Y034653D02*
X008675Y034653D01*
X008675Y034554D02*
X007636Y034554D01*
X007617Y034455D02*
X008694Y034455D01*
X008696Y034357D02*
X007615Y034357D01*
X007636Y034258D02*
X008675Y034258D01*
X008675Y034160D02*
X007636Y034160D01*
X007636Y034061D02*
X008675Y034061D01*
X008687Y033963D02*
X007624Y033963D01*
X007607Y033864D02*
X008704Y033864D01*
X008675Y033766D02*
X007636Y033766D01*
X007636Y033667D02*
X008675Y033667D01*
X008675Y033569D02*
X007636Y033569D01*
X007631Y033470D02*
X008680Y033470D01*
X008711Y033371D02*
X007600Y033371D01*
X007636Y033273D02*
X008675Y033273D01*
X008675Y033174D02*
X007636Y033174D01*
X007636Y033076D02*
X008675Y033076D01*
X008675Y032977D02*
X007636Y032977D01*
X007593Y032879D02*
X008718Y032879D01*
X008656Y032655D02*
X007906Y031905D01*
X007906Y030405D01*
X007656Y030155D01*
X007887Y029922D02*
X007924Y029922D01*
X008156Y030155D02*
X008156Y031655D01*
X008656Y032155D01*
X009258Y032155D01*
X009258Y031655D02*
X008656Y031655D01*
X008406Y031405D01*
X008406Y030405D01*
X008656Y030155D01*
X008887Y029922D02*
X009551Y029922D01*
X009551Y030021D02*
X008955Y030021D01*
X008984Y030120D02*
X009551Y030120D01*
X009551Y030218D02*
X008984Y030218D01*
X008944Y030317D02*
X009551Y030317D01*
X009551Y030415D02*
X008860Y030415D01*
X008606Y030514D02*
X009551Y030514D01*
X009551Y030612D02*
X008606Y030612D01*
X008606Y030711D02*
X009551Y030711D01*
X009610Y030809D02*
X008606Y030809D01*
X008606Y030908D02*
X008748Y030908D01*
X008733Y030917D02*
X008767Y030897D01*
X008805Y030887D01*
X009249Y030887D01*
X009249Y031146D01*
X008675Y031146D01*
X008675Y031017D01*
X008685Y030979D01*
X008705Y030945D01*
X008733Y030917D01*
X008678Y031006D02*
X008606Y031006D01*
X008606Y031105D02*
X008675Y031105D01*
X008675Y031204D02*
X008606Y031204D01*
X008606Y031302D02*
X008677Y031302D01*
X008684Y031401D02*
X008746Y031401D01*
X009249Y031105D02*
X009267Y031105D01*
X009267Y031006D02*
X009249Y031006D01*
X009249Y030908D02*
X009267Y030908D01*
X009499Y029824D02*
X008811Y029824D01*
X008881Y029725D02*
X009401Y029725D01*
X009657Y029331D02*
X010730Y029331D01*
X010730Y029316D02*
X010740Y029278D01*
X010760Y029244D01*
X010788Y029216D01*
X010822Y029196D01*
X010860Y029186D01*
X011106Y029186D01*
X011106Y029798D01*
X011205Y029798D01*
X011205Y029186D01*
X011451Y029186D01*
X011489Y029196D01*
X011523Y029216D01*
X011551Y029244D01*
X011571Y029278D01*
X011581Y029316D01*
X011581Y029798D01*
X011206Y029798D01*
X011206Y029898D01*
X011581Y029898D01*
X011581Y030380D01*
X011571Y030418D01*
X011551Y030452D01*
X011523Y030480D01*
X011489Y030500D01*
X011451Y030510D01*
X011205Y030510D01*
X011205Y029898D01*
X011106Y029898D01*
X011106Y030510D01*
X010860Y030510D01*
X010822Y030500D01*
X010788Y030480D01*
X010760Y030452D01*
X010740Y030418D01*
X010730Y030380D01*
X010730Y029898D01*
X011105Y029898D01*
X011105Y029798D01*
X010730Y029798D01*
X010730Y029316D01*
X010771Y029233D02*
X008877Y029233D01*
X008876Y029134D02*
X012886Y029134D01*
X012886Y029036D02*
X008879Y029036D01*
X008879Y028839D02*
X012886Y028839D01*
X012886Y028937D02*
X008384Y028937D01*
X008287Y028937D02*
X007336Y028937D01*
X007336Y028955D02*
X007792Y028955D01*
X007792Y028954D01*
X008287Y028954D01*
X008287Y028857D01*
X007792Y028857D01*
X007792Y028855D01*
X007336Y028855D01*
X007336Y028955D01*
X007335Y029036D02*
X007236Y029036D01*
X007236Y029134D02*
X007335Y029134D01*
X007335Y029233D02*
X007236Y029233D01*
X007236Y029331D02*
X007335Y029331D01*
X007335Y029430D02*
X007236Y029430D01*
X007387Y029922D02*
X007424Y029922D01*
X007235Y028937D02*
X005914Y028937D01*
X005956Y028839D02*
X006410Y028839D01*
X006431Y028740D02*
X005956Y028740D01*
X005956Y028641D02*
X006470Y028641D01*
X006204Y028543D02*
X005956Y028543D01*
X005956Y028444D02*
X006118Y028444D01*
X005105Y028444D02*
X001886Y028444D01*
X001886Y028346D02*
X005105Y028346D01*
X005105Y028247D02*
X001886Y028247D01*
X001886Y028149D02*
X005105Y028149D01*
X005105Y028543D02*
X001886Y028543D01*
X001886Y028641D02*
X005105Y028641D01*
X005105Y028740D02*
X001886Y028740D01*
X001886Y028839D02*
X005105Y028839D01*
X005147Y028937D02*
X001886Y028937D01*
X000926Y028937D02*
X000606Y028937D01*
X000606Y028839D02*
X000926Y028839D01*
X000926Y028740D02*
X000606Y028740D01*
X000606Y028641D02*
X000926Y028641D01*
X000926Y028543D02*
X000606Y028543D01*
X000606Y028444D02*
X000926Y028444D01*
X000926Y028346D02*
X000606Y028346D01*
X000606Y028247D02*
X000926Y028247D01*
X000926Y028149D02*
X000606Y028149D01*
X000606Y028050D02*
X000926Y028050D01*
X000926Y027952D02*
X000606Y027952D01*
X000606Y027853D02*
X000926Y027853D01*
X000926Y027755D02*
X000606Y027755D01*
X000606Y027656D02*
X000926Y027656D01*
X000926Y027557D02*
X000606Y027557D01*
X000606Y027459D02*
X000926Y027459D01*
X000926Y027360D02*
X000606Y027360D01*
X000606Y027262D02*
X000926Y027262D01*
X000926Y027163D02*
X000606Y027163D01*
X000606Y027065D02*
X000926Y027065D01*
X000926Y026966D02*
X000606Y026966D01*
X000606Y026868D02*
X000926Y026868D01*
X000926Y026769D02*
X000606Y026769D01*
X000606Y026671D02*
X000926Y026671D01*
X000926Y026572D02*
X000606Y026572D01*
X000606Y026473D02*
X000926Y026473D01*
X000926Y026375D02*
X000606Y026375D01*
X000606Y026276D02*
X000926Y026276D01*
X000926Y026178D02*
X000606Y026178D01*
X000606Y026079D02*
X000926Y026079D01*
X000926Y025981D02*
X000606Y025981D01*
X000606Y025882D02*
X000926Y025882D01*
X000926Y025784D02*
X000606Y025784D01*
X000606Y025685D02*
X000926Y025685D01*
X000926Y025587D02*
X000606Y025587D01*
X000606Y025488D02*
X000926Y025488D01*
X000926Y025389D02*
X000606Y025389D01*
X000606Y025291D02*
X000926Y025291D01*
X000926Y025192D02*
X000606Y025192D01*
X000606Y025094D02*
X000926Y025094D01*
X000926Y024995D02*
X000606Y024995D01*
X000606Y024897D02*
X000926Y024897D01*
X000926Y024798D02*
X000606Y024798D01*
X000606Y024700D02*
X000926Y024700D01*
X000926Y024601D02*
X000606Y024601D01*
X000606Y024503D02*
X000926Y024503D01*
X000926Y024404D02*
X000606Y024404D01*
X000606Y024306D02*
X000926Y024306D01*
X000926Y024207D02*
X000606Y024207D01*
X000606Y024108D02*
X000926Y024108D01*
X000926Y024010D02*
X000606Y024010D01*
X000606Y023911D02*
X000926Y023911D01*
X000926Y023813D02*
X000606Y023813D01*
X000606Y023714D02*
X000926Y023714D01*
X000926Y023616D02*
X000606Y023616D01*
X000606Y023517D02*
X000926Y023517D01*
X000926Y023419D02*
X000606Y023419D01*
X000606Y023320D02*
X000926Y023320D01*
X000926Y023222D02*
X000606Y023222D01*
X000606Y023123D02*
X000926Y023123D01*
X000926Y023024D02*
X000606Y023024D01*
X000606Y022926D02*
X000926Y022926D01*
X000926Y022827D02*
X000606Y022827D01*
X000606Y022729D02*
X000926Y022729D01*
X000926Y022630D02*
X000606Y022630D01*
X000606Y022532D02*
X000926Y022532D01*
X000926Y022433D02*
X000606Y022433D01*
X000606Y022335D02*
X000926Y022335D01*
X000926Y022236D02*
X000606Y022236D01*
X000606Y022138D02*
X000926Y022138D01*
X000926Y022039D02*
X000606Y022039D01*
X000606Y021940D02*
X000926Y021940D01*
X000926Y021842D02*
X000606Y021842D01*
X000606Y021743D02*
X000926Y021743D01*
X000926Y021645D02*
X000606Y021645D01*
X000606Y021546D02*
X000926Y021546D01*
X000926Y021448D02*
X000606Y021448D01*
X000606Y021349D02*
X000926Y021349D01*
X000926Y021251D02*
X000606Y021251D01*
X000606Y021152D02*
X000926Y021152D01*
X000926Y021054D02*
X000606Y021054D01*
X000606Y020955D02*
X000926Y020955D01*
X000926Y020856D02*
X000606Y020856D01*
X000606Y020758D02*
X000926Y020758D01*
X000926Y020659D02*
X000606Y020659D01*
X000606Y020561D02*
X000926Y020561D01*
X000926Y020462D02*
X000606Y020462D01*
X000606Y020364D02*
X000926Y020364D01*
X000926Y020265D02*
X000606Y020265D01*
X000606Y020167D02*
X000926Y020167D01*
X000926Y020068D02*
X000606Y020068D01*
X000606Y019970D02*
X000926Y019970D01*
X000926Y019871D02*
X000606Y019871D01*
X000606Y019773D02*
X000926Y019773D01*
X000926Y019674D02*
X000606Y019674D01*
X000606Y019575D02*
X000926Y019575D01*
X000926Y019477D02*
X000606Y019477D01*
X000606Y019378D02*
X000926Y019378D01*
X000926Y019280D02*
X000606Y019280D01*
X000606Y019181D02*
X000926Y019181D01*
X000926Y019083D02*
X000606Y019083D01*
X000606Y018984D02*
X000926Y018984D01*
X000926Y018886D02*
X000606Y018886D01*
X000606Y018787D02*
X000926Y018787D01*
X000926Y018689D02*
X000606Y018689D01*
X000606Y018590D02*
X000926Y018590D01*
X000926Y018491D02*
X000606Y018491D01*
X000606Y018393D02*
X000926Y018393D01*
X000926Y018294D02*
X000606Y018294D01*
X000606Y018196D02*
X000926Y018196D01*
X000926Y018097D02*
X000606Y018097D01*
X000606Y017999D02*
X000926Y017999D01*
X000926Y017900D02*
X000606Y017900D01*
X000606Y017802D02*
X000926Y017802D01*
X000926Y017703D02*
X000606Y017703D01*
X000606Y017605D02*
X000926Y017605D01*
X000926Y017506D02*
X000606Y017506D01*
X000606Y017407D02*
X000926Y017407D01*
X000926Y017309D02*
X000606Y017309D01*
X000606Y017210D02*
X000926Y017210D01*
X000926Y017112D02*
X000606Y017112D01*
X000606Y017013D02*
X000926Y017013D01*
X000926Y016915D02*
X000606Y016915D01*
X000606Y016816D02*
X000926Y016816D01*
X000926Y016718D02*
X000606Y016718D01*
X000606Y016619D02*
X000926Y016619D01*
X000926Y016521D02*
X000606Y016521D01*
X000606Y016422D02*
X000926Y016422D01*
X000926Y016324D02*
X000606Y016324D01*
X000606Y016225D02*
X000926Y016225D01*
X000926Y016126D02*
X000606Y016126D01*
X000606Y016028D02*
X000926Y016028D01*
X000926Y015929D02*
X000606Y015929D01*
X000606Y015831D02*
X000926Y015831D01*
X000926Y015732D02*
X000606Y015732D01*
X000606Y015634D02*
X000926Y015634D01*
X000926Y015535D02*
X000606Y015535D01*
X000606Y015437D02*
X000926Y015437D01*
X000926Y015338D02*
X000606Y015338D01*
X000606Y015240D02*
X000926Y015240D01*
X000926Y015141D02*
X000606Y015141D01*
X000606Y015042D02*
X000926Y015042D01*
X000926Y014944D02*
X000606Y014944D01*
X000606Y014845D02*
X000926Y014845D01*
X000926Y014747D02*
X000606Y014747D01*
X000606Y014648D02*
X000926Y014648D01*
X000926Y014550D02*
X000606Y014550D01*
X000606Y014451D02*
X000926Y014451D01*
X000926Y014353D02*
X000606Y014353D01*
X000606Y014254D02*
X000926Y014254D01*
X000926Y014156D02*
X000606Y014156D01*
X000606Y014057D02*
X000926Y014057D01*
X000926Y013958D02*
X000606Y013958D01*
X000606Y013860D02*
X000926Y013860D01*
X000926Y013761D02*
X000606Y013761D01*
X000606Y013663D02*
X000926Y013663D01*
X000926Y013564D02*
X000606Y013564D01*
X000606Y013466D02*
X000926Y013466D01*
X000926Y013367D02*
X000606Y013367D01*
X000606Y013269D02*
X000926Y013269D01*
X000926Y013170D02*
X000606Y013170D01*
X000606Y013072D02*
X000926Y013072D01*
X000926Y012973D02*
X000606Y012973D01*
X000606Y012874D02*
X000926Y012874D01*
X000926Y012776D02*
X000606Y012776D01*
X000606Y012677D02*
X000926Y012677D01*
X000926Y012579D02*
X000606Y012579D01*
X000606Y012480D02*
X000926Y012480D01*
X000926Y012382D02*
X000606Y012382D01*
X000606Y012283D02*
X000926Y012283D01*
X000926Y012185D02*
X000606Y012185D01*
X000606Y012086D02*
X000926Y012086D01*
X000998Y011988D02*
X000606Y011988D01*
X000606Y011889D02*
X001096Y011889D01*
X001195Y011791D02*
X000606Y011791D01*
X000606Y011692D02*
X001293Y011692D01*
X001392Y011593D02*
X000606Y011593D01*
X000606Y011495D02*
X001491Y011495D01*
X001589Y011396D02*
X000606Y011396D01*
X000606Y011298D02*
X001688Y011298D01*
X001786Y011199D02*
X000606Y011199D01*
X000606Y011101D02*
X001885Y011101D01*
X001983Y011002D02*
X000606Y011002D01*
X000606Y010904D02*
X002082Y010904D01*
X002180Y010805D02*
X000606Y010805D01*
X000606Y010707D02*
X002279Y010707D01*
X002377Y010608D02*
X000606Y010608D01*
X000606Y010509D02*
X002476Y010509D01*
X002575Y010411D02*
X000606Y010411D01*
X000606Y010312D02*
X002673Y010312D01*
X002772Y010214D02*
X000606Y010214D01*
X000606Y010115D02*
X002870Y010115D01*
X002969Y010017D02*
X000606Y010017D01*
X000606Y009918D02*
X003067Y009918D01*
X003166Y009820D02*
X000606Y009820D01*
X000606Y009721D02*
X003264Y009721D01*
X003363Y009623D02*
X000606Y009623D01*
X000606Y009524D02*
X003461Y009524D01*
X003560Y009425D02*
X000606Y009425D01*
X000606Y009327D02*
X003659Y009327D01*
X003757Y009228D02*
X000606Y009228D01*
X000606Y009130D02*
X003856Y009130D01*
X003926Y009031D02*
X000606Y009031D01*
X000606Y008933D02*
X003926Y008933D01*
X003926Y008834D02*
X000606Y008834D01*
X000606Y008736D02*
X003926Y008736D01*
X003926Y008637D02*
X000606Y008637D01*
X000606Y008539D02*
X002606Y008539D01*
X002601Y008537D02*
X002474Y008410D01*
X002406Y008245D01*
X002406Y008066D01*
X002474Y007900D01*
X002601Y007774D01*
X002766Y007705D01*
X003545Y007705D01*
X003710Y007774D01*
X003837Y007900D01*
X003906Y008066D01*
X003906Y008245D01*
X003837Y008410D01*
X003710Y008537D01*
X003545Y008605D01*
X002766Y008605D01*
X002601Y008537D01*
X002504Y008440D02*
X000606Y008440D01*
X000606Y008341D02*
X002446Y008341D01*
X002406Y008243D02*
X000606Y008243D01*
X000606Y008144D02*
X002406Y008144D01*
X002414Y008046D02*
X000606Y008046D01*
X000606Y007947D02*
X002455Y007947D01*
X002526Y007849D02*
X000606Y007849D01*
X000606Y007750D02*
X002657Y007750D01*
X002683Y007572D02*
X002620Y007540D01*
X002562Y007498D01*
X002512Y007448D01*
X002471Y007391D01*
X002439Y007328D01*
X002417Y007260D01*
X002408Y007205D01*
X003105Y007205D01*
X003105Y007105D01*
X002408Y007105D01*
X002417Y007050D01*
X002439Y006982D01*
X002471Y006919D01*
X002512Y006862D01*
X002562Y006812D01*
X002620Y006770D01*
X002683Y006738D01*
X002750Y006716D01*
X002820Y006705D01*
X003106Y006705D01*
X003106Y007105D01*
X003206Y007105D01*
X003206Y007205D01*
X003903Y007205D01*
X003894Y007260D01*
X003873Y007328D01*
X003840Y007391D01*
X003799Y007448D01*
X003749Y007498D01*
X003691Y007540D01*
X003628Y007572D01*
X003561Y007594D01*
X003491Y007605D01*
X003206Y007605D01*
X003206Y007205D01*
X003106Y007205D01*
X003106Y007605D01*
X002820Y007605D01*
X002750Y007594D01*
X002683Y007572D01*
X002646Y007553D02*
X000606Y007553D01*
X000606Y007455D02*
X002519Y007455D01*
X002453Y007356D02*
X000606Y007356D01*
X000606Y007258D02*
X002416Y007258D01*
X002415Y007060D02*
X000606Y007060D01*
X000606Y006962D02*
X002449Y006962D01*
X002511Y006863D02*
X000606Y006863D01*
X000606Y006765D02*
X002630Y006765D01*
X002676Y006568D02*
X000606Y006568D01*
X000606Y006666D02*
X003926Y006666D01*
X003926Y006568D02*
X003635Y006568D01*
X003710Y006537D02*
X003545Y006605D01*
X002766Y006605D01*
X002601Y006537D01*
X002474Y006410D01*
X002406Y006245D01*
X002406Y006066D01*
X002474Y005900D01*
X002601Y005774D01*
X002766Y005705D01*
X003545Y005705D01*
X003710Y005774D01*
X003837Y005900D01*
X003906Y006066D01*
X003906Y006245D01*
X003837Y006410D01*
X003710Y006537D01*
X003778Y006469D02*
X003926Y006469D01*
X003926Y006371D02*
X003853Y006371D01*
X003894Y006272D02*
X003926Y006272D01*
X003926Y006174D02*
X003906Y006174D01*
X003906Y006075D02*
X003926Y006075D01*
X003869Y005976D02*
X004009Y005976D01*
X004052Y005878D02*
X003815Y005878D01*
X003716Y005779D02*
X004052Y005779D01*
X004052Y005681D02*
X000606Y005681D01*
X000606Y005779D02*
X002595Y005779D01*
X002496Y005878D02*
X000606Y005878D01*
X000606Y005976D02*
X002442Y005976D01*
X002406Y006075D02*
X000606Y006075D01*
X000606Y006174D02*
X002406Y006174D01*
X002417Y006272D02*
X000606Y006272D01*
X000606Y006371D02*
X002458Y006371D01*
X002533Y006469D02*
X000606Y006469D01*
X000606Y007159D02*
X003105Y007159D01*
X003106Y007258D02*
X003206Y007258D01*
X003206Y007356D02*
X003106Y007356D01*
X003106Y007455D02*
X003206Y007455D01*
X003206Y007553D02*
X003106Y007553D01*
X003206Y007159D02*
X003926Y007159D01*
X003903Y007105D02*
X003206Y007105D01*
X003206Y006705D01*
X003491Y006705D01*
X003561Y006716D01*
X003628Y006738D01*
X003691Y006770D01*
X003749Y006812D01*
X003799Y006862D01*
X003840Y006919D01*
X003873Y006982D01*
X003894Y007050D01*
X003903Y007105D01*
X003896Y007060D02*
X003926Y007060D01*
X003926Y006962D02*
X003862Y006962D01*
X003800Y006863D02*
X003926Y006863D01*
X003926Y006765D02*
X003681Y006765D01*
X003206Y006765D02*
X003106Y006765D01*
X003106Y006863D02*
X003206Y006863D01*
X003206Y006962D02*
X003106Y006962D01*
X003106Y007060D02*
X003206Y007060D01*
X003666Y007553D02*
X003926Y007553D01*
X003926Y007455D02*
X003792Y007455D01*
X003858Y007356D02*
X003926Y007356D01*
X003926Y007258D02*
X003895Y007258D01*
X003926Y007652D02*
X000606Y007652D01*
X000606Y005582D02*
X004052Y005582D01*
X004052Y005484D02*
X000606Y005484D01*
X000606Y005385D02*
X004052Y005385D01*
X004052Y005287D02*
X000606Y005287D01*
X000606Y005188D02*
X004052Y005188D01*
X003953Y005090D02*
X000606Y005090D01*
X000606Y004991D02*
X003876Y004991D01*
X003876Y004892D02*
X000606Y004892D01*
X000606Y004794D02*
X003876Y004794D01*
X003876Y004695D02*
X000606Y004695D01*
X000606Y004597D02*
X003876Y004597D01*
X003876Y004498D02*
X000606Y004498D01*
X000606Y004400D02*
X003876Y004400D01*
X003876Y004301D02*
X000606Y004301D01*
X003654Y007750D02*
X003926Y007750D01*
X003926Y007849D02*
X003786Y007849D01*
X003857Y007947D02*
X003926Y007947D01*
X003926Y008046D02*
X003897Y008046D01*
X003906Y008144D02*
X003926Y008144D01*
X003926Y008243D02*
X003906Y008243D01*
X003926Y008341D02*
X003865Y008341D01*
X003807Y008440D02*
X003926Y008440D01*
X003926Y008539D02*
X003706Y008539D01*
X004513Y009623D02*
X007714Y009623D01*
X007813Y009721D02*
X004415Y009721D01*
X004612Y009524D02*
X006395Y009524D01*
X006376Y009425D02*
X004710Y009425D01*
X004809Y009327D02*
X006376Y009327D01*
X006376Y009228D02*
X004886Y009228D01*
X005826Y008440D02*
X007456Y008440D01*
X007456Y008341D02*
X005934Y008341D01*
X005975Y008243D02*
X007456Y008243D01*
X007082Y008144D02*
X007064Y008144D01*
X007064Y008046D02*
X007082Y008046D01*
X007082Y007947D02*
X007064Y007947D01*
X007073Y007405D02*
X006406Y007405D01*
X006694Y007159D02*
X004886Y007159D01*
X004886Y006272D02*
X005349Y006272D01*
X005327Y006174D02*
X004962Y006174D01*
X005061Y006075D02*
X005333Y006075D01*
X005374Y005976D02*
X005159Y005976D01*
X005673Y004597D02*
X005829Y004597D01*
X005777Y004695D02*
X005771Y004695D01*
X005931Y004498D02*
X005574Y004498D01*
X006380Y004498D02*
X006931Y004498D01*
X006829Y004597D02*
X006482Y004597D01*
X006534Y004695D02*
X006777Y004695D01*
X006748Y004794D02*
X006563Y004794D01*
X006563Y004892D02*
X006748Y004892D01*
X006748Y004991D02*
X006563Y004991D01*
X006563Y005090D02*
X006748Y005090D01*
X006748Y005188D02*
X006563Y005188D01*
X006563Y005287D02*
X006748Y005287D01*
X006748Y005385D02*
X006563Y005385D01*
X006546Y005484D02*
X006752Y005484D01*
X006653Y005582D02*
X006505Y005582D01*
X006406Y006905D02*
X007073Y006905D01*
X007467Y006174D02*
X008844Y006174D01*
X009238Y006905D02*
X009906Y006905D01*
X010156Y007405D02*
X009238Y007405D01*
X009238Y007905D02*
X009238Y008322D01*
X008906Y008655D01*
X008406Y008655D01*
X008156Y008905D01*
X008078Y009228D02*
X007935Y009228D01*
X007705Y009918D02*
X007606Y009918D01*
X007606Y010017D02*
X007705Y010017D01*
X007705Y010115D02*
X007606Y010115D01*
X007255Y009918D02*
X007056Y009918D01*
X007101Y010017D02*
X007210Y010017D01*
X007210Y010115D02*
X007101Y010115D01*
X007101Y010214D02*
X007210Y010214D01*
X007210Y010411D02*
X007101Y010411D01*
X007101Y010509D02*
X007210Y010509D01*
X007228Y010608D02*
X007083Y010608D01*
X007096Y010707D02*
X007215Y010707D01*
X007210Y010805D02*
X007101Y010805D01*
X007101Y010904D02*
X007210Y010904D01*
X007210Y011002D02*
X007101Y011002D01*
X007101Y011101D02*
X007210Y011101D01*
X007210Y011199D02*
X007101Y011199D01*
X007101Y011298D02*
X007210Y011298D01*
X007259Y011396D02*
X007052Y011396D01*
X006856Y011495D02*
X007456Y011495D01*
X007456Y011593D02*
X006856Y011593D01*
X006856Y011692D02*
X007456Y011692D01*
X007456Y011791D02*
X006856Y011791D01*
X006982Y011889D02*
X007329Y011889D01*
X007291Y011988D02*
X007021Y011988D01*
X007021Y012086D02*
X007291Y012086D01*
X007291Y012185D02*
X007021Y012185D01*
X007021Y012283D02*
X007291Y012283D01*
X007291Y012382D02*
X007021Y012382D01*
X007021Y012480D02*
X007291Y012480D01*
X007291Y012579D02*
X007021Y012579D01*
X007021Y012677D02*
X007291Y012677D01*
X007291Y012776D02*
X007021Y012776D01*
X006988Y012874D02*
X007323Y012874D01*
X007376Y012973D02*
X006936Y012973D01*
X006976Y013072D02*
X007335Y013072D01*
X007327Y013170D02*
X006984Y013170D01*
X006964Y013269D02*
X007347Y013269D01*
X007403Y013367D02*
X006908Y013367D01*
X006656Y013155D02*
X006656Y012385D01*
X006656Y011029D01*
X006323Y012874D02*
X004601Y012874D01*
X004601Y012973D02*
X006376Y012973D01*
X006335Y013072D02*
X004597Y013072D01*
X004560Y013170D02*
X006327Y013170D01*
X006347Y013269D02*
X004601Y013269D01*
X004601Y013367D02*
X006403Y013367D01*
X007656Y013155D02*
X007656Y012385D01*
X007656Y011029D01*
X006831Y009031D02*
X006732Y009031D01*
X006732Y008933D02*
X006831Y008933D01*
X006831Y008834D02*
X006732Y008834D01*
X006732Y008736D02*
X006831Y008736D01*
X007122Y008736D02*
X007186Y008736D01*
X006688Y008144D02*
X005984Y008144D01*
X007380Y004498D02*
X007931Y004498D01*
X007829Y004597D02*
X007482Y004597D01*
X007534Y004695D02*
X007777Y004695D01*
X007748Y004794D02*
X007563Y004794D01*
X007563Y004892D02*
X007748Y004892D01*
X007748Y004991D02*
X007563Y004991D01*
X007563Y005090D02*
X007748Y005090D01*
X007748Y005188D02*
X007563Y005188D01*
X007563Y005287D02*
X007748Y005287D01*
X007748Y005385D02*
X007563Y005385D01*
X007546Y005484D02*
X007765Y005484D01*
X007806Y005582D02*
X007505Y005582D01*
X007412Y005681D02*
X007899Y005681D01*
X007856Y008243D02*
X007867Y008243D01*
X009656Y011029D02*
X009656Y012385D01*
X009656Y013155D01*
X010021Y012677D02*
X010710Y012677D01*
X010710Y012579D02*
X010021Y012579D01*
X010021Y012480D02*
X010717Y012480D01*
X010816Y012382D02*
X010021Y012382D01*
X010710Y013663D02*
X004601Y013663D01*
X004601Y013761D02*
X010710Y013761D01*
X010723Y013860D02*
X004588Y013860D01*
X004356Y013958D02*
X010956Y013958D01*
X010956Y014057D02*
X004356Y014057D01*
X004356Y014156D02*
X010956Y014156D01*
X010956Y014254D02*
X004356Y014254D01*
X004356Y014353D02*
X010956Y014353D01*
X010769Y014451D02*
X004542Y014451D01*
X004542Y014550D02*
X010769Y014550D01*
X010769Y014648D02*
X004542Y014648D01*
X004542Y014747D02*
X010769Y014747D01*
X010769Y014845D02*
X004542Y014845D01*
X004542Y014944D02*
X010769Y014944D01*
X010772Y015042D02*
X004539Y015042D01*
X004511Y015240D02*
X010800Y015240D01*
X011156Y014742D02*
X011156Y013529D01*
X010101Y010214D02*
X012389Y010214D01*
X012291Y010115D02*
X010101Y010115D01*
X010101Y010017D02*
X012192Y010017D01*
X011699Y009524D02*
X009924Y009524D01*
X009935Y009425D02*
X009962Y009425D01*
X013531Y018530D02*
X013531Y025030D01*
X013031Y025530D01*
X011156Y025530D01*
X010781Y025155D01*
X010781Y024280D01*
X010656Y024155D01*
X010156Y024155D01*
X009406Y024905D01*
X009406Y025466D01*
X009157Y025981D02*
X009154Y025981D01*
X008875Y028050D02*
X012633Y028050D01*
X012516Y027952D02*
X007902Y027952D01*
X008881Y028149D02*
X012886Y028149D01*
X012886Y028247D02*
X008881Y028247D01*
X008881Y028346D02*
X012886Y028346D01*
X012886Y028444D02*
X008881Y028444D01*
X008881Y028543D02*
X012886Y028543D01*
X012886Y028641D02*
X008864Y028641D01*
X008879Y028740D02*
X012886Y028740D01*
X012886Y029233D02*
X011540Y029233D01*
X011581Y029331D02*
X012886Y029331D01*
X012783Y029430D02*
X011581Y029430D01*
X011581Y029528D02*
X012716Y029528D01*
X012716Y029627D02*
X011581Y029627D01*
X011581Y029725D02*
X012716Y029725D01*
X012716Y029824D02*
X011206Y029824D01*
X011205Y029922D02*
X011106Y029922D01*
X011105Y029824D02*
X010011Y029824D01*
X010011Y029922D02*
X010730Y029922D01*
X010730Y030021D02*
X010011Y030021D01*
X010011Y030120D02*
X010730Y030120D01*
X010730Y030218D02*
X010011Y030218D01*
X010011Y030317D02*
X010730Y030317D01*
X010740Y030415D02*
X010011Y030415D01*
X010011Y030514D02*
X014426Y030514D01*
X014426Y030612D02*
X010063Y030612D01*
X010162Y030711D02*
X014426Y030711D01*
X014426Y030809D02*
X011502Y030809D01*
X011581Y030908D02*
X014426Y030908D01*
X014426Y031006D02*
X011581Y031006D01*
X011581Y031105D02*
X012801Y031105D01*
X012716Y031204D02*
X011581Y031204D01*
X011581Y031795D02*
X012716Y031795D01*
X012796Y031893D02*
X011581Y031893D01*
X011581Y031992D02*
X013994Y031992D01*
X014092Y031893D02*
X013515Y031893D01*
X013595Y031795D02*
X014191Y031795D01*
X014289Y031696D02*
X013595Y031696D01*
X013595Y031598D02*
X014388Y031598D01*
X014426Y031499D02*
X013595Y031499D01*
X013595Y031401D02*
X014426Y031401D01*
X014426Y031302D02*
X013595Y031302D01*
X013595Y031204D02*
X014426Y031204D01*
X014426Y031105D02*
X013511Y031105D01*
X013895Y032090D02*
X011527Y032090D01*
X011473Y032189D02*
X013796Y032189D01*
X013698Y032288D02*
X011484Y032288D01*
X011467Y032386D02*
X013599Y032386D01*
X013501Y032485D02*
X011416Y032485D01*
X011282Y032583D02*
X013402Y032583D01*
X013304Y032682D02*
X009841Y032682D01*
X009841Y032780D02*
X013205Y032780D01*
X013107Y032879D02*
X009798Y032879D01*
X009841Y032583D02*
X011029Y032583D01*
X010896Y032485D02*
X009841Y032485D01*
X009790Y032386D02*
X010844Y032386D01*
X010827Y032288D02*
X009841Y032288D01*
X009841Y032189D02*
X010838Y032189D01*
X010784Y032090D02*
X009841Y032090D01*
X009841Y031992D02*
X010730Y031992D01*
X010730Y031893D02*
X009783Y031893D01*
X009841Y031795D02*
X010730Y031795D01*
X010730Y031696D02*
X009841Y031696D01*
X009841Y031598D02*
X010398Y031598D01*
X010299Y031499D02*
X009841Y031499D01*
X009770Y031401D02*
X010201Y031401D01*
X010102Y031302D02*
X009839Y031302D01*
X009841Y031204D02*
X010004Y031204D01*
X009905Y031105D02*
X009841Y031105D01*
X010260Y030809D02*
X010809Y030809D01*
X010730Y030908D02*
X010359Y030908D01*
X010457Y031006D02*
X010730Y031006D01*
X010730Y031105D02*
X010556Y031105D01*
X010654Y031204D02*
X010730Y031204D01*
X011106Y030415D02*
X011205Y030415D01*
X011205Y030317D02*
X011106Y030317D01*
X011106Y030218D02*
X011205Y030218D01*
X011205Y030120D02*
X011106Y030120D01*
X011106Y030021D02*
X011205Y030021D01*
X011205Y029725D02*
X011106Y029725D01*
X011106Y029627D02*
X011205Y029627D01*
X011205Y029528D02*
X011106Y029528D01*
X011106Y029430D02*
X011205Y029430D01*
X011205Y029331D02*
X011106Y029331D01*
X011106Y029233D02*
X011205Y029233D01*
X011581Y029922D02*
X012716Y029922D01*
X012716Y030021D02*
X011581Y030021D01*
X011581Y030120D02*
X012716Y030120D01*
X013426Y029331D02*
X014426Y029331D01*
X014426Y029233D02*
X013426Y029233D01*
X013426Y029134D02*
X014426Y029134D01*
X014426Y029036D02*
X013426Y029036D01*
X013426Y028937D02*
X014426Y028937D01*
X014426Y028839D02*
X013426Y028839D01*
X013426Y028740D02*
X014426Y028740D01*
X014426Y028641D02*
X013426Y028641D01*
X013426Y028543D02*
X014426Y028543D01*
X014426Y028444D02*
X013426Y028444D01*
X013426Y028346D02*
X014426Y028346D01*
X014426Y028247D02*
X013426Y028247D01*
X013426Y028149D02*
X014426Y028149D01*
X014426Y028050D02*
X013678Y028050D01*
X013795Y027952D02*
X014426Y027952D01*
X014426Y027853D02*
X013861Y027853D01*
X013901Y027755D02*
X014426Y027755D01*
X014426Y027656D02*
X013906Y027656D01*
X013902Y027557D02*
X014426Y027557D01*
X014426Y027459D02*
X013861Y027459D01*
X013797Y027360D02*
X014426Y027360D01*
X014426Y027262D02*
X013682Y027262D01*
X013903Y026605D02*
X013206Y026605D01*
X013206Y026205D01*
X013491Y026205D01*
X013561Y026216D01*
X013628Y026238D01*
X013691Y026270D01*
X013749Y026312D01*
X013799Y026362D01*
X013840Y026419D01*
X013873Y026482D01*
X013894Y026550D01*
X013903Y026605D01*
X013898Y026572D02*
X014426Y026572D01*
X014426Y026473D02*
X013868Y026473D01*
X013808Y026375D02*
X014426Y026375D01*
X014426Y026276D02*
X013700Y026276D01*
X013206Y026276D02*
X013106Y026276D01*
X013106Y026375D02*
X013206Y026375D01*
X013206Y026473D02*
X013106Y026473D01*
X013106Y026572D02*
X013206Y026572D01*
X013206Y026868D02*
X013106Y026868D01*
X013106Y026966D02*
X013206Y026966D01*
X013206Y027065D02*
X013106Y027065D01*
X013528Y029430D02*
X014426Y029430D01*
X014426Y029528D02*
X013595Y029528D01*
X013595Y029627D02*
X014426Y029627D01*
X014426Y029725D02*
X013595Y029725D01*
X013595Y029824D02*
X014426Y029824D01*
X014426Y029922D02*
X013595Y029922D01*
X013595Y030021D02*
X014426Y030021D01*
X014426Y030120D02*
X013595Y030120D01*
X014426Y030218D02*
X011581Y030218D01*
X011581Y030317D02*
X014426Y030317D01*
X014426Y030415D02*
X011572Y030415D01*
X010730Y029725D02*
X010011Y029725D01*
X009953Y029627D02*
X010730Y029627D01*
X010730Y029528D02*
X009854Y029528D01*
X009755Y029430D02*
X010730Y029430D01*
X009258Y032655D02*
X008656Y032655D01*
X008498Y032780D02*
X007688Y032780D01*
X007787Y032682D02*
X008399Y032682D01*
X008301Y032583D02*
X007856Y032583D01*
X007856Y032485D02*
X008202Y032485D01*
X008104Y032386D02*
X007856Y032386D01*
X007856Y032288D02*
X008005Y032288D01*
X007907Y032189D02*
X007856Y032189D01*
X009386Y034948D02*
X009926Y034948D01*
X009926Y034850D02*
X009827Y034850D01*
X009841Y034751D02*
X009926Y034751D01*
X009926Y034653D02*
X009841Y034653D01*
X009841Y034554D02*
X009926Y034554D01*
X009881Y034455D02*
X009822Y034455D01*
X010038Y033963D02*
X015706Y033963D01*
X015706Y034061D02*
X010137Y034061D01*
X010236Y034160D02*
X015706Y034160D01*
X015706Y034258D02*
X010334Y034258D01*
X010386Y034357D02*
X015706Y034357D01*
X015706Y034455D02*
X010386Y034455D01*
X010386Y034554D02*
X015706Y034554D01*
X015706Y034653D02*
X010386Y034653D01*
X010386Y034751D02*
X015706Y034751D01*
X015706Y034850D02*
X010386Y034850D01*
X010386Y034948D02*
X015706Y034948D01*
X015706Y035047D02*
X010386Y035047D01*
X010386Y035145D02*
X015706Y035145D01*
X015706Y035244D02*
X010386Y035244D01*
X010386Y035342D02*
X015706Y035342D01*
X015706Y035441D02*
X010386Y035441D01*
X010386Y035539D02*
X015706Y035539D01*
X015706Y035638D02*
X010421Y035638D01*
X010509Y035737D02*
X015706Y035737D01*
X015706Y035835D02*
X010549Y035835D01*
X010563Y035934D02*
X015706Y035934D01*
X015706Y036032D02*
X010563Y036032D01*
X010563Y036131D02*
X015706Y036131D01*
X015706Y036229D02*
X010563Y036229D01*
X010563Y036328D02*
X015706Y036328D01*
X015706Y036426D02*
X010563Y036426D01*
X010563Y036525D02*
X015706Y036525D01*
X015706Y036623D02*
X010530Y036623D01*
X010474Y036722D02*
X015706Y036722D01*
X015706Y036821D02*
X010359Y036821D01*
X009952Y036821D02*
X009359Y036821D01*
X009474Y036722D02*
X009838Y036722D01*
X009781Y036623D02*
X009530Y036623D01*
X009563Y036525D02*
X009748Y036525D01*
X009748Y036426D02*
X009563Y036426D01*
X009563Y036328D02*
X009748Y036328D01*
X009748Y036229D02*
X009563Y036229D01*
X009563Y036131D02*
X009748Y036131D01*
X009748Y036032D02*
X009563Y036032D01*
X009563Y035934D02*
X009748Y035934D01*
X009762Y035835D02*
X009549Y035835D01*
X009509Y035737D02*
X009802Y035737D01*
X009890Y035638D02*
X009421Y035638D01*
X009386Y035539D02*
X009926Y035539D01*
X009926Y035441D02*
X009386Y035441D01*
X009386Y035342D02*
X009926Y035342D01*
X009926Y035244D02*
X009386Y035244D01*
X009386Y035145D02*
X009926Y035145D01*
X009926Y035047D02*
X009386Y035047D01*
X009620Y037510D02*
X009732Y037510D01*
X009719Y037904D02*
X009636Y037904D01*
X009498Y038003D02*
X009819Y038003D01*
X009920Y038102D02*
X009498Y038102D01*
X009498Y038200D02*
X009644Y038200D01*
X009616Y038299D02*
X009498Y038299D01*
X009498Y038397D02*
X009616Y038397D01*
X009709Y038496D02*
X009498Y038496D01*
X009498Y038515D02*
X009498Y038515D01*
X009426Y038594D02*
X009808Y038594D01*
X010008Y038200D02*
X010021Y038200D01*
X009150Y038594D02*
X008753Y038594D01*
X008852Y038496D02*
X009052Y038496D01*
X008953Y038397D02*
X008946Y038397D01*
X008852Y037609D02*
X008806Y037609D01*
X008708Y037510D02*
X008951Y037510D01*
X008238Y038594D02*
X007973Y038594D01*
X008072Y038496D02*
X008139Y038496D01*
X007438Y038594D02*
X007113Y038594D01*
X007212Y038496D02*
X007339Y038496D01*
X007245Y037707D02*
X007246Y037707D01*
X007265Y037609D02*
X007156Y037609D01*
X007062Y037510D02*
X007362Y037510D01*
X004376Y032879D02*
X003204Y032879D01*
X003106Y032780D02*
X004376Y032780D01*
X003039Y033864D02*
X000606Y033864D01*
X000606Y033766D02*
X002941Y033766D01*
X002842Y033667D02*
X000606Y033667D01*
X000606Y033569D02*
X002744Y033569D01*
X002645Y033470D02*
X000606Y033470D01*
X000606Y033371D02*
X002547Y033371D01*
X002448Y033273D02*
X000606Y033273D01*
X000606Y033174D02*
X002350Y033174D01*
X002251Y033076D02*
X000606Y033076D01*
X000606Y032977D02*
X002153Y032977D01*
X002054Y032879D02*
X000606Y032879D01*
X000606Y032780D02*
X001955Y032780D01*
X001857Y032682D02*
X000606Y032682D01*
X000606Y032583D02*
X001758Y032583D01*
X001660Y032485D02*
X000606Y032485D01*
X000606Y032386D02*
X001561Y032386D01*
X001463Y032288D02*
X000606Y032288D01*
X000606Y032189D02*
X001364Y032189D01*
X001266Y032090D02*
X000606Y032090D01*
X000606Y031992D02*
X001167Y031992D01*
X001069Y031893D02*
X000606Y031893D01*
X000606Y031795D02*
X000970Y031795D01*
X000926Y031696D02*
X000606Y031696D01*
X000606Y031598D02*
X000926Y031598D01*
X000926Y031499D02*
X000606Y031499D01*
X000606Y031401D02*
X000926Y031401D01*
X000926Y031302D02*
X000606Y031302D01*
X000606Y031204D02*
X000926Y031204D01*
X000926Y031105D02*
X000606Y031105D01*
X000606Y031006D02*
X000926Y031006D01*
X000926Y030908D02*
X000606Y030908D01*
X000606Y030809D02*
X000926Y030809D01*
X000926Y030711D02*
X000606Y030711D01*
X000606Y030612D02*
X000926Y030612D01*
X000926Y030514D02*
X000606Y030514D01*
X000606Y030415D02*
X000926Y030415D01*
X000926Y030317D02*
X000606Y030317D01*
X000606Y030218D02*
X000926Y030218D01*
X000926Y030120D02*
X000606Y030120D01*
X000606Y030021D02*
X000926Y030021D01*
X000926Y029922D02*
X000606Y029922D01*
X000606Y029824D02*
X000926Y029824D01*
X000926Y029725D02*
X000606Y029725D01*
X000606Y029627D02*
X000926Y029627D01*
X000926Y029528D02*
X000606Y029528D01*
X000606Y029430D02*
X000926Y029430D01*
X000926Y029331D02*
X000606Y029331D01*
X000606Y029233D02*
X000926Y029233D01*
X000926Y029134D02*
X000606Y029134D01*
X000606Y029036D02*
X000926Y029036D01*
X004148Y023320D02*
X004210Y023320D01*
X005101Y023024D02*
X011389Y023024D01*
X011290Y022926D02*
X005101Y022926D01*
X005101Y022827D02*
X006045Y022827D01*
X005946Y022729D02*
X005101Y022729D01*
X005070Y022630D02*
X005848Y022630D01*
X005749Y022532D02*
X005101Y022532D01*
X005101Y022433D02*
X005706Y022433D01*
X005637Y022335D02*
X005101Y022335D01*
X005101Y022236D02*
X005637Y022236D01*
X005637Y022138D02*
X005101Y022138D01*
X005093Y021844D02*
X005906Y021844D01*
X006216Y022433D02*
X011241Y022433D01*
X011130Y023222D02*
X011453Y023222D01*
X011354Y023320D02*
X011228Y023320D01*
X010406Y024655D02*
X010406Y025466D01*
X012923Y023024D02*
X013081Y023024D01*
X013081Y022926D02*
X013021Y022926D01*
X013070Y022433D02*
X013081Y022433D01*
X013081Y022335D02*
X012971Y022335D01*
X012873Y022236D02*
X013081Y022236D01*
X015386Y022236D02*
X015706Y022236D01*
X015706Y022138D02*
X015386Y022138D01*
X015386Y022039D02*
X015706Y022039D01*
X015706Y021940D02*
X015386Y021940D01*
X015386Y021842D02*
X015706Y021842D01*
X015706Y021743D02*
X015386Y021743D01*
X015386Y021645D02*
X015706Y021645D01*
X015706Y021546D02*
X015386Y021546D01*
X015386Y021448D02*
X015706Y021448D01*
X015706Y021349D02*
X015386Y021349D01*
X015386Y021251D02*
X015706Y021251D01*
X015706Y021152D02*
X015386Y021152D01*
X015386Y021054D02*
X015706Y021054D01*
X015706Y020955D02*
X015386Y020955D01*
X015386Y020856D02*
X015706Y020856D01*
X015706Y020758D02*
X015386Y020758D01*
X015386Y020659D02*
X015706Y020659D01*
X015706Y020561D02*
X015386Y020561D01*
X015386Y020462D02*
X015706Y020462D01*
X015706Y020364D02*
X015386Y020364D01*
X015386Y020265D02*
X015706Y020265D01*
X015706Y020167D02*
X015386Y020167D01*
X015386Y020068D02*
X015706Y020068D01*
X015706Y019970D02*
X015386Y019970D01*
X015386Y019871D02*
X015706Y019871D01*
X015706Y019773D02*
X015386Y019773D01*
X015386Y019674D02*
X015706Y019674D01*
X015706Y019575D02*
X015386Y019575D01*
X015386Y019477D02*
X015706Y019477D01*
X015706Y019378D02*
X015386Y019378D01*
X015386Y019280D02*
X015706Y019280D01*
X015706Y019181D02*
X015386Y019181D01*
X015386Y019083D02*
X015706Y019083D01*
X015706Y018984D02*
X015386Y018984D01*
X015386Y018886D02*
X015706Y018886D01*
X015706Y018787D02*
X015386Y018787D01*
X015386Y018689D02*
X015706Y018689D01*
X015706Y018590D02*
X015386Y018590D01*
X015386Y018491D02*
X015706Y018491D01*
X015706Y018393D02*
X015386Y018393D01*
X015386Y018294D02*
X015706Y018294D01*
X015706Y018196D02*
X015386Y018196D01*
X015386Y018097D02*
X015706Y018097D01*
X015706Y017999D02*
X015386Y017999D01*
X015386Y017900D02*
X015706Y017900D01*
X015706Y017802D02*
X015386Y017802D01*
X015386Y017703D02*
X015706Y017703D01*
X015706Y017605D02*
X015386Y017605D01*
X015386Y017506D02*
X015706Y017506D01*
X015706Y017407D02*
X015386Y017407D01*
X015386Y017309D02*
X015706Y017309D01*
X015706Y017210D02*
X015386Y017210D01*
X015386Y017112D02*
X015706Y017112D01*
X015706Y017013D02*
X015386Y017013D01*
X015386Y016915D02*
X015706Y016915D01*
X015706Y016816D02*
X015386Y016816D01*
X015386Y016718D02*
X015706Y016718D01*
X015706Y016619D02*
X015386Y016619D01*
X015386Y016521D02*
X015706Y016521D01*
X015706Y016422D02*
X015386Y016422D01*
X015386Y016324D02*
X015706Y016324D01*
X015706Y016225D02*
X015386Y016225D01*
X015386Y016126D02*
X015706Y016126D01*
X015706Y016028D02*
X015386Y016028D01*
X015386Y015929D02*
X015706Y015929D01*
X015706Y015831D02*
X015386Y015831D01*
X015386Y015732D02*
X015706Y015732D01*
X015706Y015634D02*
X015386Y015634D01*
X015386Y015535D02*
X015706Y015535D01*
X015706Y015437D02*
X015386Y015437D01*
X015386Y015338D02*
X015706Y015338D01*
X015706Y015240D02*
X015386Y015240D01*
X015386Y015141D02*
X015706Y015141D01*
X015706Y015042D02*
X015386Y015042D01*
X015386Y014944D02*
X015706Y014944D01*
X015706Y014845D02*
X015386Y014845D01*
X015386Y014747D02*
X015706Y014747D01*
X015706Y014648D02*
X015386Y014648D01*
X015386Y014550D02*
X015706Y014550D01*
X015706Y014451D02*
X015386Y014451D01*
X015386Y014353D02*
X015706Y014353D01*
X015706Y014254D02*
X015386Y014254D01*
X015386Y014156D02*
X015706Y014156D01*
X015706Y014057D02*
X015386Y014057D01*
X015386Y013958D02*
X015706Y013958D01*
X015706Y013860D02*
X015386Y013860D01*
X015386Y013761D02*
X015706Y013761D01*
X015706Y013663D02*
X015386Y013663D01*
X015386Y013564D02*
X015706Y013564D01*
X015706Y013466D02*
X015386Y013466D01*
X015386Y013367D02*
X015706Y013367D01*
X015706Y013269D02*
X015386Y013269D01*
X015386Y013170D02*
X015706Y013170D01*
X015706Y013072D02*
X015386Y013072D01*
X015386Y012973D02*
X015706Y012973D01*
X015706Y012874D02*
X015386Y012874D01*
X015386Y012776D02*
X015706Y012776D01*
X015706Y012677D02*
X015386Y012677D01*
X015386Y012579D02*
X015706Y012579D01*
X015706Y012480D02*
X015386Y012480D01*
X015386Y012382D02*
X015706Y012382D01*
X015706Y012283D02*
X015386Y012283D01*
X015386Y012185D02*
X015706Y012185D01*
X015706Y012086D02*
X015386Y012086D01*
X015313Y011988D02*
X015706Y011988D01*
X015706Y011889D02*
X015215Y011889D01*
X015116Y011791D02*
X015706Y011791D01*
X015706Y011692D02*
X015018Y011692D01*
X014426Y015141D02*
X001886Y015141D01*
X001886Y012677D02*
X003710Y012677D01*
X003710Y012579D02*
X001886Y012579D01*
X001886Y012480D02*
X003717Y012480D01*
X003816Y012382D02*
X001886Y012382D01*
X004156Y013529D02*
X004156Y014742D01*
X005087Y019181D02*
X001886Y019181D01*
X001886Y019280D02*
X005056Y019280D01*
X005056Y019378D02*
X001886Y019378D01*
X001886Y019477D02*
X005056Y019477D01*
X005056Y019575D02*
X001886Y019575D01*
X001886Y019674D02*
X005056Y019674D01*
X005056Y019773D02*
X001886Y019773D01*
X001886Y019871D02*
X005056Y019871D01*
X005056Y019970D02*
X001886Y019970D01*
X001886Y020068D02*
X005056Y020068D01*
X005125Y020167D02*
X001886Y020167D01*
X001886Y020265D02*
X007206Y020265D01*
X007206Y020364D02*
X001886Y020364D01*
X001886Y020462D02*
X007206Y020462D01*
X007206Y020561D02*
X001886Y020561D01*
X001886Y020659D02*
X007206Y020659D01*
X007206Y020758D02*
X007098Y020758D01*
X007189Y020856D02*
X007206Y020856D01*
X006906Y021030D02*
X006906Y021844D01*
X006406Y021844D02*
X006406Y021030D01*
X006598Y020758D02*
X006713Y020758D01*
X007456Y019378D02*
X008856Y019378D01*
X008856Y019280D02*
X007456Y019280D01*
X007424Y019181D02*
X008887Y019181D01*
X006157Y025981D02*
X006154Y025981D01*
X005637Y021546D02*
X001886Y021546D01*
X001886Y021448D02*
X005637Y021448D01*
X005637Y021349D02*
X001886Y021349D01*
X000606Y036919D02*
X015706Y036919D01*
X015706Y037018D02*
X000606Y037018D01*
X000606Y037116D02*
X015706Y037116D01*
X015706Y037215D02*
X000606Y037215D01*
X000606Y037313D02*
X015706Y037313D01*
X015706Y038200D02*
X015083Y038200D01*
X015253Y038299D02*
X015706Y038299D01*
X015706Y038397D02*
X015369Y038397D01*
X015468Y038496D02*
X015706Y038496D01*
X015706Y038594D02*
X015533Y038594D01*
X015590Y038693D02*
X015706Y038693D01*
X015706Y038791D02*
X015635Y038791D01*
X015662Y038890D02*
X015706Y038890D01*
X015706Y038988D02*
X015688Y038988D01*
X015696Y039087D02*
X015706Y039087D01*
X015696Y039186D02*
X015706Y039186D01*
X015696Y039284D02*
X015706Y039284D01*
X015706Y039383D02*
X015672Y039383D01*
X015645Y039481D02*
X015706Y039481D01*
X015706Y033864D02*
X013272Y033864D01*
X013370Y033766D02*
X015706Y033766D01*
X015706Y033667D02*
X013469Y033667D01*
X013567Y033569D02*
X015706Y033569D01*
X015706Y033470D02*
X013666Y033470D01*
X013764Y033371D02*
X015706Y033371D01*
X015706Y033273D02*
X013863Y033273D01*
X013961Y033174D02*
X015706Y033174D01*
X015706Y033076D02*
X014060Y033076D01*
X014159Y032977D02*
X015706Y032977D01*
X015706Y032879D02*
X014257Y032879D01*
X014356Y032780D02*
X015706Y032780D01*
X015706Y032682D02*
X014454Y032682D01*
X014553Y032583D02*
X015706Y032583D01*
X015706Y032485D02*
X014651Y032485D01*
X014750Y032386D02*
X015706Y032386D01*
X015706Y032288D02*
X014848Y032288D01*
X014947Y032189D02*
X015706Y032189D01*
X015706Y032090D02*
X015045Y032090D01*
X015144Y031992D02*
X015706Y031992D01*
X015706Y031893D02*
X015243Y031893D01*
X015341Y031795D02*
X015706Y031795D01*
X015706Y031696D02*
X015386Y031696D01*
X015386Y031598D02*
X015706Y031598D01*
X015706Y031499D02*
X015386Y031499D01*
X015386Y031401D02*
X015706Y031401D01*
X015706Y031302D02*
X015386Y031302D01*
X015386Y031204D02*
X015706Y031204D01*
X015706Y031105D02*
X015386Y031105D01*
X015386Y031006D02*
X015706Y031006D01*
X015706Y030908D02*
X015386Y030908D01*
X015386Y030809D02*
X015706Y030809D01*
X015706Y030711D02*
X015386Y030711D01*
X015386Y030612D02*
X015706Y030612D01*
X015706Y030514D02*
X015386Y030514D01*
X015386Y030415D02*
X015706Y030415D01*
X015706Y030317D02*
X015386Y030317D01*
X015386Y030218D02*
X015706Y030218D01*
X015706Y030120D02*
X015386Y030120D01*
X015386Y030021D02*
X015706Y030021D01*
X015706Y029922D02*
X015386Y029922D01*
X015386Y029824D02*
X015706Y029824D01*
X015706Y029725D02*
X015386Y029725D01*
X015386Y029627D02*
X015706Y029627D01*
X015706Y029528D02*
X015386Y029528D01*
X015386Y029430D02*
X015706Y029430D01*
X015706Y029331D02*
X015386Y029331D01*
X015386Y029233D02*
X015706Y029233D01*
X015706Y029134D02*
X015386Y029134D01*
X015386Y029036D02*
X015706Y029036D01*
X015706Y028937D02*
X015386Y028937D01*
X015386Y028839D02*
X015706Y028839D01*
X015706Y028740D02*
X015386Y028740D01*
X015386Y028641D02*
X015706Y028641D01*
X015706Y028543D02*
X015386Y028543D01*
X015386Y028444D02*
X015706Y028444D01*
X015706Y028346D02*
X015386Y028346D01*
X015386Y028247D02*
X015706Y028247D01*
X015706Y028149D02*
X015386Y028149D01*
X015386Y028050D02*
X015706Y028050D01*
X015706Y027952D02*
X015386Y027952D01*
X015386Y027853D02*
X015706Y027853D01*
X015706Y027755D02*
X015386Y027755D01*
X015386Y027656D02*
X015706Y027656D01*
X015706Y027557D02*
X015386Y027557D01*
X015386Y027459D02*
X015706Y027459D01*
X015706Y027360D02*
X015386Y027360D01*
X015386Y027262D02*
X015706Y027262D01*
X015706Y027163D02*
X015386Y027163D01*
X015386Y027065D02*
X015706Y027065D01*
X015706Y026966D02*
X015386Y026966D01*
X015386Y026868D02*
X015706Y026868D01*
X015706Y026769D02*
X015386Y026769D01*
X015386Y026671D02*
X015706Y026671D01*
X015706Y026572D02*
X015386Y026572D01*
X015386Y026473D02*
X015706Y026473D01*
X015706Y026375D02*
X015386Y026375D01*
X015386Y026276D02*
X015706Y026276D01*
X015706Y026178D02*
X015386Y026178D01*
X015386Y026079D02*
X015706Y026079D01*
X015706Y025981D02*
X015386Y025981D01*
X015386Y025882D02*
X015706Y025882D01*
X015706Y025784D02*
X015386Y025784D01*
X015386Y025685D02*
X015706Y025685D01*
X015706Y025587D02*
X015386Y025587D01*
X015386Y025488D02*
X015706Y025488D01*
X015706Y025389D02*
X015386Y025389D01*
X015386Y025291D02*
X015706Y025291D01*
X015706Y025192D02*
X015386Y025192D01*
X015386Y025094D02*
X015706Y025094D01*
X015706Y024995D02*
X015386Y024995D01*
X015386Y024897D02*
X015706Y024897D01*
X015706Y024798D02*
X015386Y024798D01*
X015386Y024700D02*
X015706Y024700D01*
X015706Y024601D02*
X015386Y024601D01*
X015386Y024503D02*
X015706Y024503D01*
X015706Y024404D02*
X015386Y024404D01*
X015386Y024306D02*
X015706Y024306D01*
X015706Y024207D02*
X015386Y024207D01*
X015386Y024108D02*
X015706Y024108D01*
X015706Y024010D02*
X015386Y024010D01*
X015386Y023911D02*
X015706Y023911D01*
X015706Y023813D02*
X015386Y023813D01*
X015386Y023714D02*
X015706Y023714D01*
X015706Y023616D02*
X015386Y023616D01*
X015386Y023517D02*
X015706Y023517D01*
X015706Y023419D02*
X015386Y023419D01*
X015386Y023320D02*
X015706Y023320D01*
X015706Y023222D02*
X015386Y023222D01*
X015386Y023123D02*
X015706Y023123D01*
X015706Y023024D02*
X015386Y023024D01*
X015386Y022926D02*
X015706Y022926D01*
X015706Y022827D02*
X015386Y022827D01*
X015386Y022729D02*
X015706Y022729D01*
X015706Y022630D02*
X015386Y022630D01*
X015386Y022532D02*
X015706Y022532D01*
X015706Y022433D02*
X015386Y022433D01*
X015386Y022335D02*
X015706Y022335D01*
D31*
X011156Y032280D03*
X008656Y030155D03*
X008156Y030155D03*
X007656Y030155D03*
X007156Y030155D03*
X006406Y028280D03*
X006156Y030280D03*
X006156Y032155D03*
X007031Y026280D03*
X006906Y024655D03*
X007781Y024655D03*
X008156Y023655D03*
X008656Y024155D03*
X008906Y021030D03*
X008406Y021030D03*
X009406Y021030D03*
X009906Y021030D03*
X010406Y024655D03*
X006906Y021030D03*
X006406Y021030D03*
X005906Y024655D03*
X006906Y016655D03*
X006656Y013155D03*
X007656Y013155D03*
X008656Y013155D03*
X009656Y013155D03*
X008156Y009655D03*
X008156Y008905D03*
X008156Y008405D03*
X010156Y009155D03*
X005656Y008155D03*
X005656Y006155D03*
D32*
X006031Y005905D02*
X005781Y005655D01*
X005156Y005655D01*
X004656Y006155D01*
X004656Y009155D01*
X001656Y012155D01*
X001656Y031655D01*
X003156Y033155D01*
X007053Y033155D01*
X007053Y033655D02*
X003156Y033655D01*
X001156Y031655D01*
X001156Y012155D01*
X004156Y009155D01*
X004156Y006155D01*
X004282Y006029D01*
X004282Y004655D01*
X005030Y004655D02*
X005406Y004655D01*
X005854Y005104D01*
X006156Y005104D01*
X006031Y005905D02*
X006656Y005905D01*
X007156Y005405D01*
X007156Y005104D01*
X009156Y005104D02*
X009156Y005405D01*
X011656Y007905D01*
X011656Y009155D01*
X014656Y012155D01*
X014656Y031655D01*
X013156Y033155D01*
X009258Y033155D01*
X009258Y033655D02*
X013156Y033655D01*
X015156Y031655D01*
X015156Y012155D01*
X012156Y009155D01*
X012156Y007405D01*
X010156Y005405D01*
X010156Y005104D01*
X007781Y028155D02*
X006406Y028155D01*
X005776Y028155D01*
X005531Y028400D01*
X006406Y028280D02*
X006406Y028155D01*
X007781Y028155D02*
X007940Y028315D01*
X008436Y028315D01*
X008436Y029495D02*
X009496Y029495D01*
X009781Y029780D01*
X009781Y030655D01*
X010588Y031462D01*
X011156Y031462D01*
X009906Y034155D02*
X010156Y034405D01*
X010156Y036206D01*
X009156Y034757D02*
X009258Y034655D01*
X009156Y034757D02*
X009156Y036206D01*
X009258Y034155D02*
X009906Y034155D01*
X007156Y034757D02*
X007053Y034655D01*
X007156Y034757D02*
X007156Y036206D01*
X007053Y034155D02*
X006406Y034155D01*
X006156Y034405D01*
X006156Y036206D01*
D33*
X003156Y027655D02*
X013156Y027655D01*
X013156Y029809D01*
X013156Y031502D02*
X011372Y031502D01*
X011156Y031462D01*
X011156Y032280D01*
M02*
