G75*
G70*
%OFA0B0*%
%FSLAX24Y24*%
%IPPOS*%
%LPD*%
%AMOC8*
5,1,8,0,0,1.08239X$1,22.5*
%
%ADD10C,0.0000*%
%ADD11C,0.0070*%
%ADD12R,0.0010X0.0850*%
%ADD13R,0.0010X0.0840*%
%ADD14R,0.0010X0.0010*%
%ADD15R,0.0010X0.0170*%
%ADD16R,0.0010X0.0020*%
%ADD17R,0.0010X0.0140*%
%ADD18R,0.0010X0.0180*%
%ADD19R,0.0010X0.0380*%
%ADD20R,0.0010X0.0040*%
%ADD21R,0.0010X0.0030*%
%ADD22R,0.0010X0.0370*%
%ADD23R,0.0010X0.0460*%
%ADD24R,0.0010X0.0060*%
%ADD25R,0.0010X0.0490*%
%ADD26R,0.0010X0.0480*%
%ADD27R,0.0010X0.0580*%
%ADD28R,0.0010X0.0080*%
%ADD29R,0.0010X0.0560*%
%ADD30R,0.0010X0.0050*%
%ADD31R,0.0010X0.0650*%
%ADD32R,0.0010X0.0100*%
%ADD33R,0.0010X0.0710*%
%ADD34R,0.0010X0.0120*%
%ADD35R,0.0010X0.0070*%
%ADD36R,0.0010X0.0720*%
%ADD37R,0.0010X0.0770*%
%ADD38R,0.0010X0.0830*%
%ADD39R,0.0010X0.0160*%
%ADD40R,0.0010X0.0390*%
%ADD41R,0.0010X0.0090*%
%ADD42R,0.0010X0.0870*%
%ADD43R,0.0010X0.0880*%
%ADD44R,0.0010X0.0110*%
%ADD45R,0.0010X0.0930*%
%ADD46R,0.0010X0.0200*%
%ADD47R,0.0010X0.0820*%
%ADD48R,0.0010X0.0970*%
%ADD49R,0.0010X0.0220*%
%ADD50R,0.0010X0.1010*%
%ADD51R,0.0010X0.0240*%
%ADD52R,0.0010X0.0130*%
%ADD53R,0.0010X0.1020*%
%ADD54R,0.0010X0.1050*%
%ADD55R,0.0010X0.0260*%
%ADD56R,0.0010X0.1090*%
%ADD57R,0.0010X0.0280*%
%ADD58R,0.0010X0.0150*%
%ADD59R,0.0010X0.1130*%
%ADD60R,0.0010X0.0300*%
%ADD61R,0.0010X0.1170*%
%ADD62R,0.0010X0.0320*%
%ADD63R,0.0010X0.1200*%
%ADD64R,0.0010X0.0340*%
%ADD65R,0.0010X0.1230*%
%ADD66R,0.0010X0.0360*%
%ADD67R,0.0010X0.0190*%
%ADD68R,0.0010X0.1270*%
%ADD69R,0.0010X0.1290*%
%ADD70R,0.0010X0.0400*%
%ADD71R,0.0010X0.0210*%
%ADD72R,0.0010X0.1330*%
%ADD73R,0.0010X0.0420*%
%ADD74R,0.0010X0.1320*%
%ADD75R,0.0010X0.1350*%
%ADD76R,0.0010X0.0440*%
%ADD77R,0.0010X0.1380*%
%ADD78R,0.0010X0.1370*%
%ADD79R,0.0010X0.1410*%
%ADD80R,0.0010X0.0250*%
%ADD81R,0.0010X0.0800*%
%ADD82R,0.0010X0.1430*%
%ADD83R,0.0010X0.0500*%
%ADD84R,0.0010X0.1460*%
%ADD85R,0.0010X0.0520*%
%ADD86R,0.0010X0.0270*%
%ADD87R,0.0010X0.0810*%
%ADD88R,0.0010X0.1490*%
%ADD89R,0.0010X0.0530*%
%ADD90R,0.0010X0.0290*%
%ADD91R,0.0010X0.1510*%
%ADD92R,0.0010X0.0540*%
%ADD93R,0.0010X0.1530*%
%ADD94R,0.0010X0.1550*%
%ADD95R,0.0010X0.0310*%
%ADD96R,0.0010X0.1580*%
%ADD97R,0.0010X0.1570*%
%ADD98R,0.0010X0.1590*%
%ADD99R,0.0010X0.0330*%
%ADD100R,0.0010X0.1610*%
%ADD101R,0.0010X0.1630*%
%ADD102R,0.0010X0.1640*%
%ADD103R,0.0010X0.1660*%
%ADD104R,0.0010X0.1650*%
%ADD105R,0.0010X0.1680*%
%ADD106R,0.0010X0.1670*%
%ADD107R,0.0010X0.0790*%
%ADD108R,0.0010X0.0740*%
%ADD109R,0.0010X0.0760*%
%ADD110R,0.0010X0.0780*%
%ADD111R,0.0010X0.0700*%
%ADD112R,0.0010X0.0670*%
%ADD113R,0.0010X0.0680*%
%ADD114R,0.0010X0.0410*%
%ADD115R,0.0010X0.0640*%
%ADD116R,0.0010X0.0630*%
%ADD117R,0.0010X0.0430*%
%ADD118R,0.0010X0.0610*%
%ADD119R,0.0010X0.0620*%
%ADD120R,0.0010X0.0600*%
%ADD121R,0.0010X0.0590*%
%ADD122R,0.0010X0.0570*%
%ADD123R,0.0010X0.0550*%
%ADD124R,0.0010X0.0510*%
%ADD125R,0.0010X0.0470*%
%ADD126R,0.0010X0.1150*%
%ADD127R,0.0010X0.1140*%
%ADD128R,0.0010X0.0450*%
%ADD129R,0.0010X0.1120*%
%ADD130R,0.0010X0.1110*%
%ADD131R,0.0010X0.0660*%
%ADD132R,0.0010X0.0750*%
%ADD133R,0.0010X0.1100*%
%ADD134R,0.0010X0.0690*%
%ADD135R,0.0010X0.1070*%
%ADD136R,0.0010X0.1060*%
%ADD137R,0.0010X0.0730*%
%ADD138R,0.0010X0.1030*%
%ADD139R,0.0010X0.1040*%
%ADD140R,0.0010X0.1080*%
%ADD141R,0.0010X0.1160*%
%ADD142R,0.0010X0.1190*%
%ADD143R,0.0010X0.0860*%
%ADD144R,0.0010X0.0900*%
%ADD145R,0.0010X0.1210*%
%ADD146R,0.0010X0.1220*%
%ADD147R,0.0010X0.0910*%
%ADD148R,0.0010X0.1240*%
%ADD149R,0.0010X0.1250*%
%ADD150R,0.0010X0.0920*%
%ADD151R,0.0010X0.0890*%
%ADD152R,0.0010X0.1780*%
%ADD153R,0.0010X0.1790*%
%ADD154R,0.0010X0.1770*%
%ADD155R,0.0010X0.0350*%
%ADD156R,0.0010X0.1180*%
%ADD157R,0.0010X0.1620*%
%ADD158R,0.0010X0.1600*%
%ADD159R,0.0010X0.1390*%
%ADD160R,0.0010X0.1000*%
%ADD161R,0.0010X0.0990*%
%ADD162R,0.0010X0.0960*%
%ADD163R,0.0010X0.0940*%
%ADD164R,0.0010X0.0230*%
%ADD165R,0.0750X0.0110*%
%ADD166R,0.0910X0.0080*%
D10*
X000156Y000655D02*
X000156Y040025D01*
X016156Y040025D01*
X016156Y000655D01*
X000156Y000655D01*
X001065Y002155D02*
X001067Y002203D01*
X001073Y002251D01*
X001083Y002298D01*
X001096Y002344D01*
X001114Y002389D01*
X001134Y002433D01*
X001159Y002475D01*
X001187Y002514D01*
X001217Y002551D01*
X001251Y002585D01*
X001288Y002617D01*
X001326Y002646D01*
X001367Y002671D01*
X001410Y002693D01*
X001455Y002711D01*
X001501Y002725D01*
X001548Y002736D01*
X001596Y002743D01*
X001644Y002746D01*
X001692Y002745D01*
X001740Y002740D01*
X001788Y002731D01*
X001834Y002719D01*
X001879Y002702D01*
X001923Y002682D01*
X001965Y002659D01*
X002005Y002632D01*
X002043Y002602D01*
X002078Y002569D01*
X002110Y002533D01*
X002140Y002495D01*
X002166Y002454D01*
X002188Y002411D01*
X002208Y002367D01*
X002223Y002322D01*
X002235Y002275D01*
X002243Y002227D01*
X002247Y002179D01*
X002247Y002131D01*
X002243Y002083D01*
X002235Y002035D01*
X002223Y001988D01*
X002208Y001943D01*
X002188Y001899D01*
X002166Y001856D01*
X002140Y001815D01*
X002110Y001777D01*
X002078Y001741D01*
X002043Y001708D01*
X002005Y001678D01*
X001965Y001651D01*
X001923Y001628D01*
X001879Y001608D01*
X001834Y001591D01*
X001788Y001579D01*
X001740Y001570D01*
X001692Y001565D01*
X001644Y001564D01*
X001596Y001567D01*
X001548Y001574D01*
X001501Y001585D01*
X001455Y001599D01*
X001410Y001617D01*
X001367Y001639D01*
X001326Y001664D01*
X001288Y001693D01*
X001251Y001725D01*
X001217Y001759D01*
X001187Y001796D01*
X001159Y001835D01*
X001134Y001877D01*
X001114Y001921D01*
X001096Y001966D01*
X001083Y002012D01*
X001073Y002059D01*
X001067Y002107D01*
X001065Y002155D01*
X014065Y002155D02*
X014067Y002203D01*
X014073Y002251D01*
X014083Y002298D01*
X014096Y002344D01*
X014114Y002389D01*
X014134Y002433D01*
X014159Y002475D01*
X014187Y002514D01*
X014217Y002551D01*
X014251Y002585D01*
X014288Y002617D01*
X014326Y002646D01*
X014367Y002671D01*
X014410Y002693D01*
X014455Y002711D01*
X014501Y002725D01*
X014548Y002736D01*
X014596Y002743D01*
X014644Y002746D01*
X014692Y002745D01*
X014740Y002740D01*
X014788Y002731D01*
X014834Y002719D01*
X014879Y002702D01*
X014923Y002682D01*
X014965Y002659D01*
X015005Y002632D01*
X015043Y002602D01*
X015078Y002569D01*
X015110Y002533D01*
X015140Y002495D01*
X015166Y002454D01*
X015188Y002411D01*
X015208Y002367D01*
X015223Y002322D01*
X015235Y002275D01*
X015243Y002227D01*
X015247Y002179D01*
X015247Y002131D01*
X015243Y002083D01*
X015235Y002035D01*
X015223Y001988D01*
X015208Y001943D01*
X015188Y001899D01*
X015166Y001856D01*
X015140Y001815D01*
X015110Y001777D01*
X015078Y001741D01*
X015043Y001708D01*
X015005Y001678D01*
X014965Y001651D01*
X014923Y001628D01*
X014879Y001608D01*
X014834Y001591D01*
X014788Y001579D01*
X014740Y001570D01*
X014692Y001565D01*
X014644Y001564D01*
X014596Y001567D01*
X014548Y001574D01*
X014501Y001585D01*
X014455Y001599D01*
X014410Y001617D01*
X014367Y001639D01*
X014326Y001664D01*
X014288Y001693D01*
X014251Y001725D01*
X014217Y001759D01*
X014187Y001796D01*
X014159Y001835D01*
X014134Y001877D01*
X014114Y001921D01*
X014096Y001966D01*
X014083Y002012D01*
X014073Y002059D01*
X014067Y002107D01*
X014065Y002155D01*
X014065Y039155D02*
X014067Y039203D01*
X014073Y039251D01*
X014083Y039298D01*
X014096Y039344D01*
X014114Y039389D01*
X014134Y039433D01*
X014159Y039475D01*
X014187Y039514D01*
X014217Y039551D01*
X014251Y039585D01*
X014288Y039617D01*
X014326Y039646D01*
X014367Y039671D01*
X014410Y039693D01*
X014455Y039711D01*
X014501Y039725D01*
X014548Y039736D01*
X014596Y039743D01*
X014644Y039746D01*
X014692Y039745D01*
X014740Y039740D01*
X014788Y039731D01*
X014834Y039719D01*
X014879Y039702D01*
X014923Y039682D01*
X014965Y039659D01*
X015005Y039632D01*
X015043Y039602D01*
X015078Y039569D01*
X015110Y039533D01*
X015140Y039495D01*
X015166Y039454D01*
X015188Y039411D01*
X015208Y039367D01*
X015223Y039322D01*
X015235Y039275D01*
X015243Y039227D01*
X015247Y039179D01*
X015247Y039131D01*
X015243Y039083D01*
X015235Y039035D01*
X015223Y038988D01*
X015208Y038943D01*
X015188Y038899D01*
X015166Y038856D01*
X015140Y038815D01*
X015110Y038777D01*
X015078Y038741D01*
X015043Y038708D01*
X015005Y038678D01*
X014965Y038651D01*
X014923Y038628D01*
X014879Y038608D01*
X014834Y038591D01*
X014788Y038579D01*
X014740Y038570D01*
X014692Y038565D01*
X014644Y038564D01*
X014596Y038567D01*
X014548Y038574D01*
X014501Y038585D01*
X014455Y038599D01*
X014410Y038617D01*
X014367Y038639D01*
X014326Y038664D01*
X014288Y038693D01*
X014251Y038725D01*
X014217Y038759D01*
X014187Y038796D01*
X014159Y038835D01*
X014134Y038877D01*
X014114Y038921D01*
X014096Y038966D01*
X014083Y039012D01*
X014073Y039059D01*
X014067Y039107D01*
X014065Y039155D01*
X001065Y039155D02*
X001067Y039203D01*
X001073Y039251D01*
X001083Y039298D01*
X001096Y039344D01*
X001114Y039389D01*
X001134Y039433D01*
X001159Y039475D01*
X001187Y039514D01*
X001217Y039551D01*
X001251Y039585D01*
X001288Y039617D01*
X001326Y039646D01*
X001367Y039671D01*
X001410Y039693D01*
X001455Y039711D01*
X001501Y039725D01*
X001548Y039736D01*
X001596Y039743D01*
X001644Y039746D01*
X001692Y039745D01*
X001740Y039740D01*
X001788Y039731D01*
X001834Y039719D01*
X001879Y039702D01*
X001923Y039682D01*
X001965Y039659D01*
X002005Y039632D01*
X002043Y039602D01*
X002078Y039569D01*
X002110Y039533D01*
X002140Y039495D01*
X002166Y039454D01*
X002188Y039411D01*
X002208Y039367D01*
X002223Y039322D01*
X002235Y039275D01*
X002243Y039227D01*
X002247Y039179D01*
X002247Y039131D01*
X002243Y039083D01*
X002235Y039035D01*
X002223Y038988D01*
X002208Y038943D01*
X002188Y038899D01*
X002166Y038856D01*
X002140Y038815D01*
X002110Y038777D01*
X002078Y038741D01*
X002043Y038708D01*
X002005Y038678D01*
X001965Y038651D01*
X001923Y038628D01*
X001879Y038608D01*
X001834Y038591D01*
X001788Y038579D01*
X001740Y038570D01*
X001692Y038565D01*
X001644Y038564D01*
X001596Y038567D01*
X001548Y038574D01*
X001501Y038585D01*
X001455Y038599D01*
X001410Y038617D01*
X001367Y038639D01*
X001326Y038664D01*
X001288Y038693D01*
X001251Y038725D01*
X001217Y038759D01*
X001187Y038796D01*
X001159Y038835D01*
X001134Y038877D01*
X001114Y038921D01*
X001096Y038966D01*
X001083Y039012D01*
X001073Y039059D01*
X001067Y039107D01*
X001065Y039155D01*
D11*
X008410Y004181D02*
X008410Y003690D01*
X008247Y003690D02*
X008574Y003690D01*
X008762Y003772D02*
X008762Y004099D01*
X008844Y004181D01*
X009089Y004181D01*
X009089Y003690D01*
X008844Y003690D01*
X008762Y003772D01*
X008574Y004017D02*
X008410Y004181D01*
X009278Y004181D02*
X009605Y004181D01*
X009605Y003690D01*
X009278Y003690D01*
X009441Y003935D02*
X009605Y003935D01*
X009794Y003690D02*
X010121Y003690D01*
X010121Y004181D01*
D12*
X004356Y013805D03*
X004316Y013795D03*
X004306Y013805D03*
X006546Y019515D03*
X005166Y024855D03*
X005156Y024865D03*
D13*
X005816Y023880D03*
X005826Y023880D03*
X007416Y018580D03*
X004456Y013800D03*
X004436Y013800D03*
X004416Y013800D03*
X004406Y013800D03*
X004396Y013800D03*
X004386Y013800D03*
X004376Y013800D03*
X004366Y013800D03*
X004346Y013800D03*
X004336Y013800D03*
X004326Y013800D03*
D14*
X004386Y015225D03*
X004386Y015545D03*
X004366Y017325D03*
X004346Y017455D03*
X004366Y017815D03*
X004706Y017645D03*
X004386Y019145D03*
X004916Y019555D03*
X004916Y019635D03*
X004916Y019715D03*
X005276Y019695D03*
X005276Y019675D03*
X005276Y019645D03*
X005276Y019615D03*
X005276Y019585D03*
X005276Y019565D03*
X005276Y019545D03*
X005276Y019515D03*
X005276Y019485D03*
X006216Y019775D03*
X006236Y019605D03*
X006236Y019555D03*
X006596Y019565D03*
X006596Y019545D03*
X006596Y019505D03*
X006596Y019475D03*
X006596Y019455D03*
X006596Y019435D03*
X006596Y019415D03*
X006596Y019375D03*
X006596Y019335D03*
X006596Y019265D03*
X006596Y019245D03*
X006596Y019205D03*
X006596Y019175D03*
X006596Y019155D03*
X006596Y019125D03*
X006596Y019105D03*
X006596Y019585D03*
X006596Y019625D03*
X006596Y019655D03*
X006596Y019705D03*
X007256Y020255D03*
X007796Y020785D03*
X007796Y020825D03*
X007796Y020865D03*
X007796Y020985D03*
X007796Y021105D03*
X007796Y021125D03*
X007796Y021175D03*
X007996Y021175D03*
X007996Y021195D03*
X007996Y021095D03*
X007996Y021035D03*
X007996Y021015D03*
X007996Y020935D03*
X007996Y020875D03*
X007996Y020855D03*
X007996Y020805D03*
X007996Y020785D03*
X007996Y020765D03*
X008296Y020825D03*
X008296Y020895D03*
X008296Y020995D03*
X008496Y020995D03*
X008496Y021015D03*
X008496Y021075D03*
X008496Y021295D03*
X008296Y021295D03*
X008296Y021225D03*
X008496Y021565D03*
X008496Y021855D03*
X008496Y021885D03*
X008296Y021825D03*
X008496Y020535D03*
X008496Y020115D03*
X008496Y020095D03*
X007896Y019005D03*
X007896Y018945D03*
X007896Y018885D03*
X007896Y018775D03*
X007896Y018755D03*
X007896Y018735D03*
X007896Y018715D03*
X007896Y018695D03*
X007696Y018685D03*
X007696Y018715D03*
X007696Y018765D03*
X007456Y018585D03*
X007256Y018565D03*
X007256Y018605D03*
X006646Y017465D03*
X006646Y017445D03*
X006636Y017375D03*
X006596Y016235D03*
X006596Y016215D03*
X006596Y016175D03*
X006596Y016155D03*
X006596Y016135D03*
X006596Y016095D03*
X006596Y016055D03*
X006596Y016035D03*
X006596Y016015D03*
X006596Y015995D03*
X006596Y015975D03*
X006596Y015945D03*
X006596Y015915D03*
X006596Y015895D03*
X006596Y015855D03*
X006596Y015835D03*
X006596Y015815D03*
X006596Y015775D03*
X006596Y015735D03*
X006596Y015715D03*
X006596Y015695D03*
X006596Y015675D03*
X006596Y015655D03*
X006596Y015625D03*
X006596Y015595D03*
X006596Y015575D03*
X006596Y015535D03*
X006596Y015515D03*
X006596Y015495D03*
X006596Y015455D03*
X006596Y015415D03*
X006596Y015395D03*
X006596Y015375D03*
X006596Y015355D03*
X006596Y015335D03*
X006596Y015305D03*
X006596Y015275D03*
X006596Y015255D03*
X006596Y015215D03*
X006596Y015195D03*
X006596Y015175D03*
X006596Y015135D03*
X006596Y015095D03*
X006596Y015025D03*
X006596Y014995D03*
X006596Y014975D03*
X006596Y014955D03*
X006596Y014935D03*
X006596Y014895D03*
X006596Y014855D03*
X006596Y014785D03*
X006596Y014765D03*
X006596Y014725D03*
X006596Y014695D03*
X006596Y014675D03*
X006596Y014645D03*
X006596Y014615D03*
X006596Y014545D03*
X006596Y014525D03*
X006236Y014645D03*
X006236Y014875D03*
X006236Y015035D03*
X006236Y015665D03*
X006236Y015845D03*
X006236Y016165D03*
X006236Y016275D03*
X007256Y016965D03*
X007256Y016995D03*
X007466Y016995D03*
X007796Y016265D03*
X007796Y016145D03*
X007796Y016025D03*
X007796Y015905D03*
X007996Y015905D03*
X007996Y015885D03*
X007996Y015855D03*
X007996Y015925D03*
X007996Y015975D03*
X007996Y015995D03*
X007996Y016055D03*
X007996Y016105D03*
X007996Y016125D03*
X007996Y016145D03*
X007996Y016165D03*
X007996Y016215D03*
X007996Y016235D03*
X007996Y016255D03*
X008296Y016145D03*
X008496Y016135D03*
X008496Y016115D03*
X008496Y015975D03*
X008496Y015955D03*
X008496Y015815D03*
X008496Y015795D03*
X008496Y015655D03*
X008496Y015635D03*
X008496Y016275D03*
X008496Y016295D03*
X008316Y016955D03*
X008256Y017075D03*
X008526Y016995D03*
X008496Y017575D03*
X008516Y018455D03*
X008526Y018515D03*
X008516Y018715D03*
X008326Y018635D03*
X008326Y018535D03*
X007486Y021885D03*
X006646Y021825D03*
X006636Y021745D03*
X006646Y022055D03*
X006646Y022085D03*
X006286Y022015D03*
X006286Y021855D03*
X006596Y024915D03*
X006596Y024935D03*
X006596Y024955D03*
X006596Y024985D03*
X006596Y025015D03*
X006596Y025035D03*
X006596Y025055D03*
X006596Y025075D03*
X006596Y025105D03*
X006596Y025175D03*
X006596Y025205D03*
X006596Y025255D03*
X006596Y025275D03*
X006596Y025555D03*
X006596Y025575D03*
X006596Y025595D03*
X006596Y025625D03*
X006596Y025655D03*
X006596Y025675D03*
X006596Y025695D03*
X006596Y025715D03*
X006596Y025745D03*
X006596Y025815D03*
X006596Y025845D03*
X006596Y025875D03*
X006596Y025895D03*
X006596Y025925D03*
X006596Y025965D03*
X006596Y025985D03*
X006596Y026055D03*
X006596Y026095D03*
X006596Y026135D03*
X006596Y026155D03*
X006596Y026175D03*
X006596Y026195D03*
X006596Y026225D03*
X006596Y026295D03*
X006596Y026325D03*
X006596Y026355D03*
X006596Y026375D03*
X006596Y026405D03*
X006596Y026445D03*
X006596Y026465D03*
X006596Y026535D03*
X006596Y026575D03*
X006596Y026615D03*
X006596Y026635D03*
X006596Y026655D03*
X006596Y026675D03*
X006596Y026705D03*
X006596Y026775D03*
X006596Y026805D03*
X006596Y026835D03*
X006596Y026855D03*
X006596Y026885D03*
X006596Y026925D03*
X006596Y026945D03*
X006596Y027015D03*
X006596Y027055D03*
X006596Y027095D03*
X006596Y027115D03*
X006596Y027135D03*
X006596Y027155D03*
X006596Y027185D03*
X006596Y027225D03*
X006596Y027245D03*
X006596Y027265D03*
X006236Y027285D03*
X006236Y027235D03*
X006236Y027125D03*
X006236Y026885D03*
X006236Y026675D03*
X006236Y026005D03*
X006236Y025915D03*
X006236Y025755D03*
X006236Y025555D03*
X006596Y028245D03*
X006616Y028315D03*
X006646Y028465D03*
X006646Y028745D03*
X004726Y028795D03*
X004706Y028685D03*
X004346Y028725D03*
X004356Y028805D03*
X004346Y028505D03*
X004386Y026615D03*
X004386Y026265D03*
X004336Y025275D03*
X004386Y023705D03*
X004706Y022005D03*
X004706Y021895D03*
X004716Y021805D03*
X004346Y021815D03*
X004346Y021835D03*
X007286Y014865D03*
X008296Y014805D03*
X008496Y014835D03*
X008496Y014695D03*
X008496Y014675D03*
X008496Y014575D03*
X010026Y014145D03*
X010026Y013475D03*
X010026Y013455D03*
X010376Y013895D03*
X010376Y013915D03*
X008496Y024445D03*
X008496Y024585D03*
X008496Y024635D03*
D15*
X008366Y023725D03*
X007416Y020175D03*
X008356Y019345D03*
X006496Y023535D03*
X006486Y023545D03*
X004496Y025195D03*
X004486Y025205D03*
X004346Y017565D03*
D16*
X004346Y017670D03*
X004706Y017490D03*
X004386Y019170D03*
X004386Y019390D03*
X004346Y020310D03*
X004916Y019690D03*
X004916Y019660D03*
X004916Y019610D03*
X004916Y019580D03*
X004916Y019530D03*
X004916Y019500D03*
X004346Y022020D03*
X004346Y022050D03*
X004386Y023470D03*
X004386Y023770D03*
X004386Y023810D03*
X004346Y025270D03*
X004386Y026290D03*
X004386Y026370D03*
X004386Y026410D03*
X004386Y026440D03*
X004386Y026590D03*
X004706Y028530D03*
X006236Y027310D03*
X006236Y027260D03*
X006236Y027210D03*
X006236Y027180D03*
X006236Y027150D03*
X006236Y027100D03*
X006236Y027070D03*
X006236Y027000D03*
X006236Y026970D03*
X006236Y026940D03*
X006236Y026910D03*
X006236Y026860D03*
X006236Y026830D03*
X006236Y026760D03*
X006236Y026730D03*
X006236Y026700D03*
X006236Y026650D03*
X006236Y026220D03*
X006236Y026190D03*
X006236Y026120D03*
X006236Y026090D03*
X006236Y026060D03*
X006236Y026030D03*
X006236Y025980D03*
X006236Y025890D03*
X006236Y025860D03*
X006236Y025830D03*
X006236Y025730D03*
X006236Y025700D03*
X006236Y025670D03*
X006236Y025640D03*
X006236Y025610D03*
X006236Y025580D03*
X006596Y025790D03*
X006596Y026030D03*
X006596Y026270D03*
X006596Y026510D03*
X006596Y026750D03*
X006596Y026990D03*
X006596Y027310D03*
X006596Y025150D03*
X007266Y024640D03*
X006636Y023470D03*
X006626Y023470D03*
X007286Y021890D03*
X007796Y021030D03*
X007796Y020910D03*
X007996Y020960D03*
X007996Y020990D03*
X007996Y021120D03*
X007996Y021150D03*
X007996Y020830D03*
X008496Y020830D03*
X008496Y020750D03*
X008496Y020630D03*
X008496Y020600D03*
X008496Y020250D03*
X008496Y020210D03*
X008496Y020180D03*
X008496Y020070D03*
X008506Y019270D03*
X008516Y019260D03*
X008206Y018890D03*
X007896Y018910D03*
X007896Y018850D03*
X007896Y018810D03*
X007896Y018970D03*
X007276Y020250D03*
X007266Y020250D03*
X006596Y019310D03*
X006236Y019500D03*
X006236Y019530D03*
X006236Y019580D03*
X006236Y019630D03*
X006236Y019660D03*
X006646Y017690D03*
X006596Y016270D03*
X006236Y016250D03*
X006236Y016220D03*
X006236Y016190D03*
X006236Y016140D03*
X006236Y016110D03*
X006236Y015960D03*
X006236Y015930D03*
X006236Y015900D03*
X006236Y015870D03*
X006236Y015820D03*
X006236Y015790D03*
X006236Y015180D03*
X006236Y015150D03*
X006236Y015010D03*
X006236Y014980D03*
X006236Y014950D03*
X006236Y014850D03*
X006236Y014820D03*
X006236Y014790D03*
X006236Y014760D03*
X006236Y014730D03*
X006236Y014700D03*
X006236Y014670D03*
X006236Y014620D03*
X006236Y014590D03*
X006236Y014520D03*
X006596Y014590D03*
X006596Y014830D03*
X006596Y015070D03*
X007466Y016970D03*
X007626Y016710D03*
X007796Y016190D03*
X007796Y016070D03*
X007796Y015950D03*
X007796Y015830D03*
X007996Y015830D03*
X007996Y015950D03*
X007996Y016080D03*
X007996Y016190D03*
X008496Y016250D03*
X008496Y016360D03*
X008496Y016090D03*
X008496Y015930D03*
X008496Y015770D03*
X008496Y015610D03*
X008496Y014810D03*
X008496Y014650D03*
X008496Y014550D03*
X008496Y017550D03*
X008496Y017690D03*
X008496Y020970D03*
X008496Y021230D03*
X008496Y021590D03*
X008496Y021710D03*
X008496Y021790D03*
X008496Y023230D03*
X008496Y023370D03*
X008516Y023650D03*
X008496Y024470D03*
X008496Y024610D03*
X004386Y015570D03*
X004386Y015330D03*
X004386Y015290D03*
X010376Y013710D03*
D17*
X010376Y013810D03*
X010266Y013810D03*
X008396Y019320D03*
X008386Y019330D03*
X007386Y020190D03*
X006516Y023530D03*
X006506Y023530D03*
X007386Y024580D03*
X008386Y023720D03*
X008396Y023710D03*
X007576Y016690D03*
X004406Y020310D03*
X004346Y021930D03*
X004466Y025210D03*
D18*
X004506Y025190D03*
X004346Y028610D03*
X006466Y023550D03*
X006476Y023550D03*
X007426Y024560D03*
X008346Y023740D03*
X008356Y023730D03*
X007426Y020170D03*
X008346Y019350D03*
X008366Y019340D03*
X008276Y018880D03*
X008516Y016960D03*
X007566Y016690D03*
X009476Y013810D03*
X009506Y013810D03*
X009536Y013810D03*
X011506Y013810D03*
X004426Y020310D03*
D19*
X004526Y020310D03*
X004516Y019280D03*
X004506Y019280D03*
X004496Y019270D03*
X004486Y019280D03*
X004476Y019280D03*
X004446Y019280D03*
X004426Y019280D03*
X004416Y019270D03*
X004406Y019280D03*
X004396Y019280D03*
X004546Y019280D03*
X004586Y019280D03*
X004626Y019280D03*
X004656Y019280D03*
X004706Y019280D03*
X004726Y019270D03*
X004736Y019280D03*
X004776Y019280D03*
X004826Y019280D03*
X004836Y019270D03*
X004846Y019280D03*
X004866Y019270D03*
X004876Y019280D03*
X004906Y019280D03*
X005286Y019280D03*
X005296Y019270D03*
X005326Y019280D03*
X005346Y019270D03*
X005356Y019280D03*
X005366Y019280D03*
X005386Y019280D03*
X005406Y019270D03*
X005416Y019280D03*
X005426Y019280D03*
X005436Y019270D03*
X005446Y019270D03*
X005456Y019280D03*
X005496Y019280D03*
X005526Y019280D03*
X005536Y019270D03*
X005546Y019280D03*
X005556Y019280D03*
X005566Y019280D03*
X005576Y019270D03*
X005586Y019280D03*
X005596Y019280D03*
X005636Y019280D03*
X005646Y019280D03*
X005656Y019270D03*
X005666Y019280D03*
X005676Y019280D03*
X005686Y019270D03*
X005696Y019280D03*
X005726Y019270D03*
X005736Y019280D03*
X005766Y019280D03*
X005786Y019280D03*
X005796Y019270D03*
X005816Y019280D03*
X005866Y019280D03*
X005896Y019280D03*
X005906Y019280D03*
X005916Y019270D03*
X005926Y019270D03*
X005936Y019280D03*
X005986Y019270D03*
X005996Y019280D03*
X006006Y019280D03*
X006016Y019270D03*
X006026Y019280D03*
X006036Y019280D03*
X006046Y019280D03*
X006056Y019270D03*
X006066Y019280D03*
X006076Y019280D03*
X006116Y019280D03*
X006126Y019280D03*
X006136Y019270D03*
X006146Y019280D03*
X006156Y019280D03*
X006176Y019280D03*
X006226Y019280D03*
X005866Y020300D03*
X005826Y020300D03*
X005806Y020310D03*
X005786Y020310D03*
X005776Y020310D03*
X005746Y020310D03*
X005736Y020310D03*
X005716Y020310D03*
X005676Y020300D03*
X005656Y020300D03*
X005616Y020980D03*
X005606Y020980D03*
X005596Y020980D03*
X005586Y020980D03*
X005566Y020980D03*
X005526Y020980D03*
X005516Y020970D03*
X005496Y020970D03*
X005486Y020980D03*
X005426Y020980D03*
X005416Y020980D03*
X005396Y020980D03*
X005386Y020980D03*
X005376Y020980D03*
X005336Y020990D03*
X005656Y020990D03*
X005656Y022900D03*
X005606Y022910D03*
X005596Y022910D03*
X005586Y022910D03*
X005566Y022910D03*
X005556Y022910D03*
X005536Y022910D03*
X005516Y022910D03*
X005496Y022910D03*
X005456Y022910D03*
X005436Y022910D03*
X005426Y022910D03*
X005416Y022910D03*
X005386Y022910D03*
X005376Y022910D03*
X005326Y022900D03*
X005416Y023640D03*
X005426Y023650D03*
X005446Y023650D03*
X005476Y023650D03*
X005496Y023650D03*
X005516Y023650D03*
X005526Y023650D03*
X005536Y023640D03*
X005546Y023650D03*
X005556Y023650D03*
X005566Y023650D03*
X005576Y023640D03*
X005586Y023650D03*
X005606Y023650D03*
X005616Y023650D03*
X005626Y023640D03*
X005636Y023650D03*
X005666Y023650D03*
X005676Y023650D03*
X005706Y023650D03*
X005716Y023650D03*
X005406Y023650D03*
X005396Y023650D03*
X005366Y023650D03*
X005326Y023650D03*
X005306Y023650D03*
X005246Y023650D03*
X005226Y023650D03*
X005196Y023650D03*
X005176Y023650D03*
X005136Y023650D03*
X005086Y023650D03*
X005066Y023650D03*
X005036Y023650D03*
X005026Y023650D03*
X004996Y023650D03*
X004986Y023640D03*
X004976Y023650D03*
X004966Y023650D03*
X004946Y023650D03*
X004936Y023640D03*
X004926Y023650D03*
X004916Y023650D03*
X004906Y023650D03*
X004896Y023640D03*
X004886Y023650D03*
X004876Y023650D03*
X004856Y023650D03*
X004836Y023650D03*
X004806Y023650D03*
X004786Y023650D03*
X004776Y023640D03*
X004766Y023650D03*
X004756Y023650D03*
X004726Y023650D03*
X004716Y023650D03*
X004696Y023650D03*
X004656Y023650D03*
X004606Y023650D03*
X004586Y023650D03*
X004556Y023650D03*
X004536Y023650D03*
X004496Y023650D03*
X004446Y023650D03*
X004426Y023650D03*
X004396Y023650D03*
X004696Y025090D03*
X004706Y025090D03*
X004706Y026430D03*
X004716Y026430D03*
X004726Y026430D03*
X004746Y026430D03*
X004776Y026430D03*
X004786Y026430D03*
X004796Y026430D03*
X004806Y026440D03*
X004816Y026430D03*
X004826Y026430D03*
X004836Y026430D03*
X004856Y026430D03*
X004866Y026430D03*
X004886Y026430D03*
X004896Y026430D03*
X004906Y026430D03*
X004916Y026430D03*
X004926Y026440D03*
X004936Y026430D03*
X004946Y026430D03*
X004956Y026430D03*
X004976Y026430D03*
X004986Y026430D03*
X005016Y026430D03*
X005026Y026430D03*
X005036Y026430D03*
X005066Y026430D03*
X005076Y026430D03*
X005096Y026430D03*
X005106Y026430D03*
X005136Y026430D03*
X005146Y026430D03*
X005156Y026430D03*
X005166Y026440D03*
X005176Y026430D03*
X005186Y026430D03*
X005196Y026430D03*
X005216Y026430D03*
X005236Y026430D03*
X005256Y026430D03*
X005266Y026430D03*
X005276Y026430D03*
X005286Y026440D03*
X005296Y026430D03*
X005306Y026430D03*
X005316Y026430D03*
X005336Y026430D03*
X005346Y026430D03*
X005376Y026430D03*
X005386Y026430D03*
X005396Y026430D03*
X005406Y026440D03*
X005416Y026430D03*
X005426Y026430D03*
X005436Y026430D03*
X005456Y026430D03*
X005476Y026430D03*
X005496Y026430D03*
X005506Y026430D03*
X005516Y026430D03*
X005536Y026430D03*
X005546Y026430D03*
X005556Y026430D03*
X005566Y026430D03*
X005576Y026430D03*
X005586Y026430D03*
X005596Y026440D03*
X005606Y026430D03*
X005616Y026430D03*
X005626Y026430D03*
X005636Y026430D03*
X005646Y026440D03*
X005656Y026430D03*
X005666Y026430D03*
X005676Y026430D03*
X005686Y026430D03*
X005696Y026430D03*
X005726Y026430D03*
X005736Y026430D03*
X005746Y026430D03*
X005756Y026430D03*
X005766Y026440D03*
X005776Y026430D03*
X005786Y026430D03*
X005796Y026430D03*
X005806Y026430D03*
X005816Y026430D03*
X005826Y026430D03*
X005836Y026440D03*
X005846Y026430D03*
X005856Y026430D03*
X005866Y026430D03*
X005876Y026430D03*
X005886Y026440D03*
X005896Y026430D03*
X005906Y026430D03*
X005916Y026430D03*
X005926Y026430D03*
X005936Y026430D03*
X005966Y026430D03*
X005976Y026430D03*
X005986Y026430D03*
X005996Y026430D03*
X006006Y026440D03*
X006016Y026430D03*
X006026Y026430D03*
X006036Y026430D03*
X006046Y026430D03*
X006056Y026430D03*
X006066Y026430D03*
X006076Y026440D03*
X006086Y026430D03*
X006096Y026430D03*
X006106Y026430D03*
X006116Y026430D03*
X006126Y026440D03*
X006136Y026430D03*
X006146Y026430D03*
X006156Y026430D03*
X006166Y026430D03*
X006186Y026430D03*
X006206Y026430D03*
X006126Y025100D03*
X006136Y025090D03*
X006146Y025090D03*
X006156Y025090D03*
X006176Y025090D03*
X006196Y025090D03*
X006216Y025090D03*
X006226Y025090D03*
X006236Y025090D03*
X006256Y025090D03*
X006266Y025090D03*
X006276Y025090D03*
X006296Y025090D03*
X006306Y025090D03*
X006316Y025090D03*
X006336Y025090D03*
X006346Y025090D03*
X006376Y025090D03*
X006396Y025090D03*
X006416Y025090D03*
X006426Y025090D03*
X006456Y025090D03*
X006476Y025090D03*
X006486Y025090D03*
X006496Y025090D03*
X006506Y025090D03*
X006516Y025090D03*
X006536Y025090D03*
X006546Y025090D03*
X006556Y025090D03*
X006576Y025090D03*
X006116Y025090D03*
X006106Y025090D03*
X006096Y025090D03*
X006076Y025090D03*
X006066Y025090D03*
X006056Y025090D03*
X006036Y025090D03*
X006026Y025090D03*
X006016Y025090D03*
X005996Y025090D03*
X005976Y025090D03*
X005946Y025090D03*
X005936Y025090D03*
X005916Y025090D03*
X005896Y025090D03*
X005866Y025090D03*
X005856Y025090D03*
X005836Y025090D03*
X005816Y025090D03*
X005786Y025090D03*
X005776Y025090D03*
X005756Y025090D03*
X005736Y025090D03*
X005706Y025090D03*
X005696Y025090D03*
X005676Y025090D03*
X005666Y025090D03*
X005656Y025090D03*
X005636Y025090D03*
X005626Y025090D03*
X005616Y025090D03*
X005596Y025090D03*
X005586Y025090D03*
X005576Y025090D03*
X005556Y025090D03*
X005536Y025090D03*
X005516Y025090D03*
X005506Y025090D03*
X005496Y025090D03*
X005486Y025100D03*
X005476Y025090D03*
X005466Y025090D03*
X005456Y025090D03*
X005436Y025090D03*
X005426Y025090D03*
X005416Y025090D03*
X005396Y025090D03*
X005386Y025090D03*
X005376Y025090D03*
X005356Y025090D03*
X005346Y025090D03*
X005336Y025090D03*
X005316Y025090D03*
X005296Y025090D03*
X005276Y025090D03*
X005266Y025090D03*
X005256Y025090D03*
X005236Y025090D03*
X004696Y026430D03*
X004686Y026440D03*
X004676Y026430D03*
X004666Y026430D03*
X004656Y026430D03*
X004626Y026430D03*
X004616Y026430D03*
X004596Y026430D03*
X004586Y026430D03*
X004576Y026430D03*
X004566Y026430D03*
X004556Y026430D03*
X004546Y026430D03*
X004536Y026430D03*
X004526Y026440D03*
X004516Y026430D03*
X004506Y026430D03*
X004496Y026430D03*
X004466Y026430D03*
X004456Y026430D03*
X004436Y026430D03*
X004426Y026430D03*
X004416Y026430D03*
X004406Y026440D03*
X004396Y026430D03*
X005376Y027650D03*
X005386Y027650D03*
X005396Y027650D03*
X005406Y027650D03*
X005426Y027650D03*
X005446Y027650D03*
X005456Y027640D03*
X005536Y027650D03*
X005546Y027650D03*
X005576Y027650D03*
X005586Y027650D03*
X005596Y027650D03*
X005606Y027650D03*
X005656Y027660D03*
X005646Y029570D03*
X005606Y029580D03*
X005586Y029580D03*
X005576Y029580D03*
X005556Y029580D03*
X005526Y029580D03*
X005496Y029580D03*
X005436Y029580D03*
X005416Y029580D03*
X005406Y029580D03*
X005396Y029580D03*
X005376Y029580D03*
X005346Y029570D03*
X005326Y029570D03*
X006636Y028610D03*
X007616Y024460D03*
X007626Y024460D03*
X008146Y023840D03*
X008156Y023830D03*
X007626Y020070D03*
X008146Y019450D03*
X007466Y018300D03*
X007286Y018580D03*
X007976Y016900D03*
X007776Y013810D03*
X007756Y013810D03*
X007736Y013810D03*
X007726Y013810D03*
X007716Y013810D03*
X007706Y013810D03*
X007696Y013810D03*
X007686Y013810D03*
X007676Y013810D03*
X007666Y013810D03*
X007656Y013810D03*
X007616Y013810D03*
X006226Y015390D03*
X006196Y015390D03*
X006186Y015390D03*
X006166Y015390D03*
X006156Y015390D03*
X006136Y015390D03*
X006126Y015390D03*
X006116Y015400D03*
X006106Y015390D03*
X006096Y015390D03*
X006086Y015390D03*
X006076Y015390D03*
X006066Y015390D03*
X006056Y015390D03*
X006046Y015400D03*
X006036Y015390D03*
X006026Y015390D03*
X006016Y015390D03*
X006006Y015390D03*
X005996Y015400D03*
X005986Y015390D03*
X005976Y015390D03*
X005966Y015390D03*
X005956Y015390D03*
X005946Y015390D03*
X005936Y015390D03*
X005926Y015400D03*
X005916Y015390D03*
X005906Y015390D03*
X005896Y015390D03*
X005886Y015390D03*
X005876Y015390D03*
X005856Y015390D03*
X005846Y015390D03*
X005836Y015390D03*
X005826Y015390D03*
X005816Y015390D03*
X005806Y015400D03*
X005796Y015390D03*
X005786Y015390D03*
X005776Y015390D03*
X005746Y015390D03*
X005736Y015390D03*
X005716Y015390D03*
X005706Y015390D03*
X005696Y015390D03*
X005686Y015400D03*
X005676Y015390D03*
X005666Y015390D03*
X005656Y015390D03*
X005646Y015390D03*
X005616Y015390D03*
X005606Y015390D03*
X005586Y015390D03*
X005576Y015390D03*
X005556Y015390D03*
X005546Y015390D03*
X005536Y015390D03*
X005506Y015390D03*
X005496Y015390D03*
X005476Y015390D03*
X005466Y015390D03*
X005456Y015390D03*
X005426Y015390D03*
X005416Y015390D03*
X005406Y015390D03*
X005396Y015390D03*
X005386Y015390D03*
X005376Y015390D03*
X005356Y015390D03*
X005346Y015390D03*
X005336Y015390D03*
X005316Y015390D03*
X005296Y015390D03*
X005266Y015390D03*
X005256Y015390D03*
X005236Y015390D03*
X005226Y015390D03*
X005216Y015390D03*
X005206Y015400D03*
X005196Y015390D03*
X005186Y015390D03*
X005176Y015390D03*
X005166Y015400D03*
X005156Y015390D03*
X005146Y015390D03*
X005136Y015390D03*
X005106Y015390D03*
X005096Y015390D03*
X005076Y015390D03*
X005066Y015390D03*
X005056Y015390D03*
X005046Y015400D03*
X005036Y015390D03*
X005026Y015390D03*
X005016Y015390D03*
X005006Y015390D03*
X004976Y015390D03*
X004966Y015390D03*
X004946Y015390D03*
X004936Y015390D03*
X004916Y015390D03*
X004906Y015390D03*
X004896Y015390D03*
X004866Y015390D03*
X004856Y015390D03*
X004836Y015390D03*
X004826Y015390D03*
X004816Y015390D03*
X004786Y015390D03*
X004776Y015390D03*
X004766Y015390D03*
X004756Y015390D03*
X004746Y015390D03*
X004736Y015390D03*
X004716Y015390D03*
X004706Y015390D03*
X004696Y015390D03*
X004676Y015390D03*
X004656Y015390D03*
X004626Y015390D03*
X004616Y015390D03*
X004596Y015390D03*
X004586Y015390D03*
X004576Y015390D03*
X004566Y015400D03*
X004556Y015390D03*
X004546Y015390D03*
X004536Y015390D03*
X004526Y015400D03*
X004516Y015390D03*
X004506Y015390D03*
X004496Y015390D03*
X004466Y015390D03*
X004456Y015390D03*
X004436Y015390D03*
X004426Y015390D03*
X004416Y015390D03*
X004406Y015400D03*
X004396Y015390D03*
X005326Y016620D03*
X005386Y016610D03*
X005396Y016610D03*
X005406Y016610D03*
X005426Y016610D03*
X005446Y016610D03*
X005476Y016600D03*
X005496Y016610D03*
X005506Y016600D03*
X005536Y016610D03*
X005566Y016610D03*
X005586Y016610D03*
X005596Y016610D03*
X005606Y016610D03*
X005666Y016620D03*
X005616Y018540D03*
X005586Y018540D03*
X005566Y018540D03*
X005556Y018540D03*
X005526Y018540D03*
X005486Y018540D03*
X005446Y018540D03*
X005436Y018540D03*
X005406Y018540D03*
X005396Y018540D03*
X005376Y018540D03*
X005346Y018530D03*
X005326Y018530D03*
X004356Y017570D03*
X004356Y021940D03*
X006276Y023650D03*
X006286Y023640D03*
D20*
X006616Y023480D03*
X007296Y024620D03*
X007286Y024630D03*
X006236Y025790D03*
X004366Y025260D03*
X004356Y020310D03*
X006236Y015630D03*
X006236Y015070D03*
X006236Y014910D03*
X008216Y018890D03*
X008486Y019280D03*
X008266Y017080D03*
X007286Y020240D03*
X008496Y023660D03*
X008486Y023670D03*
D21*
X008506Y023655D03*
X008496Y023265D03*
X008496Y023185D03*
X008496Y021825D03*
X008496Y021745D03*
X008496Y021665D03*
X008496Y021625D03*
X008496Y021265D03*
X008496Y021185D03*
X008496Y021145D03*
X008496Y021105D03*
X008496Y021045D03*
X008496Y020865D03*
X008496Y020785D03*
X008496Y020705D03*
X008496Y020665D03*
X008496Y020565D03*
X008496Y020145D03*
X008496Y019275D03*
X008526Y018625D03*
X008526Y018585D03*
X008526Y018545D03*
X008496Y017735D03*
X008496Y017645D03*
X008496Y017605D03*
X008496Y016325D03*
X008496Y016205D03*
X008496Y016165D03*
X008496Y016045D03*
X008496Y016005D03*
X008496Y015885D03*
X008496Y015845D03*
X008496Y015725D03*
X008496Y015685D03*
X008496Y014765D03*
X008496Y014725D03*
X008496Y014605D03*
X007996Y016025D03*
X006236Y016035D03*
X006236Y015995D03*
X006236Y016075D03*
X006236Y015755D03*
X006236Y015115D03*
X006236Y014555D03*
X004386Y015255D03*
X004386Y015435D03*
X004386Y015475D03*
X004386Y015515D03*
X004386Y019105D03*
X004386Y019275D03*
X004386Y019315D03*
X004386Y019355D03*
X004386Y019435D03*
X004386Y023515D03*
X004386Y023555D03*
X004386Y023595D03*
X004386Y023635D03*
X004386Y023675D03*
X004386Y023735D03*
X004356Y025265D03*
X004386Y026335D03*
X004386Y026475D03*
X004386Y026515D03*
X004386Y026555D03*
X006236Y026795D03*
X006236Y027035D03*
X006236Y026155D03*
X006236Y025945D03*
X007276Y024635D03*
X008496Y024545D03*
X008496Y024505D03*
X007996Y021065D03*
X007996Y020905D03*
D22*
X007616Y020075D03*
X008176Y019435D03*
X008326Y018835D03*
X008316Y018285D03*
X007836Y017095D03*
X007986Y016885D03*
X007306Y016985D03*
X006636Y017575D03*
X006216Y019275D03*
X006186Y019275D03*
X006166Y019275D03*
X006106Y019275D03*
X006086Y019275D03*
X005966Y019275D03*
X005946Y019275D03*
X005886Y019275D03*
X005856Y019275D03*
X005826Y019275D03*
X005776Y019275D03*
X005746Y019275D03*
X005706Y019275D03*
X005626Y019275D03*
X005606Y019275D03*
X005506Y019275D03*
X005486Y019275D03*
X005466Y019275D03*
X005376Y019275D03*
X005316Y019275D03*
X004896Y019275D03*
X004816Y019275D03*
X004786Y019275D03*
X004766Y019275D03*
X004746Y019275D03*
X004696Y019275D03*
X004666Y019275D03*
X004646Y019275D03*
X004616Y019275D03*
X004576Y019275D03*
X004556Y019275D03*
X004526Y019275D03*
X004466Y019275D03*
X004436Y019275D03*
X005476Y018545D03*
X005506Y018545D03*
X005456Y020975D03*
X005456Y023645D03*
X005506Y023645D03*
X005386Y023645D03*
X005346Y023645D03*
X005316Y023645D03*
X005286Y023645D03*
X005266Y023645D03*
X005236Y023645D03*
X005206Y023645D03*
X005186Y023645D03*
X005156Y023645D03*
X005126Y023645D03*
X005106Y023645D03*
X005076Y023645D03*
X005046Y023645D03*
X005016Y023645D03*
X004866Y023645D03*
X004816Y023645D03*
X004746Y023645D03*
X004706Y023645D03*
X004676Y023645D03*
X004646Y023645D03*
X004626Y023645D03*
X004596Y023645D03*
X004566Y023645D03*
X004546Y023645D03*
X004516Y023645D03*
X004486Y023645D03*
X004466Y023645D03*
X004436Y023645D03*
X004406Y023645D03*
X004676Y025105D03*
X004636Y026435D03*
X004756Y026435D03*
X004876Y026435D03*
X004996Y026435D03*
X005046Y026435D03*
X005116Y026435D03*
X005206Y026435D03*
X005246Y026435D03*
X005326Y026435D03*
X005366Y026435D03*
X005446Y026435D03*
X005486Y026435D03*
X005716Y026435D03*
X005956Y026435D03*
X006176Y026435D03*
X006216Y026435D03*
X006186Y025095D03*
X006356Y025095D03*
X006386Y025095D03*
X006436Y025095D03*
X006466Y025095D03*
X006526Y025095D03*
X006586Y025095D03*
X005986Y025095D03*
X005956Y025095D03*
X005906Y025095D03*
X005876Y025095D03*
X005826Y025095D03*
X005796Y025095D03*
X005746Y025095D03*
X005716Y025095D03*
X005546Y025095D03*
X005306Y025095D03*
X005656Y023645D03*
X005686Y023645D03*
X005726Y023645D03*
X006636Y021945D03*
X007486Y022085D03*
X008166Y023825D03*
X005496Y027645D03*
X005506Y029585D03*
X005476Y029585D03*
X004356Y028605D03*
X004446Y026435D03*
X004486Y026435D03*
X004486Y015395D03*
X004446Y015395D03*
X004606Y015395D03*
X004646Y015395D03*
X004686Y015395D03*
X004806Y015395D03*
X004876Y015395D03*
X004926Y015395D03*
X004996Y015395D03*
X005086Y015395D03*
X005126Y015395D03*
X005246Y015395D03*
X005286Y015395D03*
X005326Y015395D03*
X005446Y015395D03*
X005516Y015395D03*
X005566Y015395D03*
X005636Y015395D03*
X005726Y015395D03*
X005766Y015395D03*
X006176Y015395D03*
X006216Y015395D03*
X007746Y013815D03*
X007766Y013815D03*
X007796Y013815D03*
X007806Y013805D03*
X007816Y013815D03*
D23*
X007146Y013810D03*
X007126Y013810D03*
X007116Y013810D03*
X007106Y013810D03*
X007096Y013810D03*
X007086Y013810D03*
X007076Y013810D03*
X007066Y013810D03*
X007056Y013810D03*
X007026Y013810D03*
X007016Y013810D03*
X006026Y016770D03*
X006046Y016780D03*
X006046Y018370D03*
X006036Y018370D03*
X006116Y020190D03*
X006026Y021140D03*
X006036Y021150D03*
X006046Y021150D03*
X006066Y021170D03*
X005396Y020190D03*
X005386Y020180D03*
X004966Y021140D03*
X004936Y021160D03*
X004566Y020310D03*
X004966Y018380D03*
X004936Y018360D03*
X004936Y016790D03*
X004966Y016770D03*
X004366Y017570D03*
X004926Y022720D03*
X004936Y022730D03*
X004956Y022740D03*
X004966Y022750D03*
X006026Y022750D03*
X006036Y022740D03*
X006046Y022740D03*
X006066Y022720D03*
X006196Y023690D03*
X007316Y021790D03*
X007706Y020030D03*
X008066Y019490D03*
X008486Y018580D03*
X008436Y016960D03*
X008466Y014760D03*
X009576Y013810D03*
X007336Y016980D03*
X008466Y021790D03*
X008076Y023870D03*
X008066Y023880D03*
X007706Y024420D03*
X006026Y027810D03*
X006046Y027820D03*
X006056Y029400D03*
X006036Y029410D03*
X004966Y029420D03*
X004936Y029400D03*
X004936Y027830D03*
X004966Y027810D03*
X004786Y025050D03*
X004776Y025050D03*
D24*
X004386Y025250D03*
X004366Y020310D03*
X006606Y023480D03*
X007306Y024620D03*
X008466Y023680D03*
X008476Y023670D03*
X007306Y020230D03*
X008226Y018890D03*
X008476Y019280D03*
X008466Y019290D03*
X012406Y013810D03*
X012426Y013810D03*
X012446Y013810D03*
X012466Y013810D03*
X012486Y013810D03*
X012506Y013810D03*
X012536Y013810D03*
X012556Y013810D03*
X012566Y013810D03*
X012586Y013810D03*
X012606Y013810D03*
X012626Y013810D03*
X012656Y013810D03*
X012676Y013810D03*
X012686Y013810D03*
X012706Y013810D03*
X012726Y013810D03*
X012746Y013810D03*
X012776Y013810D03*
X012796Y013810D03*
X012806Y013810D03*
X012826Y013810D03*
X012846Y013810D03*
X012866Y013810D03*
X012886Y013810D03*
X012906Y013810D03*
X012926Y013810D03*
X012946Y013810D03*
X012966Y013810D03*
X012986Y013810D03*
X013006Y013810D03*
X013026Y013810D03*
X013046Y013810D03*
X013066Y013810D03*
X013086Y013810D03*
X013106Y013810D03*
X013126Y013810D03*
X013146Y013810D03*
X013166Y013810D03*
X013186Y013810D03*
X013206Y013810D03*
X013226Y013810D03*
X013246Y013810D03*
X013266Y013810D03*
X013286Y013810D03*
D25*
X008456Y014775D03*
X007326Y014775D03*
X006916Y013805D03*
X006886Y013805D03*
X006856Y013805D03*
X006806Y013805D03*
X006096Y016825D03*
X006106Y016835D03*
X006116Y018305D03*
X006106Y018315D03*
X006096Y018325D03*
X006156Y020155D03*
X006096Y021195D03*
X006106Y021205D03*
X006116Y021215D03*
X006116Y022675D03*
X006106Y022685D03*
X006176Y023695D03*
X006166Y023705D03*
X004896Y022695D03*
X004886Y022685D03*
X004876Y022675D03*
X004366Y021945D03*
X004886Y021205D03*
X004896Y021195D03*
X005356Y020155D03*
X004896Y018325D03*
X004886Y018315D03*
X004876Y018305D03*
X004886Y016835D03*
X004896Y016825D03*
X007306Y018585D03*
X008046Y019495D03*
X008456Y021795D03*
X007326Y021805D03*
X004796Y025045D03*
X004896Y027865D03*
X004886Y027875D03*
X004886Y029355D03*
X004896Y029365D03*
X006106Y029355D03*
X006626Y028615D03*
X006116Y027885D03*
X006106Y027875D03*
X006096Y027865D03*
D26*
X006096Y029360D03*
X006076Y029380D03*
X004916Y029380D03*
X004906Y027860D03*
X004366Y028620D03*
X004806Y025040D03*
X004916Y022710D03*
X004906Y022700D03*
X004926Y021170D03*
X004576Y020310D03*
X005366Y020160D03*
X006146Y020160D03*
X006076Y018340D03*
X004926Y018350D03*
X004906Y018330D03*
X004906Y016820D03*
X006876Y013810D03*
X006896Y013810D03*
X006906Y013810D03*
X006926Y013810D03*
X006936Y013810D03*
X006946Y013810D03*
X006956Y013810D03*
X006966Y013810D03*
X006976Y013810D03*
X006986Y013810D03*
X007006Y013810D03*
X008426Y016960D03*
X008056Y019500D03*
X007726Y020020D03*
X006096Y022700D03*
X006086Y022700D03*
X006076Y022710D03*
X007716Y024410D03*
X008056Y023880D03*
X010106Y013810D03*
X010236Y013820D03*
D27*
X008366Y016960D03*
X008356Y016960D03*
X008346Y016950D03*
X007326Y018580D03*
X006616Y017570D03*
X006226Y016970D03*
X006216Y018190D03*
X004776Y018190D03*
X004376Y017570D03*
X004776Y021330D03*
X004776Y022560D03*
X004896Y024990D03*
X004906Y024990D03*
X006216Y022560D03*
X004776Y028000D03*
X004376Y028610D03*
X004776Y029230D03*
X006216Y029230D03*
X008406Y021850D03*
X006266Y013810D03*
X006256Y013810D03*
X006216Y013810D03*
X006196Y013810D03*
D28*
X008456Y019290D03*
X008446Y019300D03*
X007326Y020220D03*
X006586Y023490D03*
X006576Y023500D03*
X006566Y023500D03*
X007326Y024610D03*
X008456Y023680D03*
X004406Y025240D03*
X004376Y020310D03*
D29*
X004796Y021300D03*
X004376Y021940D03*
X004796Y022590D03*
X004876Y025000D03*
X006096Y023740D03*
X006106Y023730D03*
X006196Y022590D03*
X006206Y021310D03*
X006206Y020090D03*
X006196Y018220D03*
X006206Y016940D03*
X006196Y016930D03*
X007356Y014810D03*
X006416Y013810D03*
X006386Y013810D03*
X006376Y013810D03*
X006366Y013810D03*
X006356Y013810D03*
X006336Y013810D03*
X004796Y016930D03*
X004786Y016940D03*
X004796Y018220D03*
X004806Y018230D03*
X008326Y016930D03*
X008376Y016960D03*
X009726Y013810D03*
X009746Y013810D03*
X008416Y021840D03*
X006196Y027970D03*
X006206Y027980D03*
X006196Y029260D03*
X004796Y029260D03*
X004796Y027970D03*
D30*
X004376Y025255D03*
X006596Y023485D03*
X007296Y020235D03*
X008496Y020915D03*
X008496Y023315D03*
X008526Y016955D03*
X007616Y016705D03*
X006236Y015705D03*
X004386Y015385D03*
X004386Y019225D03*
X012416Y013805D03*
X012436Y013805D03*
X012456Y013805D03*
X012476Y013805D03*
X012496Y013805D03*
X012516Y013805D03*
X012526Y013805D03*
X012546Y013805D03*
X012576Y013805D03*
X012596Y013805D03*
X012616Y013805D03*
X012636Y013805D03*
X012646Y013805D03*
X012666Y013805D03*
X012696Y013805D03*
X012716Y013805D03*
X012736Y013805D03*
X012756Y013805D03*
X012766Y013805D03*
X012786Y013805D03*
X012816Y013805D03*
X012836Y013805D03*
X012856Y013805D03*
X012876Y013805D03*
X012896Y013805D03*
X012916Y013805D03*
X012936Y013805D03*
X012956Y013805D03*
X012976Y013805D03*
X012996Y013805D03*
X013016Y013805D03*
X013036Y013805D03*
X013056Y013805D03*
X013076Y013805D03*
X013096Y013805D03*
X013116Y013805D03*
X013136Y013805D03*
X013156Y013805D03*
X013176Y013805D03*
X013196Y013805D03*
X013216Y013805D03*
X013236Y013805D03*
X013256Y013805D03*
X013276Y013805D03*
X013296Y013805D03*
D31*
X008356Y014855D03*
X007416Y016965D03*
X007346Y018585D03*
X006606Y017575D03*
X006256Y018125D03*
X004736Y018125D03*
X004386Y017575D03*
X004736Y021395D03*
X004386Y021945D03*
X004736Y022495D03*
X004966Y024965D03*
X006006Y023785D03*
X006016Y023775D03*
X006256Y022495D03*
X006606Y021945D03*
X007426Y021885D03*
X006256Y029165D03*
X004736Y029165D03*
X004386Y028615D03*
X005686Y013805D03*
X005706Y013805D03*
X005716Y013805D03*
X005726Y013805D03*
X005736Y013805D03*
X005746Y013805D03*
X005756Y013805D03*
X005766Y013805D03*
X005776Y013805D03*
D32*
X007596Y016700D03*
X007346Y020210D03*
X008436Y023690D03*
X008426Y023700D03*
X007346Y024600D03*
X004386Y020310D03*
X010776Y013810D03*
X010826Y013810D03*
X010856Y013810D03*
X010876Y013810D03*
X010896Y013810D03*
X010916Y013810D03*
X010936Y013810D03*
X010946Y013810D03*
X010966Y013810D03*
X010996Y013810D03*
X011016Y013810D03*
X011036Y013810D03*
X011056Y013810D03*
X011066Y013810D03*
X011086Y013810D03*
X011096Y013810D03*
X011106Y013810D03*
X011136Y013810D03*
X011146Y013810D03*
X011156Y013810D03*
X011166Y013810D03*
X011186Y013810D03*
X011206Y013810D03*
X011226Y013810D03*
X011246Y013810D03*
X011266Y013810D03*
X011286Y013810D03*
X011306Y013810D03*
X011326Y013810D03*
X011346Y013810D03*
X011366Y013810D03*
X011386Y013810D03*
X011406Y013810D03*
X011426Y013810D03*
X011446Y013810D03*
X011466Y013810D03*
X011486Y013810D03*
X011666Y013810D03*
X011676Y013810D03*
X011686Y013810D03*
X011696Y013810D03*
X011706Y013810D03*
X011716Y013810D03*
X011726Y013810D03*
X011736Y013810D03*
X011746Y013810D03*
X011756Y013810D03*
X011766Y013810D03*
X011776Y013810D03*
X011786Y013810D03*
X011796Y013810D03*
X011806Y013810D03*
X011816Y013810D03*
X011836Y013810D03*
X011846Y013810D03*
X011856Y013810D03*
X011866Y013810D03*
X011876Y013810D03*
X011886Y013810D03*
X011896Y013810D03*
X011906Y013810D03*
X011916Y013810D03*
X011926Y013810D03*
X011936Y013810D03*
X011946Y013810D03*
X011956Y013810D03*
X011966Y013810D03*
X011976Y013810D03*
X011986Y013810D03*
X011996Y013810D03*
X012006Y013810D03*
X012016Y013810D03*
X012026Y013810D03*
X012036Y013810D03*
X012046Y013810D03*
X012056Y013810D03*
X012066Y013810D03*
X012076Y013810D03*
X012086Y013810D03*
X012096Y013810D03*
X012106Y013810D03*
X012116Y013810D03*
X012126Y013810D03*
X012146Y013810D03*
X012156Y013810D03*
X012166Y013810D03*
X012186Y013810D03*
X012196Y013810D03*
X012206Y013810D03*
X012216Y013810D03*
X012226Y013810D03*
X012246Y013810D03*
X012266Y013810D03*
X012306Y013810D03*
X012326Y013810D03*
D33*
X010016Y013805D03*
X009986Y013805D03*
X008306Y014885D03*
X007476Y014885D03*
X007456Y016955D03*
X007366Y018585D03*
X005386Y013805D03*
X005366Y013805D03*
X005346Y013805D03*
X005336Y013805D03*
X005326Y013805D03*
X005316Y013805D03*
X005306Y013805D03*
X005296Y013805D03*
X005266Y013805D03*
X005246Y013805D03*
X004396Y017575D03*
X004716Y018075D03*
X004716Y021435D03*
X004396Y021945D03*
X004716Y022445D03*
X005026Y024925D03*
X004716Y028105D03*
X004716Y029115D03*
X006596Y028615D03*
D34*
X008416Y023700D03*
X007366Y020200D03*
X008406Y019320D03*
X008416Y019310D03*
X007476Y016310D03*
X010486Y013810D03*
X010496Y013820D03*
X010506Y013810D03*
X010516Y013820D03*
X010526Y013810D03*
X010616Y013810D03*
X006536Y023510D03*
X004446Y025220D03*
X004396Y020310D03*
D35*
X004396Y025245D03*
X007316Y024615D03*
X007316Y020225D03*
X008276Y017085D03*
X007606Y016705D03*
D36*
X006596Y017570D03*
X005286Y013800D03*
X005276Y013800D03*
X005256Y013800D03*
X005236Y013800D03*
X005226Y013800D03*
X005216Y013800D03*
X005166Y013800D03*
X006596Y021940D03*
X007476Y021910D03*
X005936Y023820D03*
X004396Y028610D03*
D37*
X004406Y028615D03*
X004706Y029085D03*
X006286Y028145D03*
X006586Y028615D03*
X005886Y023845D03*
X005896Y023835D03*
X007286Y020915D03*
X007306Y020915D03*
X007326Y020915D03*
X007346Y020915D03*
X007376Y020915D03*
X007406Y020915D03*
X007426Y020915D03*
X007456Y020915D03*
X008306Y020915D03*
X008336Y020915D03*
X008366Y020915D03*
X008386Y020915D03*
X008416Y020915D03*
X008446Y020915D03*
X008466Y020915D03*
X008486Y020915D03*
X007386Y018585D03*
X007396Y015985D03*
X007406Y015985D03*
X007426Y015985D03*
X007446Y015985D03*
X007466Y015985D03*
X007376Y015985D03*
X007346Y015985D03*
X007306Y015985D03*
X007296Y015985D03*
X008306Y015985D03*
X008336Y015985D03*
X008356Y015985D03*
X008366Y015985D03*
X008406Y015985D03*
X008426Y015985D03*
X008456Y015985D03*
X008476Y015985D03*
X004936Y013805D03*
X004896Y013805D03*
X004886Y013805D03*
X004876Y013805D03*
X004856Y013805D03*
X004836Y013805D03*
X004406Y017575D03*
X004406Y021945D03*
D38*
X004416Y021945D03*
X005146Y024865D03*
X006576Y021945D03*
X007406Y018585D03*
X008376Y018585D03*
X006576Y017575D03*
X004416Y017575D03*
X004466Y013805D03*
X004486Y013805D03*
X004426Y013795D03*
X004416Y028615D03*
X006576Y028615D03*
D39*
X007406Y024570D03*
X007416Y024560D03*
X008376Y023720D03*
X007406Y020180D03*
X008266Y018880D03*
X011626Y013810D03*
X004416Y020310D03*
D40*
X004456Y019275D03*
X004536Y019275D03*
X004566Y019275D03*
X004596Y019275D03*
X004606Y019275D03*
X004636Y019275D03*
X004676Y019275D03*
X004686Y019275D03*
X004716Y019275D03*
X004756Y019275D03*
X004796Y019275D03*
X004806Y019275D03*
X004856Y019275D03*
X004886Y019275D03*
X005276Y019275D03*
X005306Y019275D03*
X005336Y019275D03*
X005396Y019275D03*
X005476Y019275D03*
X005516Y019275D03*
X005616Y019275D03*
X005716Y019275D03*
X005756Y019275D03*
X005806Y019275D03*
X005836Y019275D03*
X005846Y019275D03*
X005876Y019275D03*
X005956Y019275D03*
X005976Y019275D03*
X006096Y019275D03*
X006196Y019275D03*
X006206Y019275D03*
X005766Y018505D03*
X005736Y018515D03*
X005726Y018515D03*
X005706Y018515D03*
X005696Y018525D03*
X005686Y018525D03*
X005676Y018525D03*
X005666Y018525D03*
X005656Y018535D03*
X005646Y018535D03*
X005636Y018535D03*
X005626Y018535D03*
X005606Y018535D03*
X005596Y018535D03*
X005576Y018545D03*
X005546Y018545D03*
X005536Y018545D03*
X005516Y018545D03*
X005496Y018545D03*
X005466Y018545D03*
X005456Y018545D03*
X005426Y018545D03*
X005416Y018545D03*
X005386Y018535D03*
X005366Y018535D03*
X005356Y018535D03*
X005316Y018525D03*
X005306Y018525D03*
X005296Y018525D03*
X005286Y018525D03*
X005266Y018515D03*
X005256Y018515D03*
X005226Y018505D03*
X005616Y020295D03*
X005626Y020295D03*
X005636Y020295D03*
X005666Y020305D03*
X005686Y020305D03*
X005696Y020305D03*
X005706Y020305D03*
X005726Y020305D03*
X005756Y020305D03*
X005766Y020305D03*
X005796Y020305D03*
X005816Y020305D03*
X005836Y020305D03*
X005846Y020305D03*
X005856Y020295D03*
X005876Y020295D03*
X005886Y020295D03*
X005896Y020295D03*
X005906Y020285D03*
X005916Y020285D03*
X005926Y020285D03*
X005706Y020995D03*
X005696Y020995D03*
X005686Y020995D03*
X005676Y020995D03*
X005646Y020985D03*
X005636Y020985D03*
X005626Y020985D03*
X005576Y020975D03*
X005556Y020975D03*
X005546Y020975D03*
X005536Y020975D03*
X005506Y020975D03*
X005476Y020975D03*
X005466Y020975D03*
X005446Y020975D03*
X005436Y020975D03*
X005406Y020975D03*
X005366Y020985D03*
X005356Y020985D03*
X005346Y020985D03*
X005316Y020995D03*
X005306Y020995D03*
X005296Y020995D03*
X005286Y020995D03*
X005276Y020995D03*
X005266Y021005D03*
X005256Y021005D03*
X005726Y021005D03*
X005736Y021005D03*
X005756Y022875D03*
X005736Y022885D03*
X005726Y022885D03*
X005696Y022895D03*
X005686Y022895D03*
X005676Y022895D03*
X005646Y022905D03*
X005636Y022905D03*
X005626Y022905D03*
X005616Y022905D03*
X005576Y022915D03*
X005546Y022915D03*
X005526Y022915D03*
X005506Y022915D03*
X005486Y022915D03*
X005476Y022915D03*
X005466Y022915D03*
X005446Y022915D03*
X005406Y022915D03*
X005396Y022905D03*
X005366Y022905D03*
X005356Y022905D03*
X005346Y022905D03*
X005336Y022905D03*
X005316Y022895D03*
X005306Y022895D03*
X005296Y022895D03*
X005276Y022885D03*
X005256Y022885D03*
X005226Y022875D03*
X005216Y023645D03*
X005256Y023645D03*
X005276Y023645D03*
X005296Y023645D03*
X005336Y023645D03*
X005356Y023645D03*
X005376Y023645D03*
X005436Y023645D03*
X005466Y023645D03*
X005486Y023645D03*
X005596Y023645D03*
X005646Y023645D03*
X005696Y023645D03*
X005736Y023645D03*
X005166Y023645D03*
X005146Y023645D03*
X005116Y023645D03*
X005096Y023645D03*
X005056Y023645D03*
X005006Y023645D03*
X004956Y023645D03*
X004846Y023645D03*
X004826Y023645D03*
X004796Y023645D03*
X004736Y023645D03*
X004686Y023645D03*
X004666Y023645D03*
X004636Y023645D03*
X004616Y023645D03*
X004576Y023645D03*
X004526Y023645D03*
X004506Y023645D03*
X004476Y023645D03*
X004456Y023645D03*
X004416Y023645D03*
X004716Y025085D03*
X005246Y025095D03*
X005286Y025095D03*
X005326Y025095D03*
X005366Y025095D03*
X005406Y025095D03*
X005446Y025095D03*
X005526Y025095D03*
X005566Y025095D03*
X005606Y025095D03*
X005646Y025095D03*
X005686Y025095D03*
X005726Y025095D03*
X005766Y025095D03*
X005806Y025095D03*
X005846Y025095D03*
X005886Y025095D03*
X005926Y025095D03*
X005966Y025095D03*
X006006Y025095D03*
X006046Y025095D03*
X006086Y025095D03*
X006166Y025095D03*
X006206Y025095D03*
X006246Y025095D03*
X006286Y025095D03*
X006326Y025095D03*
X006366Y025095D03*
X006406Y025095D03*
X006446Y025095D03*
X006566Y025095D03*
X006236Y026435D03*
X006226Y026435D03*
X006196Y026435D03*
X005946Y026435D03*
X005706Y026435D03*
X005526Y026435D03*
X005466Y026435D03*
X005356Y026435D03*
X005226Y026435D03*
X005126Y026435D03*
X005086Y026435D03*
X005056Y026435D03*
X005006Y026435D03*
X004966Y026435D03*
X004846Y026435D03*
X004766Y026435D03*
X004736Y026435D03*
X004646Y026435D03*
X004606Y026435D03*
X004476Y026435D03*
X005256Y027675D03*
X005266Y027675D03*
X005286Y027665D03*
X005296Y027665D03*
X005306Y027665D03*
X005316Y027665D03*
X005326Y027655D03*
X005336Y027655D03*
X005346Y027655D03*
X005356Y027655D03*
X005366Y027655D03*
X005416Y027645D03*
X005436Y027645D03*
X005466Y027645D03*
X005476Y027645D03*
X005486Y027645D03*
X005506Y027645D03*
X005516Y027645D03*
X005526Y027645D03*
X005556Y027645D03*
X005566Y027645D03*
X005616Y027655D03*
X005626Y027655D03*
X005636Y027655D03*
X005646Y027655D03*
X005666Y027655D03*
X005676Y027665D03*
X005686Y027665D03*
X005696Y027665D03*
X005726Y027675D03*
X005736Y027675D03*
X005766Y027685D03*
X005766Y029545D03*
X005756Y029545D03*
X005736Y029555D03*
X005716Y029555D03*
X005706Y029565D03*
X005696Y029565D03*
X005686Y029565D03*
X005676Y029565D03*
X005666Y029575D03*
X005656Y029575D03*
X005636Y029575D03*
X005626Y029575D03*
X005616Y029575D03*
X005596Y029575D03*
X005566Y029585D03*
X005546Y029585D03*
X005536Y029585D03*
X005516Y029585D03*
X005486Y029585D03*
X005466Y029585D03*
X005456Y029585D03*
X005446Y029585D03*
X005426Y029585D03*
X005386Y029575D03*
X005366Y029575D03*
X005356Y029575D03*
X005316Y029565D03*
X005306Y029565D03*
X005296Y029565D03*
X005286Y029565D03*
X005266Y029555D03*
X005256Y029555D03*
X005226Y029545D03*
X008486Y021745D03*
X007636Y020065D03*
X007476Y020725D03*
X008156Y019445D03*
X007846Y017085D03*
X007856Y017075D03*
X007966Y016915D03*
X008466Y016965D03*
X008486Y014725D03*
X007646Y013815D03*
X007636Y013805D03*
X007626Y013815D03*
X007596Y013815D03*
X007486Y015055D03*
X006206Y015395D03*
X006146Y015395D03*
X005866Y015395D03*
X005756Y015395D03*
X005626Y015395D03*
X005596Y015395D03*
X005526Y015395D03*
X005486Y015395D03*
X005436Y015395D03*
X005366Y015395D03*
X005306Y015395D03*
X005276Y015395D03*
X005116Y015395D03*
X004986Y015395D03*
X004956Y015395D03*
X004886Y015395D03*
X004846Y015395D03*
X004796Y015395D03*
X004726Y015395D03*
X004666Y015395D03*
X004636Y015395D03*
X004476Y015395D03*
X005256Y016635D03*
X005286Y016625D03*
X005296Y016625D03*
X005306Y016625D03*
X005316Y016625D03*
X005336Y016615D03*
X005346Y016615D03*
X005356Y016615D03*
X005366Y016615D03*
X005376Y016615D03*
X005416Y016605D03*
X005436Y016605D03*
X005456Y016605D03*
X005466Y016605D03*
X005486Y016605D03*
X005516Y016605D03*
X005526Y016605D03*
X005546Y016605D03*
X005556Y016605D03*
X005576Y016605D03*
X005616Y016615D03*
X005626Y016615D03*
X005636Y016615D03*
X005646Y016615D03*
X005656Y016615D03*
X005676Y016625D03*
X005686Y016625D03*
X005696Y016625D03*
X005706Y016625D03*
X005716Y016635D03*
X005736Y016635D03*
D41*
X007336Y020215D03*
X008236Y018885D03*
X008436Y019305D03*
X008286Y017085D03*
X010976Y013815D03*
X011006Y013815D03*
X011046Y013815D03*
X011116Y013815D03*
X011126Y013815D03*
X011176Y013815D03*
X011196Y013815D03*
X011216Y013815D03*
X011236Y013815D03*
X011256Y013815D03*
X011276Y013815D03*
X011296Y013815D03*
X011316Y013815D03*
X011336Y013815D03*
X011356Y013815D03*
X011376Y013815D03*
X011396Y013815D03*
X011416Y013815D03*
X011436Y013815D03*
X011456Y013815D03*
X011476Y013815D03*
X011706Y013815D03*
X011756Y013815D03*
X011806Y013815D03*
X011826Y013815D03*
X011826Y013805D03*
X008446Y023685D03*
X007336Y024605D03*
X004416Y025235D03*
D42*
X005186Y024845D03*
X005806Y023885D03*
X006536Y019525D03*
X007436Y018575D03*
X004426Y017575D03*
X004426Y028615D03*
D43*
X005196Y024840D03*
X005776Y023900D03*
X004426Y021940D03*
X007446Y018570D03*
X008356Y018580D03*
D44*
X008246Y018885D03*
X008426Y019305D03*
X007476Y020985D03*
X007476Y021105D03*
X007356Y020205D03*
X008296Y017095D03*
X007476Y016185D03*
X010536Y013815D03*
X010556Y013815D03*
X010566Y013815D03*
X010586Y013815D03*
X010596Y013815D03*
X010606Y013815D03*
X010626Y013815D03*
X010636Y013815D03*
X010646Y013815D03*
X010656Y013815D03*
X010666Y013815D03*
X010676Y013815D03*
X010686Y013815D03*
X010696Y013815D03*
X010706Y013815D03*
X010716Y013815D03*
X010726Y013815D03*
X010736Y013815D03*
X010746Y013815D03*
X010756Y013815D03*
X010766Y013815D03*
X010786Y013815D03*
X010796Y013815D03*
X010806Y013815D03*
X010816Y013815D03*
X010836Y013815D03*
X010846Y013815D03*
X010866Y013815D03*
X010886Y013815D03*
X010906Y013815D03*
X010926Y013815D03*
X010956Y013815D03*
X010986Y013815D03*
X011026Y013815D03*
X011076Y013815D03*
X012136Y013805D03*
X012176Y013805D03*
X012236Y013805D03*
X012256Y013805D03*
X012276Y013805D03*
X012286Y013805D03*
X012296Y013805D03*
X012316Y013805D03*
X012336Y013805D03*
X012346Y013805D03*
X012356Y013805D03*
X012366Y013805D03*
X012376Y013805D03*
X012386Y013805D03*
X012396Y013805D03*
X007366Y024585D03*
X007356Y024595D03*
X006546Y023515D03*
X006556Y023505D03*
X004436Y025225D03*
X004426Y025235D03*
D45*
X004436Y021945D03*
X004436Y017575D03*
X006556Y017575D03*
X006516Y019545D03*
X006556Y021945D03*
X006556Y028615D03*
X004436Y028615D03*
D46*
X004526Y025180D03*
X006456Y023560D03*
X006646Y021940D03*
X007556Y021660D03*
X007766Y021660D03*
X007886Y021660D03*
X007936Y021660D03*
X008056Y021660D03*
X008086Y021660D03*
X008206Y021660D03*
X008256Y021660D03*
X007936Y022320D03*
X007906Y022320D03*
X007856Y022320D03*
X007856Y023750D03*
X007826Y023750D03*
X007786Y023750D03*
X007746Y023750D03*
X007706Y023750D03*
X007616Y023750D03*
X007566Y023750D03*
X007506Y023750D03*
X007466Y023750D03*
X007426Y023750D03*
X007386Y023750D03*
X007326Y023750D03*
X007296Y023750D03*
X007446Y024550D03*
X007776Y024540D03*
X007846Y024540D03*
X007896Y024540D03*
X007966Y024540D03*
X008016Y024540D03*
X008086Y024540D03*
X008136Y024540D03*
X008206Y024540D03*
X008256Y024540D03*
X008326Y024540D03*
X008376Y024540D03*
X008406Y024540D03*
X008456Y024540D03*
X008336Y023740D03*
X008026Y023750D03*
X007966Y023750D03*
X007936Y023750D03*
X008016Y020630D03*
X008056Y020630D03*
X008096Y020630D03*
X008126Y020630D03*
X008176Y020630D03*
X008226Y020630D03*
X008256Y020630D03*
X008286Y020630D03*
X008186Y020160D03*
X007946Y020160D03*
X007786Y020630D03*
X007776Y020630D03*
X007716Y020630D03*
X007696Y020630D03*
X007656Y020630D03*
X007636Y020630D03*
X007606Y020630D03*
X007576Y020630D03*
X007446Y020160D03*
X007476Y019360D03*
X007416Y019360D03*
X007396Y019360D03*
X007346Y019360D03*
X007326Y019360D03*
X007306Y019360D03*
X007286Y019360D03*
X007556Y019360D03*
X007596Y019360D03*
X007716Y019360D03*
X007736Y019360D03*
X007796Y019360D03*
X007876Y019360D03*
X007916Y019360D03*
X008326Y019360D03*
X008336Y019350D03*
X007906Y018050D03*
X007266Y018580D03*
X007556Y016690D03*
X007526Y015700D03*
X007586Y015700D03*
X007646Y015700D03*
X007726Y015700D03*
X007766Y015700D03*
X008016Y015700D03*
X008036Y015700D03*
X008056Y015700D03*
X008126Y015700D03*
X008206Y015700D03*
X009256Y013810D03*
X009286Y013810D03*
X009296Y013820D03*
X009316Y013810D03*
X009326Y013820D03*
X009336Y013810D03*
X009386Y013810D03*
X004436Y020310D03*
D47*
X005836Y023870D03*
X005846Y023870D03*
X005136Y024870D03*
X006556Y019490D03*
X004596Y013800D03*
X004576Y013800D03*
X004566Y013800D03*
X004556Y013800D03*
X004546Y013800D03*
X004536Y013800D03*
X004526Y013800D03*
X004516Y013800D03*
X004506Y013800D03*
X004496Y013800D03*
X004476Y013800D03*
X004446Y013800D03*
D48*
X004446Y017575D03*
X004446Y021945D03*
X006546Y021945D03*
X006546Y017575D03*
X006546Y028615D03*
X004446Y028615D03*
D49*
X004546Y025170D03*
X006436Y023570D03*
X006446Y023560D03*
X007306Y023750D03*
X007376Y023750D03*
X007416Y023750D03*
X007476Y023750D03*
X007596Y023750D03*
X007606Y023750D03*
X007686Y023750D03*
X007726Y023750D03*
X007766Y023750D03*
X007806Y023750D03*
X007846Y023750D03*
X007946Y023750D03*
X007996Y023750D03*
X008316Y023750D03*
X008006Y022310D03*
X007996Y022310D03*
X007976Y022310D03*
X007946Y022320D03*
X007926Y022320D03*
X007916Y022320D03*
X007866Y022320D03*
X007846Y022320D03*
X007836Y022320D03*
X007816Y022320D03*
X007786Y022310D03*
X007776Y022310D03*
X007746Y022300D03*
X007736Y022300D03*
X007726Y022290D03*
X007716Y022290D03*
X007756Y021660D03*
X007786Y021660D03*
X007846Y021660D03*
X007876Y021660D03*
X007916Y021660D03*
X007946Y021660D03*
X007976Y021660D03*
X008036Y021660D03*
X008076Y021660D03*
X008106Y021660D03*
X008166Y021660D03*
X008196Y021660D03*
X008236Y021660D03*
X008266Y021660D03*
X008296Y021660D03*
X008066Y022290D03*
X008056Y022290D03*
X008036Y022300D03*
X008026Y022300D03*
X007606Y021660D03*
X007576Y021660D03*
X007546Y021660D03*
X007516Y021660D03*
X007566Y020630D03*
X007626Y020630D03*
X007686Y020630D03*
X007766Y020630D03*
X007796Y020630D03*
X008006Y020630D03*
X008046Y020630D03*
X008106Y020630D03*
X008166Y020630D03*
X008236Y020630D03*
X008246Y020630D03*
X008276Y020630D03*
X008296Y020630D03*
X008316Y019360D03*
X007906Y019360D03*
X007786Y019360D03*
X007726Y019360D03*
X007586Y019360D03*
X007466Y019360D03*
X007406Y019360D03*
X007356Y019360D03*
X007336Y019360D03*
X007316Y019360D03*
X007296Y019360D03*
X007516Y018900D03*
X007686Y018090D03*
X007716Y018080D03*
X007726Y018080D03*
X007736Y018070D03*
X007746Y018070D03*
X007776Y018060D03*
X007786Y018060D03*
X007836Y018050D03*
X007896Y018050D03*
X007916Y018050D03*
X007956Y018050D03*
X007986Y018060D03*
X008006Y018060D03*
X008036Y018070D03*
X008046Y018070D03*
X008066Y018080D03*
X008006Y017650D03*
X007886Y017650D03*
X007636Y017650D03*
X007616Y017250D03*
X007666Y017240D03*
X007676Y017240D03*
X007686Y017240D03*
X007696Y017230D03*
X007566Y017240D03*
X007556Y017240D03*
X007546Y017230D03*
X007536Y017230D03*
X008116Y016750D03*
X008136Y016740D03*
X008146Y016740D03*
X008176Y016730D03*
X008236Y016740D03*
X008246Y016740D03*
X008256Y016740D03*
X008366Y017650D03*
X008066Y015700D03*
X008046Y015700D03*
X008006Y015700D03*
X007976Y015290D03*
X007966Y015290D03*
X007956Y015290D03*
X008006Y015280D03*
X008016Y015280D03*
X008026Y015280D03*
X008036Y015270D03*
X008046Y015270D03*
X008056Y015270D03*
X008076Y015260D03*
X007826Y015290D03*
X007806Y015290D03*
X007786Y015290D03*
X007766Y015280D03*
X007756Y015280D03*
X007746Y015280D03*
X007736Y015270D03*
X007726Y015270D03*
X007736Y014640D03*
X007676Y014640D03*
X007616Y014640D03*
X007556Y014640D03*
X008156Y014640D03*
X008216Y014640D03*
X008276Y014640D03*
X009066Y013810D03*
X009096Y013810D03*
X009126Y013810D03*
X009136Y013820D03*
X009146Y013810D03*
X009166Y013810D03*
X010386Y013810D03*
X010396Y013810D03*
X010406Y013810D03*
X010416Y013810D03*
X010426Y013810D03*
X010436Y013810D03*
X010446Y013810D03*
X010456Y013810D03*
X010466Y013810D03*
X010476Y013810D03*
X011606Y013810D03*
X007466Y020150D03*
X004446Y020310D03*
D50*
X004456Y021945D03*
X004456Y017575D03*
X006536Y017575D03*
X006466Y019595D03*
D51*
X007486Y020140D03*
X008286Y019380D03*
X008296Y019370D03*
X008296Y018870D03*
X008166Y018130D03*
X008156Y018120D03*
X008146Y018120D03*
X008136Y018110D03*
X007666Y018100D03*
X007646Y018110D03*
X007636Y018120D03*
X007626Y018120D03*
X007616Y018130D03*
X007716Y017220D03*
X007726Y017220D03*
X007516Y017220D03*
X007506Y017210D03*
X007276Y016990D03*
X007656Y015240D03*
X007646Y015230D03*
X008096Y015250D03*
X008116Y015240D03*
X008136Y015230D03*
X008286Y016760D03*
X008506Y016960D03*
X008856Y013810D03*
X008866Y013810D03*
X008896Y013810D03*
X008936Y013810D03*
X008946Y013810D03*
X008976Y013810D03*
X011536Y013810D03*
X011596Y013810D03*
X008146Y022250D03*
X008136Y022250D03*
X008126Y022260D03*
X008106Y022270D03*
X007666Y022270D03*
X007656Y022260D03*
X007646Y022260D03*
X007636Y022250D03*
X008296Y023760D03*
X008286Y023770D03*
X006426Y023570D03*
X006416Y023580D03*
X004566Y025160D03*
X004556Y025170D03*
X004456Y020310D03*
D52*
X006526Y023525D03*
X007376Y024585D03*
X008406Y023705D03*
X007476Y021235D03*
X007376Y020195D03*
X008256Y018885D03*
X007586Y016695D03*
X010276Y013815D03*
X010286Y013815D03*
X010296Y013815D03*
X010306Y013815D03*
X010316Y013815D03*
X010326Y013815D03*
X010336Y013815D03*
X010346Y013815D03*
X010356Y013815D03*
X010366Y013815D03*
X010546Y013815D03*
X010576Y013815D03*
X011496Y013805D03*
X004456Y025215D03*
D53*
X004456Y028610D03*
X006536Y028610D03*
D54*
X006526Y028615D03*
X004466Y028615D03*
X004466Y021945D03*
X005046Y019605D03*
X004466Y017575D03*
X006526Y021945D03*
D55*
X007506Y020130D03*
X008266Y019390D03*
X008196Y018150D03*
X007746Y017200D03*
X007486Y017200D03*
X007536Y016680D03*
X007596Y015200D03*
X007586Y015190D03*
X007576Y015180D03*
X008166Y015210D03*
X008176Y015200D03*
X008676Y013810D03*
X008696Y013810D03*
X008716Y013810D03*
X008726Y013810D03*
X008746Y013810D03*
X008776Y013810D03*
X008306Y016780D03*
X008086Y016770D03*
X008076Y016780D03*
X007586Y018150D03*
X007576Y018160D03*
X007596Y022220D03*
X007606Y022230D03*
X008176Y022230D03*
X008186Y022220D03*
X008196Y022210D03*
X008276Y023770D03*
X004586Y025150D03*
X004466Y020310D03*
X011556Y013810D03*
X011576Y013810D03*
D56*
X006516Y017575D03*
X005006Y019625D03*
X004476Y017575D03*
X004476Y021945D03*
X006516Y021945D03*
X006516Y028615D03*
X004476Y028615D03*
D57*
X007536Y024500D03*
X007556Y022190D03*
X008216Y022190D03*
X007526Y020120D03*
X008256Y019390D03*
X008306Y018860D03*
X008246Y018190D03*
X008236Y018180D03*
X007756Y017190D03*
X007536Y018190D03*
X008496Y016960D03*
X008216Y015170D03*
X008226Y015160D03*
X007566Y015170D03*
X007556Y015160D03*
X008466Y013810D03*
X008496Y013810D03*
X008516Y013810D03*
X008536Y013810D03*
X008556Y013810D03*
X008566Y013810D03*
X008586Y013810D03*
X008606Y013810D03*
X004476Y020310D03*
D58*
X004476Y025205D03*
X007396Y024575D03*
X007396Y020185D03*
X008376Y019335D03*
X008306Y017095D03*
X007266Y016985D03*
X011636Y013805D03*
X011646Y013805D03*
X011656Y013805D03*
D59*
X006506Y017575D03*
X006376Y019655D03*
X006506Y021945D03*
X005136Y019655D03*
X005126Y019645D03*
X004486Y017575D03*
X004486Y021945D03*
X004486Y028615D03*
X006506Y028615D03*
D60*
X007546Y024500D03*
X007756Y024280D03*
X007766Y024270D03*
X007786Y024250D03*
X007796Y024240D03*
X007826Y024210D03*
X007836Y024200D03*
X007866Y024170D03*
X007876Y024160D03*
X007896Y024140D03*
X007926Y024110D03*
X007936Y024100D03*
X007966Y024070D03*
X008006Y024030D03*
X008236Y023790D03*
X008246Y022160D03*
X007546Y020110D03*
X007776Y019870D03*
X007806Y019840D03*
X007816Y019830D03*
X007866Y019780D03*
X007876Y019770D03*
X007896Y019750D03*
X007916Y019730D03*
X007926Y019720D03*
X007956Y019690D03*
X007976Y019670D03*
X007996Y019650D03*
X008006Y019640D03*
X008016Y019630D03*
X007476Y018860D03*
X007506Y018230D03*
X007516Y018220D03*
X007776Y017170D03*
X007506Y016710D03*
X007536Y015140D03*
X008246Y015140D03*
X008296Y013810D03*
X008306Y013810D03*
X008336Y013810D03*
X008346Y013810D03*
X008356Y013810D03*
X008366Y013810D03*
X008376Y013810D03*
X008396Y013810D03*
X008406Y013810D03*
X008426Y013810D03*
X004486Y020310D03*
X006356Y023610D03*
X004626Y025130D03*
D61*
X004496Y021945D03*
X004926Y019665D03*
X004496Y017575D03*
X006336Y019675D03*
X006346Y019675D03*
X006496Y017575D03*
X006496Y021945D03*
X004496Y028615D03*
D62*
X004646Y025120D03*
X004496Y020310D03*
X007516Y022140D03*
X008216Y023800D03*
X008206Y023810D03*
X007566Y024490D03*
X007556Y024490D03*
X007566Y020100D03*
X008206Y019420D03*
X008316Y018850D03*
X008286Y018240D03*
X008036Y016830D03*
X007496Y018240D03*
X007516Y015110D03*
X008116Y013810D03*
X008136Y013810D03*
X008156Y013810D03*
X008166Y013810D03*
X008176Y013810D03*
X008186Y013810D03*
X008196Y013810D03*
X008206Y013810D03*
X008226Y013810D03*
X008256Y013810D03*
X008266Y015110D03*
X008256Y015120D03*
D63*
X006486Y017570D03*
X005206Y019690D03*
X004506Y017570D03*
X004506Y021940D03*
X006486Y021940D03*
X004506Y028610D03*
D64*
X004666Y025110D03*
X006316Y023630D03*
X007506Y022120D03*
X008196Y023810D03*
X007586Y020090D03*
X008186Y019430D03*
X008196Y019430D03*
X008306Y018270D03*
X007806Y017130D03*
X008016Y016850D03*
X007476Y016750D03*
X007506Y015100D03*
X007946Y013810D03*
X007966Y013810D03*
X007976Y013810D03*
X007996Y013810D03*
X008006Y013810D03*
X008016Y013810D03*
X008026Y013810D03*
X008036Y013810D03*
X008046Y013810D03*
X008066Y013810D03*
X008096Y013810D03*
X008276Y015090D03*
X007466Y018840D03*
X004506Y020310D03*
D65*
X004516Y021945D03*
X004516Y017575D03*
X006276Y019705D03*
X006476Y017575D03*
X006476Y021945D03*
X006476Y028615D03*
X004516Y028615D03*
D66*
X004686Y025100D03*
X006296Y023640D03*
X007496Y022100D03*
X008286Y022100D03*
X007606Y020080D03*
X008166Y019440D03*
X007826Y017110D03*
X007996Y016870D03*
X008006Y016860D03*
X008476Y016960D03*
X008286Y015070D03*
X007936Y013810D03*
X007896Y013810D03*
X007886Y013810D03*
X007866Y013810D03*
X007856Y013810D03*
X007846Y013810D03*
X007836Y013810D03*
X007826Y013810D03*
X007786Y013810D03*
X007496Y015080D03*
X004516Y020310D03*
D67*
X004516Y025185D03*
X007436Y024555D03*
X007436Y020165D03*
X006646Y017575D03*
X009346Y013815D03*
X009366Y013815D03*
X009376Y013815D03*
X009396Y013815D03*
X009416Y013815D03*
X009426Y013815D03*
X009436Y013815D03*
X009446Y013815D03*
X009456Y013815D03*
X009466Y013815D03*
X009486Y013815D03*
X009496Y013815D03*
X009516Y013815D03*
X009526Y013815D03*
X009546Y013815D03*
X011616Y013805D03*
D68*
X006466Y017575D03*
X006466Y021945D03*
X004526Y021945D03*
X004526Y017575D03*
X004526Y028615D03*
X006466Y028615D03*
D69*
X006456Y028615D03*
X004536Y028615D03*
X004536Y021945D03*
X004536Y017575D03*
X006456Y017575D03*
X006456Y021945D03*
D70*
X005816Y021030D03*
X005806Y021030D03*
X005786Y021020D03*
X005776Y021020D03*
X005766Y021010D03*
X005756Y021010D03*
X005746Y021010D03*
X005716Y021000D03*
X005666Y020990D03*
X005326Y020990D03*
X005246Y021010D03*
X005236Y021010D03*
X005226Y021010D03*
X005216Y021020D03*
X005206Y021020D03*
X005196Y021020D03*
X005176Y021030D03*
X005546Y020270D03*
X005566Y020280D03*
X005576Y020280D03*
X005586Y020280D03*
X005596Y020290D03*
X005606Y020290D03*
X005646Y020300D03*
X005936Y020280D03*
X005946Y020280D03*
X005966Y020270D03*
X006236Y019280D03*
X005836Y018480D03*
X005786Y018500D03*
X005776Y018500D03*
X005756Y018510D03*
X005746Y018510D03*
X005716Y018520D03*
X005336Y018530D03*
X005276Y018520D03*
X005246Y018510D03*
X005236Y018510D03*
X005216Y018500D03*
X005206Y018500D03*
X005186Y018490D03*
X005176Y018490D03*
X004916Y019280D03*
X004536Y020310D03*
X005176Y022860D03*
X005186Y022860D03*
X005206Y022870D03*
X005216Y022870D03*
X005236Y022880D03*
X005246Y022880D03*
X005266Y022890D03*
X005286Y022890D03*
X005666Y022900D03*
X005706Y022890D03*
X005716Y022890D03*
X005746Y022880D03*
X005766Y022880D03*
X005776Y022870D03*
X005786Y022870D03*
X005806Y022860D03*
X005816Y022860D03*
X006266Y023650D03*
X006256Y023660D03*
X007636Y024450D03*
X007656Y024440D03*
X008136Y023840D03*
X007646Y020060D03*
X008136Y019450D03*
X008496Y018580D03*
X008326Y018320D03*
X007866Y017060D03*
X007876Y017040D03*
X007946Y016940D03*
X007956Y016920D03*
X007296Y014730D03*
X007476Y013810D03*
X007496Y013810D03*
X007506Y013810D03*
X007516Y013810D03*
X007526Y013810D03*
X007536Y013810D03*
X007546Y013810D03*
X007556Y013810D03*
X007566Y013810D03*
X007576Y013810D03*
X007586Y013810D03*
X007606Y013810D03*
X006236Y015400D03*
X005766Y016640D03*
X005756Y016640D03*
X005746Y016640D03*
X005726Y016630D03*
X005776Y016650D03*
X005786Y016650D03*
X005816Y016660D03*
X005276Y016630D03*
X005266Y016630D03*
X005246Y016640D03*
X005236Y016640D03*
X005226Y016640D03*
X005216Y016650D03*
X005206Y016650D03*
X005196Y016650D03*
X005186Y016660D03*
X005176Y016660D03*
X009566Y013810D03*
X005756Y027680D03*
X005746Y027680D03*
X005716Y027670D03*
X005706Y027670D03*
X005786Y027690D03*
X005806Y027700D03*
X005816Y027700D03*
X005276Y027670D03*
X005246Y027680D03*
X005236Y027680D03*
X005226Y027680D03*
X005216Y027690D03*
X005206Y027690D03*
X005196Y027690D03*
X005186Y027700D03*
X005176Y027700D03*
X005186Y029530D03*
X005176Y029530D03*
X005206Y029540D03*
X005216Y029540D03*
X005236Y029550D03*
X005246Y029550D03*
X005276Y029560D03*
X005336Y029570D03*
X005726Y029560D03*
X005746Y029550D03*
X005776Y029540D03*
X005786Y029540D03*
X005836Y029520D03*
D71*
X004536Y025175D03*
X007286Y023745D03*
X007316Y023745D03*
X007336Y023745D03*
X007346Y023745D03*
X007356Y023745D03*
X007366Y023745D03*
X007396Y023745D03*
X007406Y023745D03*
X007436Y023745D03*
X007446Y023745D03*
X007456Y023745D03*
X007486Y023745D03*
X007496Y023745D03*
X007516Y023745D03*
X007526Y023745D03*
X007536Y023755D03*
X007546Y023745D03*
X007556Y023745D03*
X007576Y023745D03*
X007586Y023745D03*
X007626Y023745D03*
X007636Y023745D03*
X007646Y023755D03*
X007656Y023745D03*
X007666Y023745D03*
X007676Y023745D03*
X007696Y023745D03*
X007716Y023745D03*
X007736Y023745D03*
X007756Y023745D03*
X007776Y023745D03*
X007796Y023745D03*
X007816Y023745D03*
X007836Y023745D03*
X007866Y023745D03*
X007876Y023745D03*
X007886Y023755D03*
X007896Y023745D03*
X007906Y023745D03*
X007916Y023745D03*
X007926Y023745D03*
X007956Y023745D03*
X007976Y023745D03*
X007986Y023745D03*
X008006Y023745D03*
X008016Y023745D03*
X008016Y023275D03*
X008026Y023275D03*
X008036Y023275D03*
X008046Y023275D03*
X008056Y023275D03*
X008066Y023275D03*
X008076Y023275D03*
X008086Y023275D03*
X008096Y023275D03*
X008106Y023275D03*
X008116Y023275D03*
X008126Y023275D03*
X008136Y023275D03*
X008146Y023275D03*
X008156Y023275D03*
X008166Y023275D03*
X008176Y023275D03*
X008186Y023275D03*
X008196Y023275D03*
X008206Y023275D03*
X008216Y023275D03*
X008226Y023275D03*
X008236Y023275D03*
X008246Y023275D03*
X008256Y023275D03*
X008266Y023275D03*
X008276Y023275D03*
X008286Y023275D03*
X008296Y023275D03*
X008306Y023275D03*
X008316Y023275D03*
X008326Y023275D03*
X008336Y023275D03*
X008346Y023275D03*
X008356Y023275D03*
X008366Y023275D03*
X008376Y023275D03*
X008386Y023275D03*
X008396Y023275D03*
X008406Y023275D03*
X008416Y023275D03*
X008426Y023275D03*
X008436Y023275D03*
X008446Y023275D03*
X008456Y023275D03*
X008466Y023275D03*
X008476Y023275D03*
X008486Y023275D03*
X008326Y023745D03*
X008006Y023275D03*
X007996Y023275D03*
X007986Y023275D03*
X007976Y023275D03*
X007966Y023275D03*
X007956Y023275D03*
X007946Y023275D03*
X007936Y023275D03*
X007926Y023275D03*
X007916Y023275D03*
X007906Y023275D03*
X007896Y023275D03*
X007886Y023275D03*
X007876Y023275D03*
X007866Y023275D03*
X007856Y023275D03*
X007846Y023275D03*
X007836Y023275D03*
X007826Y023275D03*
X007816Y023275D03*
X007806Y023275D03*
X007796Y023275D03*
X007786Y023275D03*
X007776Y023275D03*
X007766Y023275D03*
X007756Y023275D03*
X007746Y023275D03*
X007736Y023275D03*
X007726Y023275D03*
X007716Y023275D03*
X007706Y023275D03*
X007696Y023275D03*
X007686Y023275D03*
X007676Y023275D03*
X007666Y023275D03*
X007656Y023275D03*
X007646Y023275D03*
X007636Y023275D03*
X007626Y023275D03*
X007616Y023275D03*
X007606Y023275D03*
X007596Y023275D03*
X007586Y023275D03*
X007576Y023275D03*
X007566Y023275D03*
X007556Y023275D03*
X007546Y023275D03*
X007536Y023275D03*
X007526Y023275D03*
X007516Y023275D03*
X007506Y023275D03*
X007496Y023275D03*
X007486Y023275D03*
X007476Y023275D03*
X007466Y023275D03*
X007456Y023275D03*
X007446Y023275D03*
X007436Y023275D03*
X007426Y023275D03*
X007416Y023275D03*
X007406Y023275D03*
X007396Y023275D03*
X007386Y023275D03*
X007376Y023275D03*
X007366Y023275D03*
X007356Y023275D03*
X007346Y023275D03*
X007336Y023275D03*
X007326Y023275D03*
X007316Y023275D03*
X007306Y023275D03*
X007296Y023275D03*
X007286Y023275D03*
X007766Y022305D03*
X007796Y022315D03*
X007806Y022315D03*
X007826Y022315D03*
X007876Y022325D03*
X007886Y022325D03*
X007896Y022325D03*
X007956Y022315D03*
X007966Y022315D03*
X007986Y022315D03*
X008016Y022305D03*
X008016Y021665D03*
X008026Y021665D03*
X008046Y021665D03*
X008066Y021665D03*
X008096Y021665D03*
X008116Y021665D03*
X008126Y021665D03*
X008136Y021655D03*
X008146Y021665D03*
X008156Y021665D03*
X008176Y021665D03*
X008186Y021665D03*
X008216Y021665D03*
X008226Y021665D03*
X008246Y021665D03*
X008276Y021665D03*
X008286Y021665D03*
X008006Y021655D03*
X007996Y021665D03*
X007986Y021665D03*
X007966Y021665D03*
X007956Y021665D03*
X007926Y021665D03*
X007906Y021665D03*
X007896Y021665D03*
X007866Y021665D03*
X007856Y021665D03*
X007836Y021665D03*
X007826Y021665D03*
X007816Y021655D03*
X007806Y021665D03*
X007796Y021665D03*
X007776Y021665D03*
X007746Y021665D03*
X007736Y021665D03*
X007726Y021665D03*
X007716Y021655D03*
X007706Y021665D03*
X007696Y021665D03*
X007686Y021665D03*
X007676Y021665D03*
X007666Y021665D03*
X007656Y021665D03*
X007646Y021665D03*
X007636Y021655D03*
X007626Y021665D03*
X007616Y021665D03*
X007596Y021665D03*
X007586Y021665D03*
X007566Y021665D03*
X007536Y021665D03*
X007526Y021665D03*
X007506Y021665D03*
X007496Y021665D03*
X007486Y021665D03*
X007486Y020635D03*
X007496Y020625D03*
X007506Y020625D03*
X007516Y020635D03*
X007526Y020625D03*
X007536Y020635D03*
X007546Y020635D03*
X007556Y020625D03*
X007586Y020625D03*
X007596Y020635D03*
X007616Y020625D03*
X007646Y020625D03*
X007666Y020635D03*
X007676Y020625D03*
X007706Y020625D03*
X007726Y020635D03*
X007736Y020625D03*
X007746Y020625D03*
X007756Y020635D03*
X007996Y020635D03*
X008026Y020635D03*
X008036Y020625D03*
X008066Y020625D03*
X008076Y020635D03*
X008086Y020625D03*
X008116Y020625D03*
X008136Y020625D03*
X008146Y020635D03*
X008156Y020625D03*
X008186Y020625D03*
X008196Y020625D03*
X008206Y020635D03*
X008216Y020625D03*
X008266Y020625D03*
X008266Y020155D03*
X008276Y020155D03*
X008286Y020155D03*
X008296Y020155D03*
X008306Y020155D03*
X008316Y020155D03*
X008326Y020155D03*
X008336Y020155D03*
X008346Y020155D03*
X008356Y020155D03*
X008366Y020155D03*
X008376Y020155D03*
X008386Y020155D03*
X008396Y020155D03*
X008406Y020155D03*
X008416Y020155D03*
X008426Y020155D03*
X008436Y020155D03*
X008446Y020155D03*
X008456Y020155D03*
X008466Y020155D03*
X008476Y020155D03*
X008486Y020155D03*
X008256Y020155D03*
X008246Y020155D03*
X008236Y020155D03*
X008226Y020155D03*
X008216Y020155D03*
X008206Y020155D03*
X008196Y020155D03*
X008176Y020155D03*
X008166Y020155D03*
X008156Y020155D03*
X008146Y020155D03*
X008136Y020155D03*
X008126Y020155D03*
X008116Y020155D03*
X008106Y020155D03*
X008096Y020155D03*
X008086Y020155D03*
X008076Y020155D03*
X008066Y020155D03*
X008056Y020155D03*
X008046Y020155D03*
X008036Y020155D03*
X008026Y020155D03*
X008016Y020155D03*
X008006Y020155D03*
X007996Y020155D03*
X007986Y020155D03*
X007976Y020155D03*
X007966Y020155D03*
X007956Y020155D03*
X007936Y020155D03*
X007926Y020155D03*
X007916Y020155D03*
X007906Y020155D03*
X007896Y020155D03*
X007886Y020155D03*
X007876Y020155D03*
X007866Y020155D03*
X007856Y020155D03*
X007846Y020155D03*
X007836Y020155D03*
X007826Y020155D03*
X007816Y020155D03*
X007806Y020155D03*
X007796Y020155D03*
X007786Y020155D03*
X007776Y020155D03*
X007766Y020155D03*
X007756Y020155D03*
X007456Y020155D03*
X007446Y019365D03*
X007456Y019355D03*
X007436Y019355D03*
X007426Y019365D03*
X007386Y019365D03*
X007376Y019355D03*
X007366Y019365D03*
X007486Y019365D03*
X007496Y019355D03*
X007506Y019365D03*
X007516Y019355D03*
X007526Y019365D03*
X007536Y019355D03*
X007546Y019365D03*
X007566Y019365D03*
X007576Y019355D03*
X007606Y019365D03*
X007616Y019355D03*
X007626Y019365D03*
X007636Y019355D03*
X007646Y019365D03*
X007656Y019355D03*
X007666Y019365D03*
X007676Y019355D03*
X007686Y019365D03*
X007696Y019355D03*
X007706Y019365D03*
X007746Y019365D03*
X007756Y019355D03*
X007766Y019365D03*
X007776Y019355D03*
X007806Y019365D03*
X007816Y019355D03*
X007826Y019365D03*
X007836Y019355D03*
X007846Y019365D03*
X007856Y019355D03*
X007866Y019365D03*
X007886Y019365D03*
X007896Y019355D03*
X007926Y019365D03*
X007936Y019355D03*
X007946Y019365D03*
X007956Y019355D03*
X007966Y019365D03*
X007976Y019355D03*
X007986Y019365D03*
X007996Y019355D03*
X008006Y019365D03*
X008016Y019355D03*
X008286Y018875D03*
X008026Y018065D03*
X008016Y018065D03*
X007996Y018055D03*
X007976Y018055D03*
X007966Y018055D03*
X007946Y018055D03*
X007936Y018045D03*
X007926Y018055D03*
X007886Y018045D03*
X007876Y018045D03*
X007866Y018055D03*
X007856Y018045D03*
X007846Y018055D03*
X007826Y018055D03*
X007816Y018055D03*
X007806Y018055D03*
X007796Y018055D03*
X007766Y018065D03*
X007756Y018065D03*
X007756Y017645D03*
X007766Y017645D03*
X007776Y017645D03*
X007786Y017645D03*
X007796Y017645D03*
X007806Y017645D03*
X007816Y017645D03*
X007826Y017645D03*
X007836Y017645D03*
X007846Y017645D03*
X007856Y017645D03*
X007866Y017645D03*
X007876Y017645D03*
X007896Y017645D03*
X007906Y017645D03*
X007916Y017645D03*
X007926Y017645D03*
X007936Y017645D03*
X007946Y017645D03*
X007956Y017645D03*
X007966Y017645D03*
X007976Y017645D03*
X007986Y017645D03*
X007996Y017645D03*
X008016Y017645D03*
X008026Y017645D03*
X008036Y017645D03*
X008046Y017645D03*
X008056Y017645D03*
X008066Y017645D03*
X008076Y017645D03*
X008086Y017645D03*
X008096Y017645D03*
X008106Y017645D03*
X008116Y017645D03*
X008126Y017645D03*
X008136Y017645D03*
X008146Y017645D03*
X008156Y017645D03*
X008166Y017645D03*
X008176Y017645D03*
X008186Y017645D03*
X008196Y017645D03*
X008206Y017645D03*
X008216Y017645D03*
X008226Y017645D03*
X008236Y017645D03*
X008246Y017645D03*
X008256Y017645D03*
X008266Y017645D03*
X008276Y017645D03*
X008286Y017645D03*
X008296Y017645D03*
X008306Y017645D03*
X008316Y017645D03*
X008326Y017645D03*
X008336Y017645D03*
X008346Y017645D03*
X008356Y017645D03*
X008376Y017645D03*
X008386Y017645D03*
X008396Y017645D03*
X008406Y017645D03*
X008416Y017645D03*
X008426Y017645D03*
X008436Y017645D03*
X008446Y017645D03*
X008456Y017645D03*
X008466Y017645D03*
X008476Y017645D03*
X008486Y017645D03*
X008316Y017085D03*
X008226Y016735D03*
X008216Y016735D03*
X008206Y016735D03*
X008196Y016735D03*
X008186Y016735D03*
X008166Y016735D03*
X008156Y016735D03*
X007746Y017645D03*
X007736Y017645D03*
X007726Y017645D03*
X007716Y017645D03*
X007706Y017645D03*
X007696Y017645D03*
X007686Y017645D03*
X007676Y017645D03*
X007666Y017645D03*
X007656Y017645D03*
X007646Y017645D03*
X007626Y017645D03*
X007616Y017645D03*
X007606Y017645D03*
X007596Y017645D03*
X007586Y017645D03*
X007576Y017645D03*
X007566Y017645D03*
X007556Y017645D03*
X007546Y017645D03*
X007536Y017645D03*
X007526Y017645D03*
X007516Y017645D03*
X007506Y017645D03*
X007496Y017645D03*
X007486Y017645D03*
X007476Y017645D03*
X007466Y017645D03*
X007456Y017645D03*
X007446Y017645D03*
X007436Y017645D03*
X007426Y017645D03*
X007416Y017645D03*
X007406Y017645D03*
X007396Y017645D03*
X007386Y017645D03*
X007376Y017645D03*
X007366Y017645D03*
X007356Y017645D03*
X007346Y017645D03*
X007336Y017645D03*
X007326Y017645D03*
X007316Y017645D03*
X007306Y017645D03*
X007296Y017645D03*
X007286Y017645D03*
X007576Y017245D03*
X007586Y017245D03*
X007596Y017245D03*
X007606Y017245D03*
X007626Y017245D03*
X007636Y017245D03*
X007646Y017245D03*
X007656Y017245D03*
X007666Y015705D03*
X007676Y015695D03*
X007686Y015705D03*
X007696Y015695D03*
X007706Y015705D03*
X007716Y015695D03*
X007736Y015695D03*
X007746Y015705D03*
X007756Y015695D03*
X007776Y015695D03*
X007786Y015705D03*
X007796Y015695D03*
X007656Y015695D03*
X007636Y015695D03*
X007626Y015705D03*
X007616Y015695D03*
X007606Y015705D03*
X007596Y015695D03*
X007576Y015695D03*
X007566Y015705D03*
X007556Y015695D03*
X007546Y015705D03*
X007536Y015695D03*
X007516Y015705D03*
X007506Y015695D03*
X007496Y015705D03*
X007486Y015695D03*
X007776Y015285D03*
X007796Y015285D03*
X007816Y015295D03*
X007836Y015295D03*
X007846Y015295D03*
X007856Y015295D03*
X007866Y015295D03*
X007876Y015295D03*
X007886Y015295D03*
X007896Y015295D03*
X007906Y015295D03*
X007916Y015295D03*
X007926Y015295D03*
X007936Y015295D03*
X007946Y015295D03*
X007986Y015285D03*
X007996Y015285D03*
X008026Y015695D03*
X007996Y015705D03*
X008076Y015695D03*
X008086Y015705D03*
X008096Y015695D03*
X008106Y015705D03*
X008116Y015695D03*
X008136Y015695D03*
X008146Y015705D03*
X008156Y015695D03*
X008166Y015705D03*
X008176Y015695D03*
X008186Y015705D03*
X008196Y015695D03*
X008216Y015695D03*
X008226Y015705D03*
X008236Y015695D03*
X008246Y015705D03*
X008256Y015695D03*
X008266Y015705D03*
X008276Y015695D03*
X008286Y015705D03*
X008296Y015695D03*
X008296Y014635D03*
X008286Y014635D03*
X008266Y014635D03*
X008256Y014635D03*
X008246Y014635D03*
X008236Y014635D03*
X008226Y014635D03*
X008206Y014635D03*
X008196Y014635D03*
X008186Y014635D03*
X008176Y014635D03*
X008166Y014635D03*
X008146Y014635D03*
X008136Y014635D03*
X008126Y014635D03*
X008116Y014635D03*
X008106Y014635D03*
X008096Y014635D03*
X008086Y014635D03*
X008076Y014635D03*
X008066Y014635D03*
X008056Y014635D03*
X008046Y014635D03*
X008036Y014635D03*
X008026Y014635D03*
X008016Y014635D03*
X008006Y014635D03*
X007996Y014635D03*
X007986Y014635D03*
X007976Y014635D03*
X007966Y014635D03*
X007956Y014635D03*
X007946Y014635D03*
X007936Y014635D03*
X007926Y014635D03*
X007916Y014635D03*
X007906Y014635D03*
X007896Y014635D03*
X007886Y014635D03*
X007876Y014635D03*
X007866Y014635D03*
X007856Y014635D03*
X007846Y014635D03*
X007836Y014635D03*
X007826Y014635D03*
X007816Y014635D03*
X007806Y014635D03*
X007796Y014635D03*
X007786Y014635D03*
X007776Y014635D03*
X007766Y014635D03*
X007756Y014635D03*
X007746Y014635D03*
X007726Y014635D03*
X007716Y014635D03*
X007706Y014635D03*
X007696Y014635D03*
X007686Y014635D03*
X007666Y014635D03*
X007656Y014635D03*
X007646Y014635D03*
X007636Y014635D03*
X007626Y014635D03*
X007606Y014635D03*
X007596Y014635D03*
X007586Y014635D03*
X007576Y014635D03*
X007566Y014635D03*
X007546Y014635D03*
X007536Y014635D03*
X007526Y014635D03*
X007516Y014635D03*
X007506Y014635D03*
X007496Y014635D03*
X007486Y014635D03*
X009106Y013815D03*
X009156Y013815D03*
X009176Y013815D03*
X009186Y013815D03*
X009196Y013815D03*
X009206Y013815D03*
X009216Y013815D03*
X009226Y013815D03*
X009236Y013815D03*
X009246Y013815D03*
X009266Y013815D03*
X009276Y013815D03*
X009306Y013815D03*
X009356Y013815D03*
X009406Y013815D03*
X011516Y013805D03*
X007696Y018905D03*
X007686Y018905D03*
X007676Y018905D03*
X007666Y018905D03*
X007656Y018905D03*
X007646Y018905D03*
X007636Y018905D03*
X007626Y018905D03*
X007616Y018905D03*
X007606Y018905D03*
X007596Y018905D03*
X007586Y018905D03*
X007576Y018905D03*
X007566Y018905D03*
X007556Y018905D03*
X007546Y018905D03*
X007536Y018905D03*
X007526Y018905D03*
X007456Y024545D03*
X007756Y024545D03*
X007766Y024545D03*
X007786Y024545D03*
X007796Y024545D03*
X007806Y024545D03*
X007816Y024545D03*
X007826Y024545D03*
X007836Y024545D03*
X007856Y024545D03*
X007866Y024545D03*
X007876Y024545D03*
X007886Y024545D03*
X007906Y024545D03*
X007916Y024545D03*
X007926Y024545D03*
X007936Y024545D03*
X007946Y024545D03*
X007956Y024545D03*
X007976Y024545D03*
X007986Y024545D03*
X007996Y024545D03*
X008006Y024545D03*
X008026Y024545D03*
X008036Y024545D03*
X008046Y024545D03*
X008056Y024545D03*
X008066Y024545D03*
X008076Y024545D03*
X008096Y024545D03*
X008106Y024545D03*
X008116Y024545D03*
X008126Y024545D03*
X008146Y024545D03*
X008156Y024545D03*
X008166Y024545D03*
X008176Y024545D03*
X008186Y024545D03*
X008196Y024545D03*
X008216Y024545D03*
X008226Y024545D03*
X008236Y024545D03*
X008246Y024545D03*
X008266Y024545D03*
X008276Y024545D03*
X008286Y024545D03*
X008296Y024545D03*
X008306Y024545D03*
X008316Y024545D03*
X008336Y024545D03*
X008346Y024545D03*
X008356Y024545D03*
X008366Y024545D03*
X008386Y024545D03*
X008396Y024545D03*
X008416Y024545D03*
X008426Y024545D03*
X008436Y024545D03*
X008446Y024545D03*
X008466Y024545D03*
X008476Y024545D03*
X008486Y024545D03*
D72*
X006446Y021945D03*
X006446Y017575D03*
X004546Y017575D03*
X004546Y028615D03*
X006446Y028615D03*
D73*
X005926Y027750D03*
X005916Y027740D03*
X005906Y027740D03*
X005896Y027740D03*
X005886Y027730D03*
X005866Y027720D03*
X005126Y027720D03*
X005106Y027730D03*
X005096Y027730D03*
X005086Y027740D03*
X005076Y027740D03*
X005066Y027750D03*
X005066Y029480D03*
X005086Y029490D03*
X005096Y029500D03*
X005106Y029500D03*
X005126Y029510D03*
X005866Y029510D03*
X005876Y029500D03*
X005886Y029500D03*
X005906Y029490D03*
X005926Y029480D03*
X004736Y025070D03*
X005126Y022840D03*
X005106Y022830D03*
X005096Y022830D03*
X005086Y022820D03*
X005066Y022810D03*
X005046Y022800D03*
X005066Y021080D03*
X005076Y021070D03*
X005086Y021070D03*
X005106Y021060D03*
X005126Y021050D03*
X005516Y020260D03*
X005496Y020250D03*
X005476Y020240D03*
X005866Y021050D03*
X005886Y021060D03*
X005906Y021070D03*
X005926Y021080D03*
X006016Y020250D03*
X006026Y020240D03*
X006036Y020240D03*
X005866Y018470D03*
X005886Y018460D03*
X005896Y018450D03*
X005906Y018450D03*
X005926Y018440D03*
X005126Y018470D03*
X005106Y018460D03*
X005096Y018460D03*
X005086Y018450D03*
X005066Y018440D03*
X004546Y020310D03*
X005886Y022830D03*
X005906Y022820D03*
X005926Y022810D03*
X007666Y020050D03*
X008476Y021770D03*
X008116Y023850D03*
X007906Y017000D03*
X007916Y016980D03*
X008456Y016960D03*
X007486Y013810D03*
X007466Y013810D03*
X007456Y013810D03*
X007436Y013810D03*
X007426Y013810D03*
X007416Y013810D03*
X007406Y013810D03*
X007396Y013810D03*
X007386Y013810D03*
X007376Y013810D03*
X007366Y013810D03*
X007356Y013810D03*
X007346Y013810D03*
X005916Y016700D03*
X005906Y016700D03*
X005926Y016710D03*
X005886Y016690D03*
X005866Y016680D03*
X005126Y016680D03*
X005106Y016690D03*
X005096Y016690D03*
X005086Y016700D03*
X005076Y016700D03*
X005066Y016710D03*
D74*
X004546Y021940D03*
D75*
X004556Y021945D03*
X004556Y017575D03*
X006436Y017575D03*
X006436Y021945D03*
X006436Y028615D03*
X004556Y028615D03*
D76*
X004996Y027790D03*
X005006Y027780D03*
X005016Y027780D03*
X005026Y027770D03*
X005046Y027760D03*
X004996Y029440D03*
X005006Y029450D03*
X005016Y029450D03*
X005026Y029460D03*
X005966Y029460D03*
X005976Y029450D03*
X005986Y029440D03*
X005996Y029440D03*
X005996Y027790D03*
X005986Y027780D03*
X005976Y027780D03*
X005966Y027770D03*
X004766Y025060D03*
X005026Y022790D03*
X005016Y022780D03*
X005006Y022780D03*
X004996Y022770D03*
X004996Y021120D03*
X005006Y021110D03*
X005016Y021110D03*
X005026Y021100D03*
X004556Y020310D03*
X005026Y018420D03*
X005016Y018410D03*
X005006Y018410D03*
X004996Y018400D03*
X004996Y016750D03*
X005006Y016740D03*
X005016Y016740D03*
X005026Y016730D03*
X005946Y016720D03*
X005966Y016730D03*
X005976Y016740D03*
X005986Y016740D03*
X005996Y016750D03*
X005996Y018400D03*
X005986Y018400D03*
X005976Y018410D03*
X005966Y018420D03*
X006086Y020210D03*
X005946Y021090D03*
X005976Y021110D03*
X005986Y021110D03*
X005996Y021120D03*
X005436Y020220D03*
X005426Y020210D03*
X006006Y022760D03*
X005996Y022770D03*
X005986Y022780D03*
X005976Y022780D03*
X007686Y020040D03*
X008096Y019470D03*
X008106Y019470D03*
X007456Y018340D03*
X007296Y018580D03*
X008446Y016960D03*
X007306Y014750D03*
X007286Y013810D03*
X007276Y013810D03*
X007266Y013810D03*
X007256Y013810D03*
X007246Y013810D03*
X007236Y013810D03*
X007226Y013810D03*
X007216Y013810D03*
X007176Y013810D03*
X008096Y023860D03*
D77*
X004566Y021940D03*
X004566Y017570D03*
D78*
X004566Y028615D03*
D79*
X004576Y028615D03*
X006416Y028615D03*
X006416Y021945D03*
X006416Y017575D03*
X004576Y017575D03*
X004576Y021945D03*
D80*
X004576Y025155D03*
X006406Y023585D03*
X007496Y024525D03*
X007626Y022245D03*
X007616Y022235D03*
X008156Y022245D03*
X008166Y022235D03*
X007496Y020135D03*
X007496Y018885D03*
X007596Y018145D03*
X007606Y018135D03*
X007496Y017205D03*
X007736Y017205D03*
X008096Y016765D03*
X008296Y016765D03*
X008176Y018135D03*
X008186Y018145D03*
X008206Y018155D03*
X008146Y015225D03*
X008156Y015215D03*
X007636Y015225D03*
X007626Y015215D03*
X007616Y015215D03*
X007606Y015205D03*
X008736Y013815D03*
X008756Y013815D03*
X008766Y013815D03*
X008786Y013815D03*
X008796Y013815D03*
X008806Y013815D03*
X008816Y013815D03*
X008826Y013815D03*
X008836Y013815D03*
X008846Y013815D03*
X008876Y013815D03*
X008886Y013815D03*
X008916Y013815D03*
X011546Y013805D03*
X011566Y013805D03*
X011586Y013805D03*
D81*
X007396Y018580D03*
X005866Y023860D03*
X005116Y024880D03*
X004756Y013800D03*
X004736Y013800D03*
X004716Y013800D03*
X004696Y013800D03*
X004686Y013800D03*
X004676Y013800D03*
X004666Y013800D03*
X004656Y013800D03*
X004646Y013800D03*
X004626Y013800D03*
X004616Y013800D03*
X004586Y013800D03*
D82*
X004586Y017575D03*
X004586Y021945D03*
X006406Y021945D03*
X006406Y017575D03*
X006406Y028615D03*
X004586Y028615D03*
D83*
X004856Y029330D03*
X004866Y029340D03*
X004876Y029340D03*
X004866Y027890D03*
X004876Y027880D03*
X006126Y027890D03*
X006136Y027900D03*
X006126Y029340D03*
X006116Y029350D03*
X004816Y025030D03*
X004866Y022670D03*
X004866Y021220D03*
X004876Y021210D03*
X004586Y020310D03*
X005346Y020140D03*
X006166Y020140D03*
X006126Y021220D03*
X006626Y021940D03*
X006126Y022670D03*
X006156Y023710D03*
X007736Y024400D03*
X008036Y023890D03*
X008046Y023890D03*
X007746Y020010D03*
X007736Y020010D03*
X008036Y019510D03*
X008416Y016960D03*
X007346Y016980D03*
X006626Y017570D03*
X006136Y016860D03*
X006126Y016850D03*
X006116Y016840D03*
X006126Y018300D03*
X004876Y016840D03*
X004866Y016850D03*
X004866Y018300D03*
X006746Y013810D03*
X006766Y013810D03*
X006786Y013810D03*
X006796Y013810D03*
X006816Y013810D03*
X006826Y013810D03*
X006836Y013810D03*
X006846Y013810D03*
X006866Y013810D03*
D84*
X006396Y017570D03*
X006396Y021940D03*
X004596Y021940D03*
X004596Y017570D03*
X004596Y028610D03*
X006396Y028610D03*
D85*
X006156Y027920D03*
X006156Y029310D03*
X004836Y029310D03*
X004836Y027920D03*
X004846Y027910D03*
X005656Y024200D03*
X006136Y023720D03*
X006156Y022640D03*
X006156Y021250D03*
X006186Y020120D03*
X005326Y020120D03*
X004836Y021250D03*
X004596Y020310D03*
X004846Y018280D03*
X004836Y016880D03*
X004846Y016870D03*
X006156Y016880D03*
X006156Y018270D03*
X007356Y016980D03*
X007336Y014790D03*
X006716Y013810D03*
X006686Y013810D03*
X006666Y013810D03*
X006656Y013810D03*
X006646Y013810D03*
X006626Y013810D03*
X006606Y013810D03*
X008406Y016960D03*
X009586Y013800D03*
X010096Y013810D03*
X007336Y021810D03*
X004836Y022640D03*
D86*
X004596Y025145D03*
X006386Y023595D03*
X006396Y023585D03*
X007506Y024515D03*
X007516Y024515D03*
X008256Y023785D03*
X008266Y023775D03*
X008206Y022205D03*
X007586Y022215D03*
X007576Y022205D03*
X007566Y022195D03*
X007516Y020125D03*
X007486Y018875D03*
X007546Y018185D03*
X007556Y018175D03*
X007566Y018165D03*
X007476Y017185D03*
X008216Y018165D03*
X008226Y018175D03*
X008276Y019385D03*
X008186Y015195D03*
X008196Y015185D03*
X008206Y015175D03*
X008546Y013815D03*
X008576Y013815D03*
X008596Y013815D03*
X008616Y013815D03*
X008626Y013815D03*
X008636Y013815D03*
X008646Y013815D03*
X008656Y013815D03*
X008666Y013815D03*
X008686Y013815D03*
X008706Y013815D03*
D87*
X008386Y018585D03*
X005856Y023855D03*
X005126Y024875D03*
X004636Y013805D03*
X004606Y013805D03*
D88*
X004606Y017575D03*
X006386Y017575D03*
X006386Y021945D03*
X004606Y021945D03*
X004606Y028615D03*
X006386Y028615D03*
D89*
X006176Y029285D03*
X006166Y029295D03*
X006176Y027945D03*
X006166Y027935D03*
X004826Y027935D03*
X004816Y027945D03*
X004826Y029295D03*
X005236Y024625D03*
X005246Y024615D03*
X005256Y024605D03*
X005266Y024595D03*
X005286Y024575D03*
X005296Y024565D03*
X005306Y024555D03*
X005326Y024535D03*
X005336Y024525D03*
X005346Y024515D03*
X005356Y024505D03*
X005366Y024495D03*
X005376Y024485D03*
X005396Y024465D03*
X005406Y024455D03*
X005416Y024445D03*
X005436Y024425D03*
X005446Y024415D03*
X005466Y024395D03*
X005496Y024365D03*
X005516Y024345D03*
X005536Y024325D03*
X005556Y024305D03*
X005576Y024285D03*
X005606Y024255D03*
X005696Y024155D03*
X005736Y024115D03*
X006166Y022625D03*
X006176Y022615D03*
X006176Y021275D03*
X006166Y021265D03*
X006196Y020105D03*
X005316Y020105D03*
X004916Y019995D03*
X004906Y020005D03*
X004896Y020015D03*
X004886Y020025D03*
X004876Y020035D03*
X004866Y020045D03*
X004856Y020055D03*
X004846Y020065D03*
X004836Y020075D03*
X004826Y020085D03*
X004816Y020095D03*
X004806Y020105D03*
X004796Y020115D03*
X004786Y020125D03*
X004776Y020135D03*
X004766Y020145D03*
X004756Y020155D03*
X004746Y020165D03*
X004736Y020175D03*
X004726Y020185D03*
X004716Y020195D03*
X004706Y020205D03*
X004696Y020215D03*
X004686Y020225D03*
X004676Y020235D03*
X004666Y020245D03*
X004656Y020255D03*
X004646Y020265D03*
X004636Y020275D03*
X004626Y020285D03*
X004606Y020305D03*
X004826Y021265D03*
X004816Y021275D03*
X004826Y022625D03*
X004836Y018265D03*
X004826Y018255D03*
X004816Y018245D03*
X004826Y016895D03*
X006166Y016895D03*
X006176Y016905D03*
X006176Y018245D03*
X006166Y018255D03*
X007476Y015855D03*
X006636Y013805D03*
X006616Y013805D03*
X006596Y013805D03*
X006586Y013805D03*
X006566Y013805D03*
X006556Y013805D03*
X008436Y014795D03*
X008436Y021825D03*
X007346Y021825D03*
D90*
X007536Y022165D03*
X007546Y022175D03*
X008226Y022185D03*
X008236Y022175D03*
X008246Y023785D03*
X008026Y024005D03*
X008016Y024015D03*
X007996Y024035D03*
X007986Y024045D03*
X007976Y024055D03*
X007956Y024075D03*
X007946Y024085D03*
X007916Y024115D03*
X007906Y024125D03*
X007886Y024145D03*
X007856Y024175D03*
X007846Y024185D03*
X007816Y024215D03*
X007806Y024235D03*
X007776Y024255D03*
X007526Y024505D03*
X006376Y023595D03*
X006366Y023605D03*
X007536Y020115D03*
X007756Y019895D03*
X007766Y019885D03*
X007786Y019865D03*
X007796Y019855D03*
X007826Y019825D03*
X007836Y019815D03*
X007846Y019795D03*
X007856Y019795D03*
X007886Y019765D03*
X007906Y019745D03*
X007936Y019705D03*
X007946Y019705D03*
X007966Y019685D03*
X007986Y019655D03*
X008236Y019405D03*
X008246Y019405D03*
X008266Y018215D03*
X008256Y018205D03*
X007766Y017175D03*
X008056Y016805D03*
X008066Y016795D03*
X008316Y016795D03*
X008236Y015145D03*
X007546Y015155D03*
X007526Y016685D03*
X007516Y016695D03*
X007286Y016985D03*
X007526Y018205D03*
X008386Y013815D03*
X008416Y013815D03*
X008436Y013815D03*
X008446Y013815D03*
X008456Y013815D03*
X008476Y013815D03*
X008486Y013815D03*
X008506Y013815D03*
X008526Y013815D03*
X004616Y025135D03*
X004606Y025145D03*
D91*
X004616Y021945D03*
X006376Y021945D03*
X006376Y017575D03*
X004616Y017575D03*
X004616Y028615D03*
X006376Y028615D03*
D92*
X006186Y029270D03*
X004816Y029280D03*
X004846Y025020D03*
X004856Y025010D03*
X004866Y025010D03*
X005276Y024580D03*
X005316Y024540D03*
X005386Y024470D03*
X005426Y024430D03*
X005456Y024400D03*
X005476Y024380D03*
X005486Y024370D03*
X005506Y024350D03*
X005526Y024330D03*
X005546Y024310D03*
X005566Y024290D03*
X005586Y024270D03*
X005596Y024260D03*
X005616Y024240D03*
X005626Y024230D03*
X005636Y024220D03*
X005646Y024210D03*
X005666Y024190D03*
X005676Y024180D03*
X005686Y024170D03*
X005706Y024150D03*
X005716Y024140D03*
X005726Y024130D03*
X006116Y023730D03*
X006126Y023720D03*
X004816Y022610D03*
X004616Y020290D03*
X004816Y016910D03*
X006186Y018230D03*
X007316Y018580D03*
X007366Y016980D03*
X007346Y014800D03*
X006576Y013810D03*
X006546Y013810D03*
X006536Y013810D03*
X006526Y013810D03*
X006516Y013810D03*
X006506Y013810D03*
X006496Y013810D03*
X006476Y013810D03*
X008396Y016960D03*
D93*
X006366Y017575D03*
X004626Y017575D03*
X004626Y021945D03*
X006366Y021945D03*
X006366Y028615D03*
X004626Y028615D03*
D94*
X004636Y028615D03*
X006356Y028615D03*
X006356Y021945D03*
X004636Y021945D03*
X004636Y017575D03*
X006356Y017575D03*
D95*
X007276Y018585D03*
X007466Y017165D03*
X007486Y016735D03*
X007496Y016725D03*
X007786Y017155D03*
X008046Y016815D03*
X008276Y018225D03*
X008226Y019405D03*
X007556Y020105D03*
X007286Y021715D03*
X007526Y022155D03*
X008226Y023795D03*
X008256Y022145D03*
X006346Y023615D03*
X004636Y025125D03*
X007526Y015125D03*
X007286Y014695D03*
X008216Y013815D03*
X008236Y013815D03*
X008246Y013815D03*
X008266Y013815D03*
X008276Y013815D03*
X008286Y013815D03*
X008316Y013815D03*
X008326Y013815D03*
X009556Y013805D03*
D96*
X006346Y021940D03*
X004646Y017570D03*
D97*
X006346Y017575D03*
X004646Y021945D03*
X004646Y028615D03*
X006346Y028615D03*
D98*
X006336Y021945D03*
X004656Y021945D03*
X004656Y017575D03*
D99*
X006336Y023615D03*
X006326Y023625D03*
X007576Y024485D03*
X008266Y022135D03*
X007576Y020095D03*
X008216Y019415D03*
X007886Y018845D03*
X007876Y018845D03*
X007866Y018845D03*
X007856Y018845D03*
X007846Y018845D03*
X007836Y018845D03*
X007826Y018845D03*
X007816Y018845D03*
X007806Y018845D03*
X007796Y018845D03*
X007786Y018845D03*
X007776Y018845D03*
X007766Y018845D03*
X007756Y018845D03*
X007746Y018845D03*
X007736Y018845D03*
X007726Y018845D03*
X007716Y018845D03*
X007706Y018845D03*
X007486Y018255D03*
X007796Y017145D03*
X008026Y016835D03*
X008486Y016965D03*
X008296Y018255D03*
X007296Y016985D03*
X008056Y013815D03*
X008076Y013815D03*
X008086Y013815D03*
X008106Y013815D03*
X008126Y013815D03*
X008146Y013815D03*
X004656Y025115D03*
D100*
X004666Y021945D03*
X006326Y021945D03*
X006326Y017575D03*
X004666Y028615D03*
X004656Y028615D03*
D101*
X006316Y028615D03*
X006316Y021945D03*
X006316Y017575D03*
X004676Y017575D03*
X004666Y017575D03*
D102*
X004676Y021940D03*
X004676Y028610D03*
D103*
X006306Y028620D03*
X006306Y021940D03*
X004686Y021950D03*
X004686Y017580D03*
X006306Y017580D03*
D104*
X004686Y028615D03*
D105*
X004696Y028610D03*
X004696Y017570D03*
D106*
X006296Y017575D03*
X006296Y021945D03*
X004696Y021945D03*
X006296Y028615D03*
D107*
X005106Y024885D03*
X006566Y019485D03*
X007366Y015985D03*
X008326Y015985D03*
X008436Y015985D03*
X004796Y013805D03*
X004776Y013805D03*
X004726Y013805D03*
X004706Y013805D03*
D108*
X005056Y013800D03*
X005066Y013800D03*
X005086Y013810D03*
X005096Y013800D03*
X005106Y013800D03*
X005116Y013800D03*
X005126Y013800D03*
X005156Y013800D03*
X004706Y017100D03*
X006576Y019460D03*
X007376Y018580D03*
X005056Y024910D03*
X004706Y028140D03*
D109*
X005076Y024900D03*
X005906Y023840D03*
X006286Y022420D03*
X004706Y021480D03*
X004706Y018040D03*
X006286Y018040D03*
X005016Y013800D03*
X004996Y013800D03*
X004976Y013800D03*
X004966Y013800D03*
X004956Y013800D03*
X004946Y013800D03*
X004926Y013800D03*
X004916Y013800D03*
X004906Y013800D03*
X008406Y018580D03*
X006286Y029080D03*
D110*
X005086Y024900D03*
X005096Y024890D03*
X005876Y023850D03*
X006586Y021940D03*
X007296Y020910D03*
X007316Y020910D03*
X007336Y020910D03*
X007356Y020910D03*
X007366Y020910D03*
X007386Y020910D03*
X007396Y020910D03*
X007416Y020910D03*
X007436Y020910D03*
X007446Y020910D03*
X007466Y020910D03*
X008316Y020910D03*
X008326Y020910D03*
X008346Y020910D03*
X008356Y020910D03*
X008376Y020910D03*
X008396Y020910D03*
X008406Y020910D03*
X008426Y020910D03*
X008436Y020910D03*
X008456Y020910D03*
X008476Y020910D03*
X008396Y018580D03*
X008386Y015990D03*
X008396Y015980D03*
X008416Y015980D03*
X008446Y015980D03*
X008466Y015980D03*
X008486Y015980D03*
X008376Y015980D03*
X008346Y015980D03*
X008316Y015980D03*
X007456Y015980D03*
X007436Y015980D03*
X007416Y015980D03*
X007386Y015980D03*
X007356Y015980D03*
X007336Y015980D03*
X007326Y015990D03*
X007316Y015980D03*
X007286Y015980D03*
X006586Y017570D03*
X004866Y013800D03*
X004846Y013800D03*
X004826Y013800D03*
X004816Y013800D03*
X004806Y013800D03*
X004786Y013800D03*
X004766Y013800D03*
X004746Y013800D03*
X004706Y022410D03*
D111*
X005016Y024930D03*
X005956Y023810D03*
X005966Y023800D03*
X006276Y022450D03*
X006276Y021440D03*
X006586Y019430D03*
X006276Y018080D03*
X006276Y017070D03*
X007446Y016960D03*
X007466Y014880D03*
X008316Y014880D03*
X008426Y018580D03*
X008306Y021910D03*
X006276Y029120D03*
X004716Y017070D03*
X005356Y013800D03*
X005376Y013800D03*
X005406Y013800D03*
X009996Y013800D03*
X010006Y013800D03*
D112*
X009976Y013805D03*
X009966Y013795D03*
X009956Y013805D03*
X009906Y013805D03*
X009896Y013795D03*
X009886Y013805D03*
X009836Y013805D03*
X007946Y015935D03*
X007926Y015935D03*
X007906Y015935D03*
X007886Y015935D03*
X007426Y016965D03*
X007436Y014865D03*
X006266Y017045D03*
X006266Y018105D03*
X006236Y020015D03*
X006266Y022475D03*
X004986Y024945D03*
X004726Y028085D03*
X004726Y029145D03*
X006266Y029145D03*
X006266Y028085D03*
X004726Y021415D03*
X004726Y018105D03*
X004726Y017045D03*
X005516Y013805D03*
X005556Y013805D03*
X005566Y013805D03*
X005586Y013805D03*
X005596Y013805D03*
X005606Y013805D03*
X005616Y013805D03*
X005626Y013805D03*
X005656Y013805D03*
X007846Y020865D03*
X007896Y020865D03*
X007906Y020865D03*
X007956Y020865D03*
X007966Y020865D03*
D113*
X007986Y020860D03*
X007936Y020870D03*
X007926Y020860D03*
X007876Y020870D03*
X007866Y020860D03*
X007836Y020870D03*
X007826Y020860D03*
X007816Y020870D03*
X007806Y020860D03*
X007436Y021890D03*
X007446Y021900D03*
X008336Y021900D03*
X007356Y018580D03*
X007436Y016960D03*
X007806Y015940D03*
X007816Y015930D03*
X007826Y015940D03*
X007836Y015930D03*
X007846Y015930D03*
X007856Y015940D03*
X007866Y015930D03*
X007876Y015940D03*
X007966Y015930D03*
X007976Y015940D03*
X008336Y014870D03*
X007446Y014870D03*
X005576Y013800D03*
X005546Y013800D03*
X005536Y013810D03*
X005526Y013800D03*
X005496Y013800D03*
X004726Y022470D03*
X004996Y024940D03*
X005976Y023800D03*
X005986Y023800D03*
X009846Y013800D03*
X009916Y013800D03*
D114*
X008296Y015045D03*
X007446Y013815D03*
X007316Y016985D03*
X007886Y017025D03*
X007896Y017015D03*
X007926Y016965D03*
X007936Y016955D03*
X007456Y018805D03*
X007656Y020055D03*
X008116Y019465D03*
X008126Y019465D03*
X007296Y021755D03*
X008126Y023845D03*
X007646Y024445D03*
X008296Y022065D03*
X006246Y023665D03*
X005836Y022855D03*
X005826Y022855D03*
X005846Y022845D03*
X005856Y022845D03*
X005866Y022835D03*
X005876Y022835D03*
X005796Y022865D03*
X005196Y022865D03*
X005166Y022855D03*
X005156Y022855D03*
X005146Y022845D03*
X005136Y022845D03*
X005116Y022835D03*
X005116Y021055D03*
X005136Y021045D03*
X005146Y021045D03*
X005156Y021035D03*
X005166Y021035D03*
X005186Y021025D03*
X005526Y020265D03*
X005536Y020265D03*
X005556Y020275D03*
X005506Y020255D03*
X005796Y021025D03*
X005826Y021035D03*
X005836Y021035D03*
X005846Y021045D03*
X005856Y021045D03*
X005876Y021055D03*
X005896Y021065D03*
X005956Y020275D03*
X005976Y020265D03*
X005986Y020265D03*
X005996Y020255D03*
X006006Y020255D03*
X005806Y018495D03*
X005796Y018495D03*
X005816Y018485D03*
X005826Y018485D03*
X005846Y018475D03*
X005856Y018475D03*
X005876Y018465D03*
X005196Y018495D03*
X005166Y018485D03*
X005156Y018485D03*
X005146Y018475D03*
X005136Y018475D03*
X005116Y018465D03*
X005116Y016685D03*
X005136Y016675D03*
X005146Y016675D03*
X005156Y016665D03*
X005166Y016665D03*
X005796Y016655D03*
X005806Y016655D03*
X005826Y016665D03*
X005836Y016665D03*
X005846Y016675D03*
X005856Y016675D03*
X005876Y016685D03*
X005896Y016695D03*
X004726Y025085D03*
X005156Y027705D03*
X005166Y027705D03*
X005146Y027715D03*
X005136Y027715D03*
X005116Y027725D03*
X005776Y027685D03*
X005796Y027695D03*
X005826Y027705D03*
X005836Y027705D03*
X005846Y027715D03*
X005856Y027715D03*
X005876Y027725D03*
X005896Y029495D03*
X005856Y029515D03*
X005846Y029515D03*
X005826Y029525D03*
X005816Y029525D03*
X005806Y029535D03*
X005796Y029535D03*
X005196Y029535D03*
X005166Y029525D03*
X005156Y029525D03*
X005146Y029515D03*
X005136Y029515D03*
X005116Y029505D03*
D115*
X004736Y028060D03*
X004956Y024960D03*
X006256Y028060D03*
X007416Y021880D03*
X008366Y021880D03*
X006256Y021390D03*
X005276Y020030D03*
X004736Y017020D03*
X005796Y013810D03*
X005806Y013810D03*
X005816Y013800D03*
X005826Y013800D03*
X005786Y013800D03*
X006256Y017020D03*
X007406Y014850D03*
X007416Y014850D03*
X008366Y014850D03*
X009816Y013810D03*
X009866Y013800D03*
X009876Y013800D03*
X009926Y013800D03*
X009936Y013800D03*
X010026Y013810D03*
D116*
X009656Y013805D03*
X009646Y013805D03*
X009636Y013805D03*
X009626Y013805D03*
X008376Y014845D03*
X008446Y018585D03*
X008376Y021875D03*
X007406Y021875D03*
X006246Y021375D03*
X006246Y022515D03*
X006026Y023775D03*
X004946Y024965D03*
X004746Y022515D03*
X004746Y021375D03*
X004746Y018145D03*
X004746Y017005D03*
X005836Y013805D03*
X005846Y013805D03*
X005856Y013805D03*
X005866Y013805D03*
X005876Y013805D03*
X005886Y013805D03*
X005896Y013805D03*
X005906Y013805D03*
X005916Y013805D03*
X005926Y013805D03*
X006246Y018145D03*
X004746Y028045D03*
X004746Y029185D03*
X006246Y029185D03*
D117*
X005956Y029465D03*
X005946Y029465D03*
X005936Y029475D03*
X005916Y029485D03*
X005956Y027765D03*
X005946Y027755D03*
X005936Y027755D03*
X005056Y027755D03*
X005036Y027765D03*
X005036Y029465D03*
X005046Y029465D03*
X005056Y029475D03*
X005076Y029485D03*
X004756Y025065D03*
X004746Y025065D03*
X005076Y022815D03*
X005056Y022805D03*
X005036Y022795D03*
X005036Y021095D03*
X005046Y021085D03*
X005056Y021085D03*
X005096Y021065D03*
X005486Y020245D03*
X005466Y020235D03*
X005456Y020225D03*
X005446Y020225D03*
X006046Y020235D03*
X006056Y020225D03*
X006066Y020225D03*
X005916Y021075D03*
X005936Y021085D03*
X005956Y021095D03*
X005966Y021105D03*
X005966Y022785D03*
X005956Y022795D03*
X005946Y022795D03*
X005936Y022805D03*
X005916Y022815D03*
X005896Y022825D03*
X006236Y023665D03*
X006226Y023675D03*
X007306Y021775D03*
X007676Y020045D03*
X007326Y016985D03*
X008476Y014745D03*
X007336Y013805D03*
X007326Y013815D03*
X007316Y013805D03*
X007306Y013815D03*
X007296Y013805D03*
X005936Y016715D03*
X005956Y016725D03*
X005056Y016715D03*
X005046Y016715D03*
X005036Y016725D03*
X005036Y018425D03*
X005046Y018425D03*
X005056Y018435D03*
X005076Y018445D03*
X005916Y018445D03*
X005936Y018435D03*
X005946Y018425D03*
X005956Y018425D03*
X008106Y023865D03*
X007676Y024435D03*
X007666Y024435D03*
D118*
X007396Y021865D03*
X008386Y021865D03*
X008396Y021855D03*
X007336Y018585D03*
X007396Y016975D03*
X006236Y016985D03*
X006236Y018165D03*
X006226Y020045D03*
X006236Y021355D03*
X006236Y022535D03*
X006056Y023755D03*
X004926Y024975D03*
X004916Y024985D03*
X004756Y028025D03*
X006236Y028025D03*
X006236Y029205D03*
X004756Y021355D03*
X004756Y018165D03*
X004756Y016985D03*
X005966Y013805D03*
X005986Y013805D03*
X005996Y013805D03*
X006006Y013805D03*
X006016Y013805D03*
X006026Y013805D03*
X006036Y013805D03*
X006046Y013805D03*
X006066Y013805D03*
X009616Y013805D03*
X009676Y013805D03*
X009796Y013805D03*
X010036Y013805D03*
X010046Y013805D03*
X010056Y013805D03*
D119*
X009806Y013810D03*
X009666Y013800D03*
X008386Y014840D03*
X007406Y016970D03*
X007396Y014840D03*
X006246Y017000D03*
X005976Y013810D03*
X005956Y013810D03*
X005946Y013800D03*
X005936Y013810D03*
X004756Y022530D03*
X004936Y024970D03*
X006036Y023770D03*
X006046Y023770D03*
X006246Y028040D03*
X004756Y029200D03*
D120*
X004766Y029220D03*
X004766Y028010D03*
X004766Y022550D03*
X004766Y021340D03*
X005286Y020050D03*
X004766Y018180D03*
X004766Y016970D03*
X006056Y013810D03*
X006086Y013810D03*
X006096Y013800D03*
X006116Y013810D03*
X007386Y014830D03*
X008396Y014830D03*
X009786Y013810D03*
X008456Y018580D03*
X007376Y021850D03*
X007386Y021860D03*
X006226Y021340D03*
X006226Y018180D03*
D121*
X007386Y016975D03*
X007376Y014825D03*
X006226Y013805D03*
X006206Y013805D03*
X006186Y013805D03*
X006176Y013805D03*
X006166Y013805D03*
X006156Y013805D03*
X006146Y013805D03*
X006136Y013805D03*
X006126Y013805D03*
X006106Y013805D03*
X006076Y013805D03*
X004776Y016955D03*
X006616Y021945D03*
X006226Y022545D03*
X006076Y023745D03*
X006066Y023755D03*
X006226Y028015D03*
X006226Y029215D03*
X008406Y014825D03*
X009606Y013805D03*
X009686Y013805D03*
X010066Y013805D03*
D122*
X010076Y013805D03*
X009776Y013815D03*
X008416Y014815D03*
X008336Y016945D03*
X007376Y016975D03*
X007366Y014815D03*
X006346Y013805D03*
X006326Y013805D03*
X006316Y013805D03*
X006306Y013805D03*
X006296Y013805D03*
X006286Y013805D03*
X006276Y013805D03*
X006246Y013805D03*
X006236Y013805D03*
X006216Y016955D03*
X006206Y018205D03*
X006216Y020075D03*
X006216Y021325D03*
X006206Y022575D03*
X006086Y023745D03*
X004886Y024995D03*
X004786Y022575D03*
X004786Y021315D03*
X005296Y020075D03*
X004786Y018205D03*
X007366Y021845D03*
X006216Y027995D03*
X006616Y028615D03*
X006206Y029245D03*
X004786Y029245D03*
X004786Y027985D03*
D123*
X004806Y027955D03*
X004806Y029275D03*
X006186Y027955D03*
X006186Y022605D03*
X006196Y021295D03*
X006186Y021285D03*
X005306Y020095D03*
X004806Y021285D03*
X004806Y022605D03*
X004806Y016915D03*
X006186Y016915D03*
X006396Y013805D03*
X006406Y013805D03*
X006426Y013805D03*
X006436Y013805D03*
X006446Y013805D03*
X006456Y013805D03*
X006466Y013805D03*
X006486Y013805D03*
X008386Y016965D03*
X008466Y018585D03*
X008426Y021825D03*
X007356Y021835D03*
X008426Y014805D03*
X009596Y013805D03*
X009696Y013805D03*
X009706Y013805D03*
X009716Y013805D03*
X009736Y013805D03*
X009756Y013805D03*
X009766Y013805D03*
X010086Y013805D03*
D124*
X008446Y014785D03*
X008476Y018585D03*
X008026Y019515D03*
X008446Y021815D03*
X007746Y024395D03*
X006146Y023715D03*
X006136Y022655D03*
X006146Y022645D03*
X006146Y021245D03*
X006136Y021235D03*
X006176Y020135D03*
X005336Y020135D03*
X004856Y021235D03*
X004846Y021245D03*
X004846Y022645D03*
X004856Y022655D03*
X004836Y025025D03*
X004826Y025025D03*
X004856Y027905D03*
X004846Y029315D03*
X006136Y029325D03*
X006146Y029315D03*
X006146Y027915D03*
X006136Y018285D03*
X006146Y018275D03*
X006146Y016875D03*
X004856Y016865D03*
X004856Y018285D03*
X006676Y013805D03*
X006696Y013805D03*
X006706Y013805D03*
X006726Y013805D03*
X006736Y013805D03*
X006756Y013805D03*
X006776Y013805D03*
D125*
X006996Y013805D03*
X007036Y013805D03*
X007046Y013805D03*
X007316Y014765D03*
X006076Y016805D03*
X006066Y016805D03*
X006056Y016795D03*
X006086Y016815D03*
X006086Y018335D03*
X006066Y018345D03*
X006056Y018355D03*
X006126Y020175D03*
X006136Y020175D03*
X006056Y021165D03*
X006076Y021175D03*
X006086Y021185D03*
X006056Y022725D03*
X006186Y023695D03*
X004946Y022735D03*
X004906Y021185D03*
X004916Y021175D03*
X004946Y021155D03*
X005376Y020175D03*
X004946Y018365D03*
X004916Y018345D03*
X004916Y016805D03*
X004926Y016795D03*
X004946Y016785D03*
X007716Y020025D03*
X008076Y019485D03*
X007726Y024405D03*
X006056Y027835D03*
X006066Y027845D03*
X006076Y027845D03*
X006086Y027855D03*
X006086Y029375D03*
X006066Y029385D03*
X006046Y029405D03*
X004946Y029405D03*
X004926Y029385D03*
X004906Y029375D03*
X004916Y027845D03*
X004926Y027835D03*
X004946Y027825D03*
X010116Y013815D03*
X010126Y013815D03*
X010136Y013815D03*
X010146Y013815D03*
X010156Y013815D03*
X010166Y013815D03*
X010176Y013815D03*
X010186Y013815D03*
X010196Y013815D03*
X010206Y013815D03*
X010216Y013815D03*
X010226Y013815D03*
X010246Y013815D03*
X010256Y013815D03*
D126*
X006366Y019655D03*
X005146Y019665D03*
X004936Y019665D03*
D127*
X004946Y019660D03*
X004956Y019650D03*
D128*
X005406Y020195D03*
X005416Y020205D03*
X004986Y021125D03*
X004976Y021135D03*
X004956Y021145D03*
X004976Y022755D03*
X004986Y022765D03*
X006016Y022755D03*
X006216Y023675D03*
X006206Y023685D03*
X006016Y021135D03*
X006006Y021125D03*
X006076Y020215D03*
X006096Y020205D03*
X006106Y020195D03*
X006006Y018395D03*
X006016Y018385D03*
X006026Y018375D03*
X006036Y016775D03*
X006016Y016765D03*
X006006Y016755D03*
X004986Y016755D03*
X004976Y016765D03*
X004956Y016775D03*
X004956Y018375D03*
X004976Y018385D03*
X004986Y018395D03*
X007136Y013805D03*
X007156Y013805D03*
X007166Y013815D03*
X007186Y013805D03*
X007196Y013815D03*
X007206Y013805D03*
X008086Y019485D03*
X007696Y020035D03*
X008086Y023865D03*
X007696Y024425D03*
X007686Y024425D03*
X006006Y027795D03*
X006016Y027805D03*
X006036Y027815D03*
X006026Y029415D03*
X006016Y029425D03*
X006006Y029435D03*
X004986Y029435D03*
X004976Y029425D03*
X004956Y029415D03*
X004956Y027815D03*
X004976Y027805D03*
X004986Y027795D03*
D129*
X004966Y019650D03*
X005116Y019640D03*
X006386Y019650D03*
X006396Y019640D03*
D130*
X006406Y019635D03*
X004976Y019645D03*
D131*
X006266Y021410D03*
X005996Y023790D03*
X004976Y024950D03*
X006606Y028610D03*
X008346Y021890D03*
X008356Y021880D03*
X008436Y018580D03*
X008346Y014860D03*
X007426Y014860D03*
X005696Y013800D03*
X005676Y013810D03*
X005666Y013800D03*
X005646Y013800D03*
X005636Y013810D03*
X009826Y013800D03*
X009856Y013800D03*
X009946Y013800D03*
D132*
X006286Y017095D03*
X005076Y013805D03*
X005046Y013805D03*
X005036Y013805D03*
X005026Y013805D03*
X005006Y013805D03*
X004986Y013805D03*
X006286Y021465D03*
X005916Y023825D03*
X005066Y024905D03*
D133*
X005106Y019640D03*
X004996Y019630D03*
X004986Y019640D03*
D134*
X005006Y024935D03*
X006276Y028105D03*
X007456Y021905D03*
X007466Y021905D03*
X007856Y020865D03*
X007886Y020865D03*
X007916Y020865D03*
X007946Y020865D03*
X007976Y020865D03*
X008326Y021895D03*
X008316Y021905D03*
X007986Y015935D03*
X007956Y015935D03*
X007936Y015935D03*
X007916Y015935D03*
X007896Y015935D03*
X008326Y014875D03*
X007456Y014875D03*
X005506Y013805D03*
X005486Y013805D03*
X005476Y013805D03*
X005466Y013805D03*
X005456Y013805D03*
X005446Y013805D03*
X005436Y013805D03*
X005426Y013805D03*
X005416Y013805D03*
X005396Y013805D03*
D135*
X005076Y019615D03*
X005016Y019625D03*
X006426Y019625D03*
X006436Y019615D03*
D136*
X006526Y017570D03*
X005036Y019610D03*
X005026Y019620D03*
D137*
X005946Y023815D03*
X005926Y023825D03*
X005046Y024915D03*
X005036Y024925D03*
X008416Y018585D03*
X005206Y013805D03*
X005196Y013805D03*
X005186Y013805D03*
X005176Y013805D03*
X005146Y013805D03*
X005136Y013805D03*
D138*
X005056Y019605D03*
X006456Y019605D03*
X006536Y021945D03*
D139*
X006446Y019610D03*
X005066Y019610D03*
D140*
X005086Y019630D03*
X005096Y019630D03*
X006416Y019630D03*
D141*
X006356Y019660D03*
X005166Y019670D03*
X005156Y019660D03*
X006496Y028610D03*
D142*
X006316Y019685D03*
X005196Y019685D03*
X005186Y019675D03*
X005176Y019675D03*
D143*
X005796Y023890D03*
X005176Y024850D03*
X007426Y018580D03*
X008366Y018580D03*
D144*
X006526Y019530D03*
X005766Y023910D03*
X005216Y024830D03*
X005206Y024840D03*
D145*
X006486Y028615D03*
X006306Y019685D03*
X005216Y019695D03*
D146*
X005226Y019700D03*
X006286Y019700D03*
X006296Y019690D03*
D147*
X005746Y023915D03*
X005226Y024825D03*
X008336Y018575D03*
D148*
X006266Y019700D03*
X005256Y019710D03*
X005246Y019700D03*
X005236Y019700D03*
D149*
X005266Y019715D03*
X006246Y019715D03*
X006256Y019705D03*
D150*
X005756Y023910D03*
D151*
X005786Y023895D03*
X006566Y021945D03*
X008346Y018585D03*
X006566Y017575D03*
X006566Y028615D03*
D152*
X006556Y026430D03*
X006566Y026430D03*
X006576Y026430D03*
X006546Y026430D03*
X006536Y026430D03*
X006516Y026430D03*
X006496Y026430D03*
X006486Y026430D03*
X006476Y026430D03*
X006456Y026430D03*
X006446Y026430D03*
X006436Y026430D03*
X006426Y026430D03*
X006416Y026430D03*
X006396Y026430D03*
X006386Y026430D03*
X006376Y026430D03*
X006356Y026430D03*
X006336Y026430D03*
X006326Y026430D03*
X006316Y026430D03*
X006306Y026430D03*
X006296Y026430D03*
X006276Y026430D03*
X006266Y026430D03*
X006256Y026430D03*
X006386Y015400D03*
X006396Y015390D03*
X006416Y015390D03*
X006426Y015390D03*
X006446Y015390D03*
X006456Y015390D03*
X006476Y015390D03*
X006486Y015390D03*
X006496Y015390D03*
X006506Y015390D03*
X006536Y015390D03*
X006556Y015390D03*
X006576Y015390D03*
X006586Y015390D03*
X006376Y015390D03*
X006366Y015390D03*
X006346Y015390D03*
X006336Y015390D03*
X006316Y015390D03*
X006296Y015390D03*
X006276Y015390D03*
X006266Y015390D03*
X006256Y015390D03*
X006246Y015390D03*
D153*
X006286Y015395D03*
X006326Y015395D03*
X006406Y015395D03*
X006526Y015395D03*
X006566Y015395D03*
X006506Y026435D03*
X006466Y026435D03*
X006406Y026435D03*
X006366Y026435D03*
X006246Y026435D03*
D154*
X006286Y026435D03*
X006346Y026435D03*
X006526Y026435D03*
X006586Y026435D03*
X006546Y015395D03*
X006516Y015395D03*
X006466Y015395D03*
X006436Y015395D03*
X006356Y015395D03*
X006306Y015395D03*
D155*
X007466Y016775D03*
X007816Y017125D03*
X007476Y018275D03*
X007596Y020085D03*
X008506Y018585D03*
X008276Y022115D03*
X008186Y023815D03*
X008176Y023825D03*
X007606Y024465D03*
X007596Y024475D03*
X007586Y024475D03*
X006306Y023635D03*
X007876Y013815D03*
X007906Y013805D03*
X007916Y013815D03*
X007926Y013815D03*
X007956Y013815D03*
X007986Y013815D03*
D156*
X006326Y019680D03*
D157*
X006326Y028620D03*
D158*
X006336Y028610D03*
X006336Y017570D03*
D159*
X006426Y017575D03*
X006426Y021945D03*
X006426Y028615D03*
D160*
X006476Y019580D03*
D161*
X006486Y019575D03*
D162*
X006496Y019570D03*
D163*
X006506Y019560D03*
D164*
X007476Y020145D03*
X007506Y018895D03*
X007656Y018105D03*
X007676Y018095D03*
X007696Y018085D03*
X007706Y018085D03*
X008056Y018075D03*
X008076Y018085D03*
X008086Y018085D03*
X008096Y018095D03*
X008106Y018095D03*
X008116Y018095D03*
X008126Y018105D03*
X008516Y018585D03*
X008306Y019375D03*
X007706Y017225D03*
X007526Y017225D03*
X007546Y016685D03*
X007706Y015265D03*
X007716Y015265D03*
X007696Y015255D03*
X007686Y015255D03*
X007676Y015245D03*
X007666Y015245D03*
X008066Y015265D03*
X008086Y015255D03*
X008106Y015245D03*
X008126Y015235D03*
X008126Y016745D03*
X008106Y016755D03*
X008266Y016745D03*
X008276Y016755D03*
X008906Y013815D03*
X008926Y013815D03*
X008956Y013815D03*
X008966Y013815D03*
X008986Y013815D03*
X008996Y013815D03*
X009006Y013815D03*
X009016Y013815D03*
X009026Y013815D03*
X009036Y013815D03*
X009046Y013815D03*
X009056Y013815D03*
X009076Y013815D03*
X009086Y013815D03*
X009116Y013815D03*
X011526Y013805D03*
X008116Y022265D03*
X008096Y022275D03*
X008086Y022285D03*
X008076Y022285D03*
X008046Y022295D03*
X007756Y022305D03*
X007706Y022285D03*
X007696Y022285D03*
X007686Y022275D03*
X007676Y022275D03*
X008306Y023755D03*
X007486Y024525D03*
X007476Y024535D03*
X007466Y024535D03*
X006646Y028615D03*
D165*
X012031Y013800D03*
D166*
X012851Y013805D03*
M02*
